<svg width="33" height="32" viewBox="0 0 33 32" fill="none" xmlns="http://www.w3.org/2000/svg">
  <g clip-path="url(#clip0_384_374)">
  <path d="M16.8617 32C7.91965 31.9876 0.632682 24.7999 0.719518 15.953C0.810489 6.9014 8.06437 0.0144944 16.9237 2.17332e-05C25.7902 -0.0144509 33.0017 7.20119 32.9997 16.015C32.9976 24.8619 25.7799 32.0114 16.8617 32ZM17.9512 14.2897C18.065 14.0436 18.1301 13.8906 18.2055 13.7418C19.1752 11.8479 20.1542 9.95822 21.1114 8.05714C21.2655 7.75115 21.6604 7.3883 21.2345 7.05439C20.8313 6.73806 20.5367 7.14123 20.2627 7.37382C16.8337 10.2942 13.4099 13.2208 9.9882 16.1494C9.79385 16.3158 9.60054 16.4947 9.45064 16.7004C9.2656 16.9547 9.35451 17.1625 9.66257 17.2369C9.82693 17.2762 10.0027 17.2783 10.1743 17.2793C11.8438 17.2824 13.5123 17.2814 15.1818 17.2814C15.3617 17.2814 15.5426 17.2814 15.7959 17.2814C15.6863 17.5181 15.6201 17.6721 15.5447 17.821C14.5895 19.7035 13.6312 21.5839 12.677 23.4674C12.5767 23.6659 12.4423 23.8643 12.4103 24.0763C12.3772 24.2892 12.4527 24.5177 12.4796 24.7399C12.7028 24.711 12.9416 24.7213 13.1453 24.6407C13.3283 24.5683 13.4782 24.4019 13.6332 24.2675C17.0002 21.3285 20.3671 18.3875 23.732 15.4464C23.9129 15.2883 24.1 15.1332 24.2582 14.9533C24.5559 14.6153 24.4815 14.3951 24.0421 14.3228C23.823 14.2866 23.5966 14.2928 23.3733 14.2928C21.6035 14.2907 19.8327 14.2917 17.9502 14.2917L17.9512 14.2897Z" fill="#6825E5"/>
  <path d="M17.9515 14.2896C19.834 14.2896 21.6048 14.2896 23.3746 14.2906C23.5979 14.2906 23.8243 14.2854 24.0434 14.3206C24.4817 14.3919 24.5572 14.6121 24.2595 14.9512C24.1013 15.131 23.9142 15.2861 23.7333 15.4443C20.3684 18.3853 17.0015 21.3264 13.6345 24.2653C13.4794 24.4008 13.3296 24.5662 13.1466 24.6385C12.944 24.7192 12.7041 24.7088 12.4808 24.7378C12.4529 24.5155 12.3785 24.287 12.4116 24.0741C12.4447 23.8622 12.578 23.6637 12.6783 23.4652C13.6335 21.5827 14.5907 19.7013 15.5459 17.8188C15.6214 17.67 15.6876 17.5159 15.7971 17.2792C15.5439 17.2792 15.363 17.2792 15.1831 17.2792C13.5136 17.2792 11.8451 17.2802 10.1756 17.2771C10.005 17.2771 9.82821 17.2751 9.66385 17.2347C9.35579 17.1603 9.26688 16.9525 9.45193 16.6982C9.60182 16.4925 9.79513 16.3137 9.98948 16.1472C13.4112 13.2186 16.835 10.292 20.264 7.37165C20.538 7.13906 20.8326 6.73486 21.2357 7.05222C21.6617 7.38613 21.2668 7.74897 21.1127 8.05497C20.1555 9.95605 19.1775 11.8458 18.2068 13.7396C18.1314 13.8885 18.0662 14.0415 17.9525 14.2875L17.9515 14.2896Z" fill="white"/>
  </g>
  <defs>
  <clipPath id="clip0_384_374">
  <rect width="32.2802" height="32" fill="white" transform="translate(0.719727)"/>
  </clipPath>
  </defs>
  </svg>
  