<svg width="66" height="66" viewBox="0 0 66 66" fill="none" xmlns="http://www.w3.org/2000/svg">
  <path
    d="M65.0122 40.9835C60.6042 58.6622 42.6967 69.4213 25.014 65.0127C7.3386 60.6051 -3.42158 42.6985 0.988518 25.0208C5.39449 7.34002 23.302 -3.42004 40.9795 0.987521C58.6611 5.39508 69.4203 23.3038 65.0122 40.9835Z"
    fill="#F7931A" />
  <path
    d="M47.5502 28.2983C48.2071 23.9072 44.8638 21.5467 40.2923 19.972L41.7752 14.0237L38.1545 13.1214L36.7107 18.9129C35.7589 18.6757 34.7813 18.4519 33.8098 18.2302L35.2639 12.4005L31.6452 11.4982L30.1613 17.4444C29.3734 17.2649 28.6 17.0875 27.8492 16.9009L27.8533 16.8823L22.86 15.6355L21.8968 19.5027C21.8968 19.5027 24.5832 20.1184 24.5265 20.1565C25.993 20.5226 26.258 21.493 26.2136 22.2624L24.5244 29.0387C24.6255 29.0645 24.7565 29.1016 24.9009 29.1594C24.7802 29.1294 24.6513 29.0965 24.5183 29.0645L22.1505 38.5571C21.9711 39.0026 21.5163 39.6709 20.4912 39.4172C20.5273 39.4698 17.8595 38.7603 17.8595 38.7603L16.062 42.9049L20.7738 44.0795C21.6504 44.2991 22.5094 44.5291 23.355 44.7457L21.8566 50.762L25.4732 51.6643L26.9572 45.712C27.9451 45.9801 28.9042 46.2276 29.8426 46.4606L28.3638 52.3852L31.9845 53.2875L33.4829 47.2825C39.657 48.451 44.2997 47.9797 46.2539 42.3954C47.8286 37.8992 46.1755 35.3056 42.9271 33.6144C45.2928 33.0688 47.0748 31.5127 47.5502 28.2983ZM39.2775 39.8988C38.1586 44.395 30.5882 41.9644 28.1338 41.3549L30.1221 33.3844C32.5765 33.997 40.447 35.2097 39.2775 39.8988ZM40.3975 28.2333C39.3765 32.3232 33.0756 30.2453 31.0316 29.7358L32.8343 22.5068C34.8782 23.0162 41.4607 23.967 40.3975 28.2333Z"
    fill="white" />
</svg>
   