<svg version="1.2" xmlns="http://www.w3.org/2000/svg" viewBox="0 0 66 64" width="66" height="64"><defs><clipPath clipPathUnits="userSpaceOnUse" id="cp1"><path d="m1.44 0h64.56v64h-64.56z"/></clipPath></defs><style>.a{fill:#6825e5}.b{fill:#fff}</style><g clip-path="url(#cp1)"><path fill-rule="evenodd" class="a" d="m33.7 64c-17.8 0-32.3-14.3-32.3-32 0-17.7 14.5-32 32.3-32 17.9 0 32.3 14.3 32.3 32 0 17.7-14.4 32-32.3 32zm2.2-35.4c0.2-0.5 0.4-0.8 0.5-1.1 2-3.8 3.9-7.6 5.8-11.4 0.3-0.6 1.1-1.3 0.3-2-0.8-0.6-1.4 0.2-2 0.6q-10.3 8.8-20.5 17.6c-0.4 0.3-0.8 0.7-1.1 1.1-0.4 0.5-0.2 0.9 0.4 1.1 0.4 0.1 0.7 0.1 1 0.1q5.1 0 10.1 0c0.3 0 0.7 0 1.2 0-0.2 0.4-0.4 0.7-0.5 1q-2.9 5.7-5.7 11.3c-0.2 0.4-0.5 0.8-0.6 1.3 0 0.4 0.1 0.8 0.2 1.3 0.4-0.1 0.9-0.1 1.3-0.2 0.4-0.2 0.7-0.5 1-0.8q10.1-8.8 20.2-17.6c0.3-0.3 0.7-0.6 1-1q0.9-1-0.4-1.3c-0.5 0-0.9 0-1.4 0-3.5 0-7 0-10.8 0z"/><path class="b" d="m35.9 28.6c3.8 0 7.3 0 10.8 0 0.5 0 0.9 0 1.4 0 0.9 0.2 1 0.6 0.4 1.3-0.3 0.4-0.7 0.7-1 1q-10.1 8.8-20.2 17.6c-0.3 0.3-0.6 0.6-1 0.8-0.4 0.1-0.9 0.1-1.3 0.2-0.1-0.5-0.2-0.9-0.2-1.4 0.1-0.4 0.4-0.8 0.6-1.2q2.8-5.6 5.7-11.3c0.1-0.3 0.3-0.6 0.5-1-0.5 0-0.9 0-1.2 0q-5 0-10 0c-0.4 0-0.7 0-1.1-0.1-0.6-0.2-0.8-0.6-0.4-1.1 0.3-0.4 0.7-0.8 1.1-1.1q10.2-8.8 20.5-17.6c0.6-0.4 1.2-1.2 2-0.6 0.8 0.7 0 1.4-0.3 2-1.9 3.8-3.8 7.6-5.8 11.4-0.1 0.3-0.3 0.6-0.5 1.1z"/></g></svg>