<?xml version="1.0" encoding="utf-8"?>
<!-- Generator: Adobe Illustrator 25.2.3, SVG Export Plug-In . SVG Version: 6.00 Build 0)  -->
<svg version="1.1" id="Capa_1" xmlns="http://www.w3.org/2000/svg" xmlns:xlink="http://www.w3.org/1999/xlink" x="0px" y="0px"
	 viewBox="0 0 72 72" style="enable-background:new 0 0 72 72;" xml:space="preserve">
<style type="text/css">
	.st0{fill:#00D0A6;}
	.st1{fill:#FFFFFF;}
</style>
<path class="st0" d="M36,0L36,0c19.9,0,36,16.1,36,36l0,0c0,19.9-16.1,36-36,36l0,0C16.1,72,0,55.9,0,36l0,0C0,16.1,16.1,0,36,0z"/>
<path class="st1" d="M22,39.6c-0.3,0-0.5-0.1-0.8-0.1c-0.2-0.1-0.5-0.3-0.6-0.4c-0.1-0.1-0.2-0.2-0.2-0.3c-0.1-0.1-0.1-0.2-0.2-0.3
	C20.1,38.3,20,38.1,20,38c0-0.1,0-0.3,0-0.4c0-0.5,0.2-1,0.6-1.4c0.4-0.4,0.9-0.6,1.4-0.6c0.5,0,1,0.2,1.4,0.6
	c0.4,0.4,0.6,0.9,0.6,1.4c0,0.3-0.1,0.5-0.2,0.8c0,0.1-0.1,0.2-0.2,0.3c-0.1,0.1-0.1,0.2-0.2,0.3C23,39.4,22.5,39.6,22,39.6z"/>
<path class="st1" d="M30.9,49c-0.3,0-0.5,0-0.8-0.2c-0.2-0.1-0.5-0.3-0.7-0.5l-4.3-4.5c-0.4-0.4-0.6-0.9-0.6-1.4s0.2-1,0.6-1.4
	c0.4-0.4,0.9-0.6,1.4-0.6c0.5,0,1,0.2,1.4,0.6l2.8,3l16.7-19.4c0.3-0.4,0.8-0.6,1.4-0.7c0.5,0,1,0.1,1.4,0.5
	c0.4,0.3,0.6,0.8,0.7,1.4c0,0.5-0.1,1-0.5,1.4l-18.1,21c-0.2,0.2-0.4,0.4-0.6,0.5C31.5,48.9,31.3,49,30.9,49L30.9,49z"/>
</svg>
