<?xml version="1.0" encoding="utf-8"?>
<!-- Generator: Adobe Illustrator 25.2.3, SVG Export Plug-In . SVG Version: 6.00 Build 0)  -->
<svg version="1.1" id="Capa_1" xmlns="http://www.w3.org/2000/svg" xmlns:xlink="http://www.w3.org/1999/xlink" x="0px" y="0px"
	 viewBox="0 0 16.9 16.9" style="enable-background:new 0 0 16.9 16.9;" xml:space="preserve">
<style type="text/css">
	.st0{fill-rule:evenodd;clip-rule:evenodd;fill:#888989;}
</style>
<path class="st0" d="M14.6,0.4c0.5-0.5,1.4-0.5,1.9,0c0.5,0.5,0.5,1.4,0,1.9L2.3,16.5c-0.5,0.5-1.4,0.5-1.9,0
	c-0.5-0.5-0.5-1.4,0-1.9L14.6,0.4z"/>
<path class="st0" d="M16.5,14.6c0.5,0.5,0.5,1.4,0,1.9c-0.5,0.5-1.4,0.5-1.9,0L0.4,2.3c-0.5-0.5-0.5-1.4,0-1.9
	c0.5-0.5,1.4-0.5,1.9,0L16.5,14.6z"/>
</svg>
