<?xml version="1.0" encoding="utf-8"?>
<!-- Generator: Adobe Illustrator 25.2.3, SVG Export Plug-In . SVG Version: 6.00 Build 0)  -->
<svg version="1.1" id="Capa_1" xmlns="http://www.w3.org/2000/svg" xmlns:xlink="http://www.w3.org/1999/xlink" x="0px" y="0px"
	 viewBox="0 0 72 72" style="enable-background:new 0 0 72 72;" xml:space="preserve">
<style type="text/css">
	.st0{fill:#FFFFFF;}
	.st1{fill:#FD0658;}
</style>
<path class="st0" d="M21.8,40.4c-0.3,0-0.5-0.1-0.8-0.1c-0.2-0.1-0.5-0.3-0.6-0.4c-0.1-0.1-0.2-0.2-0.2-0.3
	c-0.1-0.1-0.1-0.2-0.2-0.3c-0.1-0.1-0.1-0.2-0.1-0.4c0-0.1,0-0.3,0-0.4c0-0.5,0.2-1,0.6-1.4c0.4-0.4,0.9-0.6,1.4-0.6
	c0.5,0,1,0.2,1.4,0.6c0.4,0.4,0.6,0.9,0.6,1.4c0,0.3-0.1,0.5-0.2,0.8c0,0.1-0.1,0.2-0.2,0.3c-0.1,0.1-0.1,0.2-0.2,0.3
	C22.9,40.3,22.4,40.5,21.8,40.4z"/>
<path class="st0" d="M30.8,49.8c-0.3,0-0.5,0-0.8-0.2c-0.2-0.1-0.5-0.3-0.7-0.5l-4.3-4.5c-0.4-0.4-0.6-0.9-0.6-1.4s0.2-1,0.6-1.4
	c0.4-0.4,0.9-0.6,1.4-0.6c0.5,0,1,0.2,1.4,0.6l2.8,3l16.7-19.4c0.3-0.4,0.8-0.6,1.4-0.7c0.5,0,1,0.1,1.4,0.5
	c0.4,0.3,0.6,0.8,0.7,1.4c0,0.5-0.1,1-0.5,1.4l-18.1,21c-0.2,0.2-0.4,0.4-0.6,0.5C31.4,49.8,31.2,49.8,30.8,49.8L30.8,49.8z"/>
<path class="st1" d="M36,0L36,0c19.9,0,36,16.1,36,36l0,0c0,19.9-16.1,36-36,36l0,0C16.1,72,0,55.9,0,36l0,0C0,16.1,16.1,0,36,0z"/>
<path class="st0" d="M48.2,50c-0.5,0-1-0.2-1.3-0.5L22.5,25.1c-0.3-0.3-0.5-0.8-0.5-1.3c0-0.5,0.2-1,0.5-1.3
	c0.3-0.3,0.8-0.5,1.3-0.5c0.5,0,1,0.2,1.3,0.5l24.3,24.3c0.3,0.3,0.4,0.6,0.5,0.9c0.1,0.4,0,0.7-0.1,1.1c-0.1,0.3-0.4,0.6-0.7,0.8
	C48.9,49.9,48.5,50,48.2,50z"/>
<path class="st0" d="M23.8,50c-0.4,0-0.7-0.1-1-0.3c-0.3-0.2-0.5-0.5-0.7-0.8C22,48.5,22,48.2,22,47.8c0.1-0.4,0.2-0.7,0.5-0.9
	l24.3-24.3c0.3-0.3,0.8-0.5,1.3-0.5c0.5,0,1,0.2,1.3,0.5c0.3,0.3,0.5,0.8,0.5,1.3c0,0.5-0.2,1-0.5,1.3L25.1,49.5
	C24.8,49.8,24.3,50,23.8,50z"/>
</svg>
