<?xml version="1.0" encoding="utf-8"?>
<!-- Generator: Adobe Illustrator 25.2.3, SVG Export Plug-In . SVG Version: 6.00 Build 0)  -->
<svg version="1.1" id="Capa_1" xmlns="http://www.w3.org/2000/svg" xmlns:xlink="http://www.w3.org/1999/xlink" x="0px" y="0px"
	 viewBox="0 0 72 70.7" style="enable-background:new 0 0 72 70.7;" xml:space="preserve">
<style type="text/css">
	.st0{fill:#FFFFFF;}
	.st1{fill:#FD0658;}
	.st2{fill:#121212;}
</style>
<path class="st0" d="M10,39.8c-0.3,0-0.5-0.1-0.8-0.1c-0.2-0.1-0.5-0.3-0.6-0.4c-0.1-0.1-0.2-0.2-0.2-0.3c-0.1-0.1-0.1-0.2-0.2-0.3
	c-0.1-0.1-0.1-0.2-0.1-0.4c0-0.1,0-0.3,0-0.4c0-0.5,0.2-1,0.6-1.4c0.4-0.4,0.9-0.6,1.4-0.6c0.5,0,1,0.2,1.4,0.6
	c0.4,0.4,0.6,0.9,0.6,1.4c0,0.3-0.1,0.5-0.2,0.8c0,0.1-0.1,0.2-0.2,0.3c-0.1,0.1-0.1,0.2-0.2,0.3C11,39.6,10.5,39.8,10,39.8z"/>
<path class="st0" d="M19,49.2c-0.3,0-0.5,0-0.8-0.2c-0.2-0.1-0.5-0.3-0.7-0.5L13.3,44c-0.4-0.4-0.6-0.9-0.6-1.4s0.2-1,0.6-1.4
	c0.4-0.4,0.9-0.6,1.4-0.6c0.5,0,1,0.2,1.4,0.6l2.8,3l16.7-19.4c0.3-0.4,0.8-0.6,1.4-0.7c0.5,0,1,0.1,1.4,0.5
	c0.4,0.3,0.6,0.8,0.7,1.4c0,0.5-0.1,1-0.5,1.4l-18.1,21c-0.2,0.2-0.4,0.4-0.6,0.5C19.6,49.1,19.3,49.1,19,49.2L19,49.2z"/>
<path class="st1" d="M54.2,70.7c-3.5,0-7-1-9.9-3c-2.9-2-5.2-4.7-6.6-8c-1.3-3.3-1.7-6.8-1-10.3c0.7-3.5,2.4-6.6,4.9-9.1
	s5.7-4.2,9.1-4.9c3.5-0.7,7-0.3,10.3,1c3.3,1.3,6,3.6,8,6.6c2,2.9,3,6.4,3,9.9c0,4.7-1.9,9.3-5.2,12.6
	C63.4,68.8,58.9,70.7,54.2,70.7z M54.2,38.5c-2.8,0-5.6,0.8-8,2.4c-2.4,1.6-4.2,3.8-5.3,6.4c-1.1,2.6-1.4,5.5-0.8,8.3
	C40.7,58.4,42,61,44,63c2,2,4.6,3.4,7.3,3.9c2.8,0.6,5.7,0.3,8.3-0.8c2.6-1.1,4.9-2.9,6.4-5.3c1.6-2.4,2.4-5.1,2.4-8
	c0-3.8-1.5-7.4-4.2-10.1C61.6,40,58,38.5,54.2,38.5z"/>
<path class="st1" d="M60,60.4c-0.5,0-0.9-0.2-1.2-0.5L47.1,48.2c-0.2-0.2-0.3-0.4-0.4-0.6c-0.1-0.2-0.1-0.4-0.1-0.7
	c0-0.2,0-0.5,0.1-0.7c0.1-0.2,0.2-0.4,0.4-0.6c0.2-0.2,0.4-0.3,0.6-0.4c0.2-0.1,0.4-0.1,0.7-0.1c0.2,0,0.5,0.1,0.7,0.1
	c0.2,0.1,0.4,0.2,0.6,0.4l11.6,11.6c0.2,0.2,0.4,0.6,0.5,0.9c0.1,0.3,0,0.7-0.1,1c-0.1,0.3-0.4,0.6-0.6,0.8
	C60.7,60.3,60.3,60.4,60,60.4z"/>
<path class="st1" d="M48.4,60.4c-0.3,0-0.7-0.1-1-0.3c-0.3-0.2-0.5-0.5-0.6-0.8c-0.1-0.3-0.2-0.7-0.1-1c0.1-0.3,0.2-0.6,0.5-0.9
	l11.6-11.6c0.2-0.2,0.4-0.3,0.6-0.4c0.2-0.1,0.4-0.1,0.7-0.1s0.5,0,0.7,0.1c0.2,0.1,0.4,0.2,0.6,0.4c0.2,0.2,0.3,0.4,0.4,0.6
	c0.1,0.2,0.1,0.4,0.1,0.7c0,0.2-0.1,0.5-0.1,0.7c-0.1,0.2-0.2,0.4-0.4,0.6L49.6,59.9C49.3,60.2,48.8,60.4,48.4,60.4z"/>
<path class="st2" d="M27.2,28.9H1.7c-0.5,0-0.9-0.2-1.2-0.5C0.2,28.1,0,27.6,0,27.2V1.7c0-0.5,0.2-0.9,0.5-1.2S1.3,0,1.7,0h25.4
	c0.5,0,0.9,0.2,1.2,0.5c0.3,0.3,0.5,0.8,0.5,1.2v25.4c0,0.5-0.2,0.9-0.5,1.2C28.1,28.7,27.6,28.9,27.2,28.9z M3.5,25.4h22v-22h-22
	V25.4z"/>
<path class="st2" d="M20.8,22.6H8.1c-0.5,0-0.9-0.2-1.2-0.5c-0.3-0.3-0.5-0.8-0.5-1.2V8.1c0-0.5,0.2-0.9,0.5-1.2
	c0.3-0.3,0.8-0.5,1.2-0.5h12.7c0.5,0,0.9,0.2,1.2,0.5c0.3,0.3,0.5,0.8,0.5,1.2v12.7c0,0.5-0.2,0.9-0.5,1.2
	C21.7,22.4,21.3,22.6,20.8,22.6z M9.8,19.1h9.3V9.8H9.8V19.1z"/>
<path class="st2" d="M53.2,16.2H34.6c-0.5,0-0.9-0.2-1.2-0.5c-0.3-0.3-0.5-0.8-0.5-1.2V1.7c0-0.5,0.2-0.9,0.5-1.2
	C33.7,0.2,34.1,0,34.6,0h18.7c0.5,0,0.9,0.2,1.2,0.5C54.8,0.8,55,1.3,55,1.7v12.7c0,0.5-0.2,0.9-0.5,1.2
	C54.1,16,53.7,16.2,53.2,16.2z M36.3,12.7h15.2V3.5H36.3V12.7z"/>
<path class="st2" d="M34.6,44.8c-0.5,0-0.9-0.2-1.2-0.5c-0.3-0.3-0.5-0.8-0.5-1.2v-8.5c0-0.5,0.2-0.9,0.5-1.2
	c0.3-0.3,0.8-0.5,1.2-0.5h8.4c0.5,0,0.9,0.2,1.2,0.5c0.3,0.3,0.5,0.8,0.5,1.2c0,0.5-0.2,0.9-0.5,1.2c-0.3,0.3-0.8,0.5-1.2,0.5h-6.6
	v6.8c0,0.2,0,0.5-0.1,0.7c-0.1,0.2-0.2,0.4-0.4,0.6c-0.2,0.2-0.4,0.3-0.6,0.4C35,44.8,34.8,44.8,34.6,44.8z"/>
<path class="st2" d="M60,28.9c-0.5,0-0.9-0.2-1.2-0.5c-0.3-0.3-0.5-0.8-0.5-1.2V1.7c0-0.5,0.2-0.9,0.5-1.2C59.1,0.2,59.5,0,60,0
	c0.5,0,0.9,0.2,1.2,0.5c0.3,0.3,0.5,0.8,0.5,1.2v25.4c0,0.5-0.2,0.9-0.5,1.2C60.9,28.7,60.5,28.9,60,28.9z"/>
<path class="st2" d="M34.6,28.9c-0.5,0-0.9-0.2-1.2-0.5c-0.3-0.3-0.5-0.8-0.5-1.2V14.5c0-0.5,0.2-0.9,0.5-1.2
	c0.3-0.3,0.8-0.5,1.2-0.5c0.5,0,0.9,0.2,1.2,0.5c0.3,0.3,0.5,0.8,0.5,1.2v12.7c0,0.5-0.2,0.9-0.5,1.2C35.5,28.7,35,28.9,34.6,28.9z"
	/>
<path class="st2" d="M53.2,28.9H34.6c-0.5,0-0.9-0.2-1.2-0.5c-0.3-0.3-0.5-0.8-0.5-1.2s0.2-0.9,0.5-1.2c0.3-0.3,0.8-0.5,1.2-0.5
	h18.7c0.5,0,0.9,0.2,1.2,0.5c0.3,0.3,0.5,0.8,0.5,1.2s-0.2,0.9-0.5,1.2C54.1,28.7,53.7,28.9,53.2,28.9z"/>
<path class="st2" d="M47.3,22.6h-5.5c-0.5,0-0.9-0.2-1.2-0.5c-0.3-0.3-0.5-0.8-0.5-1.2s0.2-0.9,0.5-1.2c0.3-0.3,0.8-0.5,1.2-0.5h5.5
	c0.5,0,0.9,0.2,1.2,0.5c0.3,0.3,0.5,0.8,0.5,1.2s-0.2,0.9-0.5,1.2C48.2,22.4,47.8,22.6,47.3,22.6L47.3,22.6z"/>
<path class="st2" d="M14.5,61.7H1.7c-0.5,0-0.9-0.2-1.2-0.5C0.2,60.9,0,60.5,0,60V34.6c0-0.5,0.2-0.9,0.5-1.2
	c0.3-0.3,0.8-0.5,1.2-0.5h12.7c0.5,0,0.9,0.2,1.2,0.5c0.3,0.3,0.5,0.8,0.5,1.2V60c0,0.5-0.2,0.9-0.5,1.2
	C15.4,61.6,14.9,61.7,14.5,61.7z M3.5,58.3h9.3v-22H3.5V58.3z"/>
<path class="st2" d="M27.2,61.7c-0.5,0-0.9-0.2-1.2-0.5c-0.3-0.3-0.5-0.8-0.5-1.2V34.6c0-0.5,0.2-0.9,0.5-1.2
	c0.3-0.3,0.8-0.5,1.2-0.5c0.5,0,0.9,0.2,1.2,0.5c0.3,0.3,0.5,0.8,0.5,1.2V60c0,0.5-0.2,0.9-0.5,1.2C28.1,61.6,27.6,61.7,27.2,61.7z"
	/>
<path class="st2" d="M20.8,54.5c-0.5,0-0.9-0.2-1.2-0.5c-0.3-0.3-0.5-0.8-0.5-1.2V40.5c0-0.5,0.2-0.9,0.5-1.2
	c0.3-0.3,0.8-0.5,1.2-0.5s0.9,0.2,1.2,0.5c0.3,0.3,0.5,0.8,0.5,1.2v12.3c0,0.5-0.2,0.9-0.5,1.2C21.7,54.4,21.3,54.5,20.8,54.5z"/>
<path class="st2" d="M53.2,22.6c-0.3,0-0.7-0.1-1-0.3c-0.3-0.2-0.5-0.5-0.6-0.8c-0.1-0.3-0.2-0.7-0.1-1c0.1-0.3,0.2-0.6,0.5-0.9
	c0.3-0.3,0.8-0.5,1.2-0.5c0.5,0,0.9,0.2,1.2,0.5c0.2,0.2,0.4,0.6,0.5,0.9c0.1,0.3,0,0.7-0.1,1c-0.1,0.3-0.4,0.6-0.6,0.8
	C53.9,22.5,53.6,22.6,53.2,22.6z"/>
<path class="st2" d="M14.5,16.2c-0.1,0-0.2,0-0.3,0c-0.1,0-0.2-0.1-0.3-0.1c-0.1,0-0.2-0.1-0.3-0.2c-0.1-0.1-0.2-0.1-0.3-0.2
	c-0.2-0.2-0.4-0.5-0.4-0.7c-0.1-0.3-0.1-0.6,0-0.8c0-0.1,0.1-0.2,0.1-0.3c0-0.1,0.1-0.2,0.2-0.3c0.1-0.1,0.1-0.2,0.2-0.3
	c0.1-0.1,0.2-0.2,0.3-0.2c0.1-0.1,0.2-0.1,0.3-0.2c0.1,0,0.2-0.1,0.3-0.1c0.3-0.1,0.6,0,0.8,0s0.5,0.2,0.7,0.4
	c0.1,0.1,0.2,0.2,0.2,0.3c0.1,0.1,0.1,0.2,0.2,0.3c0,0.1,0.1,0.2,0.1,0.3c0.1,0.3,0,0.5,0,0.8c-0.1,0.2-0.2,0.5-0.3,0.7
	c-0.2,0.2-0.4,0.4-0.6,0.5C15,16.1,14.7,16.2,14.5,16.2z"/>
<path class="st2" d="M20.8,36.3c-0.5,0-0.9-0.2-1.2-0.5c-0.3-0.3-0.5-0.8-0.5-1.2c0-0.1,0-0.2,0-0.3c0-0.1,0.1-0.2,0.1-0.3
	c0.1-0.2,0.2-0.4,0.4-0.6c0.3-0.3,0.8-0.5,1.2-0.5s0.9,0.2,1.2,0.5c0.1,0.1,0.2,0.2,0.2,0.3c0.1,0.1,0.1,0.2,0.2,0.3
	c0,0.1,0.1,0.2,0.1,0.3c0,0.1,0,0.2,0,0.3c0,0.5-0.2,0.9-0.5,1.2C21.7,36.1,21.3,36.3,20.8,36.3L20.8,36.3z"/>
</svg>
