<svg width="156" height="30" viewBox="0 0 156 30" fill="none" xmlns="http://www.w3.org/2000/svg">
	<path d="M8.86665 8.56862H8.87169C10.5647 6.91589 12.8874 5.89277 15.4622 5.89277C18.0369 5.89277 20.3345 6.88637 22.0577 8.55878L26.0483 4.66306L30.8249 0L22.622 2.16921C20.4655 1.0182 18.0067 0.378751 15.4571 0.378751C11.3356 0.378751 7.58181 2.02164 4.87104 4.66798C2.16531 7.31431 0.482422 10.969 0.482422 15.0025H6.13069C6.13069 12.4939 7.17368 10.2164 8.86161 8.56862H8.86665Z" fill="#9B00FF"/>
	<path d="M12.6353 17.757H24.35C23.8915 19.1638 23.0954 20.4181 22.0474 21.4313C20.3595 23.0841 18.0316 24.1072 15.4569 24.1072C12.8822 24.1072 10.5644 23.089 8.86644 21.4313L4.87083 25.332L0.0942383 30L8.29204 27.8308C10.4234 28.9719 12.8671 29.6212 15.462 29.6212C19.5936 29.6212 23.3373 27.9783 26.0481 25.332C28.7588 22.6857 30.4417 19.031 30.4417 14.9975V12.238H18.2886L12.6403 17.7521L12.6353 17.757Z" fill="#9B00FF"/>
	<path d="M54.0556 8.58586C52.9219 7.52339 51.2289 6.93805 49.7577 6.93805C46.1349 6.93805 43.933 9.62865 43.933 13.0226C43.933 15.7329 45.5504 18.5416 49.7577 18.5416C51.0878 18.5416 52.2467 18.2612 53.5769 17.2233V14.2966H49.2538V11.5126H56.5043V18.4678C54.8366 20.332 52.7355 21.4388 49.7627 21.4388C43.409 21.4388 40.8242 17.3561 40.8242 13.0177C40.8242 8.36943 43.797 4.0802 49.7627 4.0802C52.0351 4.0802 54.3025 4.93116 56.0458 6.60356L54.0657 8.58586H54.0556Z" fill="#300056"/>
	<path d="M62.2788 9.43188V15.5165C62.2788 17.2873 63.2714 18.6301 65.1508 18.6301C67.0302 18.6301 68.1941 17.1446 68.1941 15.3738V9.43188H71.1165V21.0846H68.4813L68.2898 19.5057C67.0554 20.6862 65.9217 21.2519 64.2539 21.2519C61.4021 21.2519 59.3262 19.1515 59.3262 15.5411V9.43188H62.2738H62.2788Z" fill="#300056"/>
	<path d="M83.4911 9.43192H86.3177V21.0601H83.5364L83.3903 19.3631C82.7151 20.7305 80.8559 21.3945 79.5257 21.4142C75.9987 21.4388 73.3887 19.3139 73.3887 15.2361C73.3887 11.1584 76.1196 9.12695 79.5962 9.14663C81.1884 9.14663 82.7151 9.87953 83.3903 11.0355L83.486 9.43192H83.4911ZM76.3413 15.2361C76.3413 17.4496 77.9133 18.7728 79.8683 18.7728C84.5089 18.7728 84.5089 11.7192 79.8683 11.7192C77.9133 11.7192 76.3413 13.0178 76.3413 15.2361V15.2361Z" fill="#300056"/>
	<path d="M93.1701 6.15588V9.45642H96.4553V11.9355H93.1449V16.9577C93.1449 18.0644 93.7747 18.6055 94.6917 18.6055C95.1503 18.6055 95.6844 18.4628 96.1177 18.2562L96.939 20.7058C96.0925 21.0354 95.3921 21.178 94.5003 21.2026C91.9155 21.301 90.2225 19.8598 90.2225 16.9577V11.9355H88.0005V9.45642H90.2225V6.46085L93.1701 6.15588V6.15588Z" fill="#300056"/>
	<path d="M107.988 9.43192H110.815V21.0601H108.039L107.893 19.3631C107.218 20.7305 105.358 21.3945 104.028 21.4142C100.501 21.4388 97.8911 19.3139 97.8911 15.2361C97.8911 11.1584 100.622 9.12695 104.099 9.14663C105.691 9.14663 107.218 9.87953 107.893 11.0355L107.988 9.43192V9.43192ZM100.839 15.2361C100.839 17.4496 102.411 18.7728 104.366 18.7728C109.006 18.7728 109.006 11.7192 104.366 11.7192C102.411 11.7192 100.839 13.0178 100.839 15.2361V15.2361Z" fill="#300056"/>
	<path d="M113.632 25.9199V9.43193H116.388L116.579 11.0355C117.501 9.73689 119.094 9.17615 120.444 9.17615C124.117 9.17615 126.556 11.8422 126.556 15.2608C126.556 18.6793 124.359 21.3454 120.54 21.3454C119.285 21.3454 117.421 20.9666 116.579 19.6926V25.9199H113.632V25.9199ZM123.608 15.2608C123.608 13.4457 122.354 11.9602 120.227 11.9602C118.101 11.9602 116.846 13.4457 116.846 15.2608C116.846 17.0758 118.222 18.5613 120.227 18.5613C122.233 18.5613 123.608 17.0758 123.608 15.2608Z" fill="#300056"/>
	<path d="M138.362 9.43192H141.188V21.0601H138.412L138.266 19.3631C137.591 20.7305 135.726 21.3945 134.401 21.4142C130.874 21.4388 128.264 19.3139 128.264 15.2361C128.264 11.1584 130.995 9.12695 134.472 9.14663C136.064 9.14663 137.591 9.87953 138.266 11.0355L138.362 9.43192V9.43192ZM131.207 15.2361C131.207 17.4496 132.779 18.7728 134.734 18.7728C139.374 18.7728 139.374 11.7192 134.734 11.7192C132.779 11.7192 131.207 13.0178 131.207 15.2361V15.2361Z" fill="#300056"/>
	<path d="M155.906 9.43188L148.635 25.9198H145.395L147.617 20.8731L142.861 9.4368H146.292L148.101 14.4639L149.235 17.7398L150.464 14.5327L152.641 9.4368H155.906V9.43188Z" fill="#300056"/>
	</svg>
	