<?xml version="1.0" encoding="utf-8"?>
<!-- Generator: Adobe Illustrator 25.2.3, SVG Export Plug-In . SVG Version: 6.00 Build 0)  -->
<svg version="1.1" id="Capa_1" xmlns="http://www.w3.org/2000/svg" xmlns:xlink="http://www.w3.org/1999/xlink" x="0px" y="0px"
	 viewBox="0 0 72 72" style="enable-background:new 0 0 72 72;" xml:space="preserve">
<style type="text/css">
	.st0{fill:#00D0A6;}
	.st1{fill:#FFFFFF;}
</style>
<path class="st0" d="M36,0L36,0c19.9,0,36,16.1,36,36l0,0c0,19.9-16.1,36-36,36l0,0C16.1,72,0,55.9,0,36l0,0C0,16.1,16.1,0,36,0z"/>
<path class="st1" d="M50.8,18h-6.5c-0.4,0-0.7,0.1-1,0.4c-0.3,0.3-0.4,0.6-0.4,1v5.7c0,0.9-0.2,1.8-0.6,2.6s-1,1.5-1.7,2.1l-0.1,0.1
	l-4.6,4.3l-4.6-4.3l-0.1-0.1c-0.7-0.6-1.3-1.3-1.7-2.1C29.2,26.9,29,26,29,25.1v-4.3h7.9c0.2,0,0.4,0,0.6,0c0.2-0.1,0.4-0.2,0.5-0.3
	s0.3-0.3,0.4-0.5s0.1-0.4,0.1-0.6c0-0.2,0-0.4-0.1-0.6s-0.2-0.3-0.4-0.5c-0.2-0.1-0.3-0.2-0.5-0.3C37.3,18,37,18,36.9,18H22.9
	c-0.2,0-0.4,0-0.6,0c-0.2,0.1-0.4,0.2-0.5,0.3c-0.2,0.1-0.3,0.3-0.4,0.5c-0.1,0.2-0.1,0.4-0.1,0.6c0,0.2,0,0.4,0.1,0.6
	c0.1,0.2,0.2,0.3,0.4,0.5s0.3,0.2,0.5,0.3c0.2,0.1,0.4,0.1,0.6,0h3.2v4.3c0,1.3,0.3,2.6,0.9,3.8c0.6,1.2,1.4,2.2,2.4,3.1l4.4,4.1
	l-4.4,4.1c-1,0.8-1.8,1.9-2.4,3.1c-0.6,1.2-0.9,2.5-0.9,3.8v5.7c0,0.4,0.1,0.7,0.4,1c0.3,0.3,0.6,0.4,1,0.4h21.3
	c0.3,0,0.6-0.2,0.9-0.5c0.2-0.3,0.3-0.6,0.3-0.9s-0.1-0.7-0.3-0.9c-0.2-0.3-0.5-0.4-0.9-0.5h-3.2v-4.3c0-1.3-0.3-2.6-0.9-3.8
	c-0.6-1.2-1.4-2.2-2.4-3.1L38,36.1l4.4-4.1c1-0.8,1.8-1.9,2.4-3.1c0.6-1.2,0.9-2.5,0.9-3.8v-4.3h5.1c0.2,0,0.4,0,0.6,0
	c0.2-0.1,0.4-0.2,0.5-0.3s0.3-0.3,0.4-0.5s0.1-0.4,0.1-0.6c0-0.2,0-0.4-0.1-0.6s-0.2-0.3-0.4-0.5c-0.2-0.1-0.3-0.2-0.5-0.3
	C51.2,18,51,18,50.8,18L50.8,18z M40.6,42.3L40.6,42.3c0.8,0.6,1.4,1.3,1.8,2.2c0.4,0.8,0.6,1.7,0.6,2.6v4.3H29v-4.3
	c0-0.9,0.2-1.8,0.6-2.6c0.4-0.8,1-1.5,1.7-2.1l0.1-0.1l4.6-4.3L40.6,42.3z"/>
<path class="st1" d="M21.9,51.7c-0.1-0.1-0.2-0.1-0.2-0.1c-0.1,0-0.2-0.1-0.3-0.1c-0.2,0-0.5,0-0.7,0c-0.2,0.1-0.4,0.2-0.6,0.3
	c-0.3,0.3-0.4,0.6-0.4,1c0,0.2,0,0.4,0.1,0.5c0.1,0.2,0.2,0.3,0.3,0.4c0.1,0.1,0.3,0.2,0.5,0.3c0.3,0.1,0.7,0.1,1.1,0
	c0.2-0.1,0.3-0.2,0.5-0.3c0.1-0.1,0.2-0.3,0.3-0.4c0.1-0.2,0.1-0.4,0.1-0.5c0-0.4-0.1-0.7-0.4-1C22,51.8,21.9,51.7,21.9,51.7z"/>
</svg>
