<svg width="20" height="20" viewBox="0 0 20 20" fill="none" xmlns="http://www.w3.org/2000/svg">
<mask id="mask0_813_302" style="mask-type:alpha" maskUnits="userSpaceOnUse" x="0" y="0" width="20" height="20">
<rect width="20" height="20" fill="#D9D9D9"/>
</mask>
<g mask="url(#mask0_813_302)">
<path d="M4.75674 16.5833C4.38698 16.5833 4.07125 16.4524 3.80955 16.1907C3.54785 15.929 3.41699 15.6133 3.41699 15.2435V4.75641C3.41699 4.38664 3.54785 4.07092 3.80955 3.80922C4.07125 3.54751 4.38698 3.41666 4.75674 3.41666H8.51155C8.58528 3.06624 8.75515 2.77138 9.02116 2.53208C9.28717 2.29276 9.61355 2.1731 10.0003 2.1731C10.3764 2.1731 10.6987 2.29276 10.9674 2.53208C11.2361 2.77138 11.4073 3.06624 11.481 3.41666H15.2439C15.6136 3.41666 15.9294 3.54751 16.1911 3.80922C16.4528 4.07092 16.5836 4.38664 16.5836 4.75641V15.2435C16.5836 15.6133 16.4528 15.929 16.1911 16.1907C15.9294 16.4524 15.6136 16.5833 15.2439 16.5833H4.75674ZM4.75674 15.5H15.2439C15.308 15.5 15.3667 15.4733 15.4202 15.4198C15.4736 15.3664 15.5003 15.3076 15.5003 15.2435V4.75641C15.5003 4.6923 15.4736 4.63353 15.4202 4.5801C15.3667 4.52668 15.308 4.49997 15.2439 4.49997H13.5836V6.67943H6.41699V4.49997H4.75674C4.69263 4.49997 4.63386 4.52668 4.58043 4.5801C4.52701 4.63353 4.5003 4.6923 4.5003 4.75641V15.2435C4.5003 15.3076 4.52701 15.3664 4.58043 15.4198C4.63386 15.4733 4.69263 15.5 4.75674 15.5ZM9.99591 4.59614C10.1858 4.59614 10.3456 4.53269 10.4755 4.4058C10.6053 4.27893 10.6702 4.12055 10.6702 3.93066C10.6702 3.74077 10.6067 3.58092 10.4798 3.45112C10.353 3.32131 10.1946 3.25641 10.0047 3.25641C9.81481 3.25641 9.65496 3.31985 9.52516 3.44672C9.39534 3.57361 9.33043 3.732 9.33043 3.92189C9.33043 4.11178 9.39387 4.27162 9.52076 4.40143C9.64765 4.53124 9.80603 4.59614 9.99591 4.59614Z" fill="#737373"/>
</g>
</svg>
