<svg width="20" height="20" viewBox="0 0 20 20" fill="none" xmlns="http://www.w3.org/2000/svg">
<mask id="mask0_825_1052" style="mask-type:alpha" maskUnits="userSpaceOnUse" x="0" y="0" width="20" height="20">
<rect width="20" height="20" fill="#D9D9D9"/>
</mask>
<g mask="url(#mask0_825_1052)">
<path d="M7.0628 13.7116L10.0003 10.7741L12.9378 13.7116L13.7118 12.9376L10.7743 10.0001L13.7118 7.06256L12.9378 6.28854L10.0003 9.22604L7.0628 6.28854L6.28878 7.06256L9.22628 10.0001L6.28878 12.9376L7.0628 13.7116ZM10.0017 17.5834C8.96231 17.5834 7.98173 17.386 7.05995 16.9913C6.13816 16.5966 5.33134 16.0534 4.63949 15.3619C3.94763 14.6704 3.40425 13.8639 3.00935 12.9426C2.61444 12.0212 2.41699 11.0408 2.41699 10.0015C2.41699 8.94818 2.61435 7.96412 3.00908 7.04929C3.4038 6.13444 3.94692 5.3311 4.63845 4.63925C5.32999 3.94739 6.13644 3.40401 7.05781 3.0091C7.97915 2.6142 8.95952 2.41675 9.99891 2.41675C11.0522 2.41675 12.0362 2.61411 12.9511 3.00883C13.8659 3.40355 14.6693 3.94668 15.3611 4.63821C16.053 5.32975 16.5964 6.13273 16.9913 7.04714C17.3862 7.96155 17.5836 8.94539 17.5836 9.99867C17.5836 11.0381 17.3863 12.0186 16.9915 12.9404C16.5968 13.8622 16.0537 14.669 15.3622 15.3609C14.6706 16.0527 13.8676 16.5961 12.9532 16.991C12.0388 17.3859 11.055 17.5834 10.0017 17.5834ZM10.0003 16.5001C11.8059 16.5001 13.3406 15.8681 14.6045 14.6042C15.8684 13.3403 16.5003 11.8056 16.5003 10.0001C16.5003 8.19451 15.8684 6.65978 14.6045 5.39589C13.3406 4.13201 11.8059 3.50006 10.0003 3.50006C8.19475 3.50006 6.66003 4.13201 5.39614 5.39589C4.13225 6.65978 3.5003 8.19451 3.5003 10.0001C3.5003 11.8056 4.13225 13.3403 5.39614 14.6042C6.66003 15.8681 8.19475 16.5001 10.0003 16.5001Z" fill="#737373"/>
</g>
</svg>
