<svg width="162" height="155" viewBox="0 0 162 155" fill="none" xmlns="http://www.w3.org/2000/svg">
  <g opacity="0.1" clip-path="url(#clip0_232_422)">
    <path
      d="M25.6754 39.28H33.3754C37.0554 39.28 40.0454 36.29 40.0454 32.61V24.91C40.0454 21.23 37.0554 18.24 33.3754 18.24H25.6754C21.9954 18.24 19.0054 21.23 19.0054 24.91V32.61C19.0054 36.29 21.9954 39.28 25.6754 39.28Z"
      fill="black" />
    <path
      d="M45.3851 95.8201H13.6651C6.53514 95.8201 0.765137 101.6 0.765137 108.72V140.45C0.765137 147.58 6.54514 153.35 13.6651 153.35H45.3851C52.5151 153.35 58.2851 147.57 58.2851 140.45V108.72C58.2851 101.59 52.5051 95.8201 45.3851 95.8201ZM48.1351 136.53C48.1351 140.21 45.1451 143.2 41.4651 143.2H17.5851C13.9051 143.2 10.9151 140.21 10.9151 136.53V112.64C10.9151 108.96 13.9051 105.97 17.5851 105.97H41.4651C45.1451 105.97 48.1351 108.96 48.1351 112.64V136.53Z"
      fill="black" />
    <path
      d="M33.3654 114.07H25.6754C21.9916 114.07 19.0054 117.056 19.0054 120.74V128.43C19.0054 132.114 21.9916 135.1 25.6754 135.1H33.3654C37.0491 135.1 40.0354 132.114 40.0354 128.43V120.74C40.0354 117.056 37.0491 114.07 33.3654 114.07Z"
      fill="black" />
    <path
      d="M13.6651 57.53H45.3851C52.5151 57.53 58.2851 51.75 58.2851 44.63V12.9C58.2851 5.77 52.5051 0 45.3851 0H13.6651C6.54514 0 0.765137 5.78 0.765137 12.9V44.63C0.765137 51.76 6.54514 57.53 13.6651 57.53ZM10.9151 16.82C10.9151 13.14 13.9051 10.15 17.5851 10.15H41.4651C45.1451 10.15 48.1351 13.14 48.1351 16.82V40.71C48.1351 44.39 45.1451 47.38 41.4651 47.38H17.5851C13.9051 47.38 10.9151 44.39 10.9151 40.71V16.82Z"
      fill="black" />
    <path
      d="M148.335 0H116.615C109.485 0 103.715 5.78 103.715 12.9V44.63C103.715 51.76 109.495 57.53 116.615 57.53H148.335C155.465 57.53 161.235 51.75 161.235 44.63V12.9C161.235 5.77 155.455 0 148.335 0ZM151.085 40.71C151.085 44.39 148.095 47.38 144.415 47.38H120.535C116.855 47.38 113.865 44.39 113.865 40.71V16.82C113.865 13.14 116.855 10.15 120.535 10.15H144.415C148.095 10.15 151.085 13.14 151.085 16.82V40.71Z"
      fill="black" />
    <path
      d="M138.915 18.77C138.115 18.43 137.235 18.24 136.315 18.24H128.625C124.945 18.24 121.955 21.23 121.955 24.91V32.61C121.955 36.29 124.945 39.28 128.625 39.28H136.315C136.775 39.28 137.225 39.23 137.665 39.14C140.705 38.52 142.995 35.83 142.995 32.61V24.91C142.995 22.15 141.315 19.78 138.925 18.77H138.915Z"
      fill="black" />
    <path d="M13.8351 70.45H3.2251V81.06H13.8351V70.45Z" fill="black" />
    <path d="M58.2853 70.45H47.6753V81.06H58.2853V70.45Z" fill="black" />
    <path d="M91.8849 11.6599H81.2749V22.2699H91.8849V11.6599Z" fill="black" />
    <path d="M81.275 1.05005H70.665V11.66H81.275V1.05005Z" fill="black" />
    <path d="M68.8952 81.0601H58.2852V91.6701H68.8952V81.0601Z" fill="black" />
    <path d="M81.275 141.36H70.665V151.97H81.275V141.36Z" fill="black" />
    <path d="M154.325 143.72H143.715V154.33H154.325V143.72Z" fill="black" />
    <path d="M131.485 115.47H120.875V153.81H131.485V137.34H141.415V126.73H131.485V115.47Z"
      fill="black" />
    <path d="M129.915 76.3301H119.305V86.9401H129.915V76.3301Z" fill="black" />
    <path d="M160.625 65.71H129.915V76.32H160.625V65.71Z" fill="black" />
    <path d="M105.555 120.57H86.1753V131.18H116.165V120.57V96.3301H105.555V120.57Z" fill="black" />
    <path d="M94.2252 91.6699H72.2852V113.61H94.2252V91.6699Z" fill="black" />
    <path d="M160.625 93.53H138.685V115.47H160.625V93.53Z" fill="black" />
    <path
      d="M95.9053 72.8601V70.45V42.17V38.8101V31.55H68.9053V42.17H85.2953V70.45H68.9053V81.06H95.9053V72.8601Z"
      fill="black" />
  </g>
  <rect x="41" y="37" width="80" height="80" rx="40" fill="#EFF2FE" />
  <path
    d="M80.9499 93.2999C76.4499 93.2999 72.6082 91.7083 69.4249 88.525C66.2416 85.3416 64.6499 81.5 64.6499 77C64.6499 72.5 66.2416 68.6583 69.4249 65.475C72.6082 62.2916 76.4499 60.7 80.9499 60.7C83.8499 60.7 86.3832 61.2833 88.5499 62.45C90.7166 63.6166 92.5999 65.2166 94.1999 67.25V60.7H97.3499V73.85H84.1999V70.7H92.5499C91.2832 68.7333 89.6832 67.1416 87.7499 65.925C85.8166 64.7083 83.5499 64.1 80.9499 64.1C77.3499 64.1 74.2999 65.35 71.7999 67.85C69.2999 70.35 68.0499 73.4 68.0499 77C68.0499 80.6 69.2999 83.65 71.7999 86.15C74.2999 88.65 77.3499 89.9 80.9499 89.9C83.6832 89.9 86.1916 89.1166 88.4749 87.5499C90.7582 85.9833 92.3499 83.9166 93.2499 81.35H96.7999C95.7999 84.9166 93.8416 87.7999 90.9249 90C88.0082 92.2 84.6832 93.2999 80.9499 93.2999Z"
    fill="#6466E9" />
  <defs>
    <clipPath id="clip0_232_422">
      <rect width="160.47" height="154.34" fill="white" transform="translate(0.765137)" />
    </clipPath>
  </defs>
</svg>
  