<?xml version="1.0" encoding="utf-8"?>
<!-- Generator: Adobe Illustrator 25.2.3, SVG Export Plug-In . SVG Version: 6.00 Build 0)  -->
<svg version="1.1" id="Capa_1" xmlns="http://www.w3.org/2000/svg" xmlns:xlink="http://www.w3.org/1999/xlink" x="0px" y="0px"
	 viewBox="0 0 72 72" style="enable-background:new 0 0 72 72;" xml:space="preserve">
<style type="text/css">
	.st0{fill:#00D0A6;}
	.st1{fill:#E6F3F2;}
	.st2{fill:#FFFFFF;}
</style>
<path class="st0" d="M36,0L36,0c19.9,0,36,16.1,36,36l0,0c0,19.9-16.1,36-36,36l0,0C16.1,72,0,55.9,0,36l0,0C0,16.1,16.1,0,36,0z"/>
<path class="st1" d="M21.6,42.3c1,0,1.8-0.8,1.8-1.8s-0.8-1.8-1.8-1.8s-1.8,0.8-1.8,1.8S20.6,42.3,21.6,42.3z"/>
<path class="st1" d="M34,51.2c0-0.4-0.1-0.7-0.3-1c-0.2-0.3-0.5-0.5-0.8-0.7c-0.3-0.1-0.7-0.2-1-0.1c-0.3,0.1-0.7,0.2-0.9,0.5
	s-0.4,0.6-0.5,0.9c-0.1,0.3,0,0.7,0.1,1c0.1,0.3,0.4,0.6,0.7,0.8c0.3,0.2,0.6,0.3,1,0.3c0.5,0,0.9-0.2,1.3-0.5
	C33.8,52.2,34,51.7,34,51.2z"/>
<path class="st1" d="M25.5,49.1c1,0,1.8-0.8,1.8-1.8c0-1-0.8-1.8-1.8-1.8c-1,0-1.8,0.8-1.8,1.8C23.7,48.3,24.5,49.1,25.5,49.1z"/>
<path class="st1" d="M21.6,34c1,0,1.8-0.8,1.8-1.8c0-1-0.8-1.8-1.8-1.8s-1.8,0.8-1.8,1.8C19.8,33.2,20.6,34,21.6,34z"/>
<path class="st1" d="M34,21.6c0,0.4-0.1,0.7-0.3,1c-0.2,0.3-0.5,0.5-0.8,0.7c-0.3,0.1-0.7,0.2-1,0.1c-0.3-0.1-0.7-0.2-0.9-0.5
	s-0.4-0.6-0.5-0.9c-0.1-0.3,0-0.7,0.1-1c0.1-0.3,0.4-0.6,0.7-0.8c0.3-0.2,0.6-0.3,1-0.3c0.5,0,0.9,0.2,1.3,0.5
	C33.8,20.6,34,21.1,34,21.6z"/>
<path class="st1" d="M25.5,27.3c1,0,1.8-0.8,1.8-1.8c0-1-0.8-1.8-1.8-1.8c-1,0-1.8,0.8-1.8,1.8C23.7,26.5,24.5,27.3,25.5,27.3z"/>
<path class="st1" d="M41.2,53c-0.4,0-0.8-0.2-1.2-0.4c-0.3-0.3-0.5-0.7-0.6-1.1c-0.1-0.4,0-0.9,0.3-1.2c0.2-0.4,0.6-0.6,1-0.7
	c2.8-0.8,5.3-2.5,7.1-4.8c1.8-2.4,2.8-5.3,2.8-8.3c0-6-4.1-11.4-10-13.1c-0.5-0.1-0.8-0.4-1.1-0.9c-0.2-0.4-0.3-0.9-0.2-1.3
	c0.1-0.5,0.4-0.8,0.8-1.1c0.4-0.2,0.9-0.3,1.3-0.2c3.6,1,6.7,3.2,9,6.1c2.3,3,3.6,6.7,3.6,10.5c0,3.8-1.3,7.5-3.6,10.5
	c-2.3,2.9-5.4,5.1-9,6.1C41.5,53,41.3,53,41.2,53z"/>
<path class="st2" d="M51.8,54.2c-0.1,0-0.1,0-0.2,0L41,53c-0.3,0-0.5-0.1-0.7-0.2c-0.2-0.1-0.4-0.3-0.6-0.5
	c-0.1-0.2-0.2-0.5-0.3-0.7c0-0.3,0-0.5,0-0.8l3-10.7c0.1-0.2,0.2-0.4,0.3-0.6c0.1-0.2,0.3-0.3,0.5-0.5c0.2-0.1,0.4-0.2,0.7-0.2
	c0.2,0,0.5,0,0.7,0.1c0.2,0.1,0.4,0.2,0.6,0.3c0.2,0.1,0.3,0.3,0.5,0.5c0.1,0.2,0.2,0.4,0.2,0.7c0,0.2,0,0.5-0.1,0.7l-2.4,8.7l8.6,1
	c0.5,0.1,0.9,0.3,1.2,0.6c0.3,0.3,0.4,0.8,0.4,1.2c0,0.5-0.2,0.9-0.6,1.2C52.7,54,52.3,54.2,51.8,54.2z"/>
</svg>
