<svg width="335" height="188" viewBox="0 0 335 188" fill="none" xmlns="http://www.w3.org/2000/svg">
  <g clip-path="url(#clip0_366_385)">
    <path d="M221.896 132.625L200.391 133.681L209.761 115.493L221.896 132.625Z" fill="#82B1FF" />
    <path
      d="M219.128 113.438C217.541 115.289 215.287 116.434 212.86 116.624C210.432 116.813 208.028 116.033 206.174 114.452L195.646 105.443C193.802 103.852 192.66 101.596 192.468 99.1657C192.275 96.7355 193.049 94.3274 194.619 92.4653C196.204 90.612 198.458 89.4646 200.887 89.2749C203.316 89.0853 205.72 89.8689 207.573 91.4537L218.101 100.461C219.945 102.052 221.087 104.308 221.279 106.738C221.472 109.168 220.698 111.576 219.128 113.438Z"
      fill="#5A38FD" />
    <path
      d="M275.529 96.5595C269.354 90.2958 260.949 86.7455 252.162 86.6894C243.376 86.6333 234.926 90.0759 228.672 96.2602C228.574 96.357 228.519 96.4888 228.518 96.6267C228.517 96.7645 228.571 96.8971 228.667 96.9952C228.764 97.0933 228.895 97.149 229.033 97.1499C229.17 97.1508 229.303 97.097 229.401 97.0002L274.502 142.769C274.453 142.817 274.414 142.874 274.387 142.937C274.36 143 274.346 143.068 274.346 143.136C274.345 143.205 274.358 143.273 274.384 143.336C274.409 143.4 274.447 143.457 274.495 143.506C274.543 143.555 274.6 143.594 274.664 143.62C274.727 143.647 274.794 143.66 274.862 143.661C274.931 143.661 274.999 143.648 275.062 143.621C275.125 143.595 275.182 143.557 275.231 143.509C281.482 137.321 285.025 128.9 285.081 120.096C285.137 111.292 281.701 102.826 275.529 96.5595Z"
      fill="#82B1FF" />
    <path
      d="M261.703 151.436L293.305 136.054C295.373 135.049 297.755 134.907 299.927 135.661C302.099 136.414 303.884 138.001 304.888 140.073C305.892 142.145 306.033 144.531 305.281 146.708C304.529 148.884 302.945 150.672 300.877 151.678L269.275 167.06C267.208 168.066 264.826 168.208 262.654 167.454C260.482 166.7 258.697 165.113 257.693 163.041C256.689 160.97 256.548 158.583 257.3 156.407C258.052 154.23 259.636 152.442 261.703 151.436Z"
      fill="#5A38FD" />
    <path
      d="M274.849 143.139C262.022 155.818 241.38 155.68 228.726 142.844C216.071 130.009 216.209 109.31 229.02 96.6301"
      fill="white" />
    <path
      d="M251.939 153.08H251.719C247.367 153.063 243.061 152.183 239.051 150.488C235.041 148.794 231.406 146.32 228.356 143.21C215.52 130.19 215.654 109.129 228.655 96.2605C228.703 96.2121 228.76 96.1738 228.824 96.1477C228.887 96.1216 228.954 96.1083 229.023 96.1085C229.091 96.1087 229.159 96.1225 229.222 96.149C229.285 96.1755 229.342 96.2142 229.39 96.2629C229.438 96.3117 229.476 96.3694 229.502 96.4329C229.527 96.4963 229.54 96.5642 229.54 96.6327C229.539 96.7012 229.525 96.7689 229.498 96.8319C229.471 96.8949 229.433 96.952 229.384 96.9998C216.79 109.465 216.66 129.867 229.094 142.479C241.528 155.091 261.889 155.219 274.485 142.769C274.583 142.673 274.715 142.62 274.852 142.621C274.989 142.622 275.12 142.678 275.217 142.776C275.313 142.873 275.367 143.006 275.366 143.143C275.365 143.28 275.31 143.412 275.213 143.509C269.025 149.66 260.656 153.102 251.939 153.08Z"
      fill="#222433" />
    <path
      d="M286.126 175.201C285.608 175.202 285.096 175.1 284.617 174.901C284.139 174.703 283.704 174.412 283.338 174.045C282.972 173.678 282.682 173.243 282.484 172.764C282.286 172.284 282.184 171.771 282.184 171.252V163.284C282.184 162.765 282.286 162.252 282.484 161.772C282.682 161.293 282.972 160.858 283.338 160.491C283.704 160.124 284.139 159.833 284.617 159.635C285.096 159.436 285.608 159.334 286.126 159.335H294.078C294.596 159.334 295.109 159.436 295.587 159.635C296.065 159.833 296.5 160.124 296.866 160.491C297.232 160.858 297.522 161.293 297.72 161.772C297.918 162.252 298.02 162.765 298.02 163.284V171.252C298.02 171.771 297.918 172.284 297.72 172.764C297.522 173.243 297.232 173.678 296.866 174.045C296.5 174.412 296.065 174.703 295.587 174.901C295.109 175.1 294.596 175.202 294.078 175.201H286.126Z"
      fill="white" />
    <path
      d="M294.078 175.721H286.126C284.943 175.72 283.81 175.248 282.974 174.411C282.137 173.573 281.667 172.437 281.666 171.252V163.284C281.661 162.701 281.773 162.123 281.994 161.584C282.214 161.044 282.54 160.554 282.953 160.143C283.367 159.721 283.861 159.387 284.406 159.159C284.951 158.931 285.536 158.814 286.126 158.815H294.078C295.261 158.816 296.395 159.288 297.231 160.125C298.067 160.963 298.537 162.099 298.539 163.284V171.252C298.537 172.437 298.067 173.573 297.231 174.411C296.395 175.248 295.261 175.72 294.078 175.721ZM286.126 159.854C285.672 159.853 285.223 159.943 284.805 160.119C284.386 160.294 284.007 160.551 283.688 160.875C283.373 161.19 283.123 161.565 282.954 161.978C282.785 162.391 282.699 162.834 282.703 163.28V171.252C282.704 172.161 283.065 173.033 283.707 173.676C284.348 174.319 285.218 174.681 286.126 174.682H294.078C294.986 174.681 295.856 174.319 296.498 173.676C297.139 173.033 297.5 172.161 297.501 171.252V163.284C297.5 162.375 297.139 161.503 296.498 160.86C295.856 160.217 294.986 159.855 294.078 159.854H286.126Z"
      fill="#222433" />
    <path d="M284.587 117.026L287.852 115.282L297.676 133.748L294.411 135.492L284.587 117.026Z"
      fill="white" />
    <path
      d="M294.411 136.012C294.317 136.012 294.225 135.986 294.144 135.938C294.063 135.889 293.997 135.82 293.953 135.737L284.129 117.271C284.097 117.21 284.077 117.145 284.071 117.077C284.064 117.009 284.071 116.94 284.091 116.875C284.111 116.81 284.143 116.749 284.186 116.696C284.23 116.643 284.283 116.6 284.343 116.568L287.608 114.824C287.729 114.759 287.871 114.745 288.003 114.785C288.134 114.826 288.245 114.916 288.309 115.038L298.133 133.504C298.165 133.564 298.185 133.63 298.192 133.698C298.198 133.766 298.191 133.835 298.172 133.9C298.152 133.965 298.119 134.026 298.076 134.079C298.033 134.131 297.979 134.175 297.919 134.207L294.654 135.951C294.579 135.991 294.496 136.012 294.411 136.012ZM285.289 117.24L294.624 134.789L296.973 133.534L287.638 115.986L285.289 117.24Z"
      fill="#222433" />
    <path d="M235.374 163.884L246.676 152.56L257.978 163.884L246.676 175.208L235.374 163.884Z"
      fill="white" />
    <path
      d="M246.676 175.728C246.608 175.728 246.54 175.715 246.477 175.689C246.415 175.662 246.357 175.624 246.309 175.576L235.008 164.252C234.959 164.204 234.921 164.146 234.895 164.083C234.869 164.02 234.856 163.953 234.856 163.884C234.856 163.816 234.869 163.749 234.895 163.685C234.921 163.622 234.959 163.565 235.008 163.517L246.309 152.193C246.408 152.099 246.54 152.047 246.676 152.047C246.812 152.047 246.944 152.099 247.043 152.193L258.345 163.517C258.393 163.565 258.431 163.622 258.457 163.685C258.483 163.749 258.496 163.816 258.496 163.884C258.496 163.953 258.483 164.02 258.457 164.083C258.431 164.146 258.393 164.204 258.345 164.252L247.043 175.576C246.995 175.624 246.937 175.662 246.875 175.689C246.812 175.715 246.744 175.728 246.676 175.728ZM236.108 163.884L246.676 174.473L257.244 163.884L246.676 153.295L236.108 163.884Z"
      fill="#222433" />
  </g>
  <g clip-path="url(#clip1_366_385)">
    <path
      d="M223.135 89.8223H178.864C178.725 89.8223 178.591 89.7668 178.493 89.6681C178.394 89.5693 178.339 89.4354 178.339 89.2957C178.339 89.156 178.394 89.0221 178.493 88.9233C178.591 88.8245 178.725 88.769 178.864 88.769H223.135C223.275 88.769 223.408 88.8245 223.507 88.9233C223.605 89.0221 223.66 89.156 223.66 89.2957C223.66 89.4354 223.605 89.5693 223.507 89.6681C223.408 89.7668 223.275 89.8223 223.135 89.8223Z"
      fill="#222433" />
    <path d="M254.581 55.0988H223.625L208.927 89.2955H239.882L254.581 55.0988Z" fill="white" />
    <path
      d="M239.882 89.8223H208.927C208.84 89.8223 208.754 89.8006 208.677 89.7592C208.601 89.7178 208.536 89.658 208.488 89.5851C208.44 89.5122 208.411 89.4285 208.404 89.3416C208.396 89.2546 208.41 89.1672 208.445 89.0871L223.143 54.8904C223.184 54.7959 223.251 54.7154 223.337 54.6589C223.423 54.6024 223.523 54.5723 223.625 54.5723H254.581C254.668 54.5723 254.753 54.5939 254.83 54.6353C254.906 54.6767 254.971 54.7366 255.019 54.8095C255.067 54.8824 255.096 54.966 255.104 55.053C255.111 55.1399 255.097 55.2273 255.063 55.3075L240.364 89.5042C240.323 89.5986 240.256 89.6791 240.17 89.7356C240.085 89.7922 239.984 89.8223 239.882 89.8223ZM209.725 88.769H239.537L253.783 55.6256H223.971L209.725 88.769Z"
      fill="#222433" />
    <path
      d="M253.268 58.6801H222.331C222.191 58.6801 222.058 58.6246 221.959 58.5259C221.861 58.4271 221.806 58.2931 221.806 58.1535C221.806 58.0138 221.861 57.8798 221.959 57.7811C222.058 57.6823 222.191 57.6268 222.331 57.6268H253.268C253.408 57.6268 253.541 57.6823 253.639 57.7811C253.738 57.8798 253.793 58.0138 253.793 58.1535C253.793 58.2931 253.738 58.4271 253.639 58.5259C253.541 58.6246 253.408 58.6801 253.268 58.6801Z"
      fill="#222433" />
  </g>
  <g clip-path="url(#clip2_366_385)">
    <path
      d="M71.3164 105.665L60.1419 54.7364C60.0167 54.172 59.7019 53.6671 59.2496 53.3051C58.7974 52.9432 58.2348 52.746 57.6548 52.7461C57.3187 52.745 56.9857 52.8102 56.675 52.9379C56.3642 53.0656 56.0819 53.2534 55.8442 53.4903C55.6066 53.7272 55.4182 54.0086 55.2901 54.3184C55.162 54.6281 55.0966 54.9601 55.0977 55.2951C55.0978 55.4826 55.1154 55.6696 55.1502 55.8538L64.941 100.584C65.2657 102.027 66.0742 103.317 67.2333 104.241C68.3923 105.164 69.8325 105.667 71.3164 105.665Z"
      fill="white" />
    <path
      d="M71.3164 106.188C69.7113 106.197 68.1517 105.657 66.8981 104.658C65.6444 103.659 64.7726 102.261 64.4282 100.698L54.6369 55.9655L54.6332 55.948C54.5929 55.7327 54.5725 55.5141 54.5723 55.2951C54.5711 54.5391 54.85 53.8093 55.3554 53.2456C55.8608 52.6819 56.5571 52.3241 57.3109 52.2407C58.0647 52.1573 58.8228 52.3542 59.4399 52.7936C60.057 53.2331 60.4896 53.8842 60.6548 54.622L71.8293 105.553C71.8461 105.629 71.8454 105.708 71.8275 105.784C71.8095 105.861 71.7746 105.932 71.7254 105.993C71.6763 106.054 71.614 106.103 71.5432 106.137C71.4724 106.171 71.3949 106.188 71.3164 106.188ZM55.6655 55.7514L65.4544 100.472C65.7232 101.692 66.3704 102.795 67.3042 103.627C68.238 104.459 69.4108 104.976 70.6563 105.106L59.6286 54.8483C59.5302 54.3999 59.2806 53.9987 58.9215 53.7115C58.5623 53.4243 58.1153 53.2684 57.6549 53.2698C57.1162 53.2704 56.5998 53.484 56.2189 53.8637C55.838 54.2433 55.6238 54.7581 55.6232 55.2951C55.6233 55.4482 55.6375 55.6009 55.6655 55.7514Z"
      fill="#222433" />
    <path
      d="M119.324 106.258L71.3163 106.188C71.177 106.188 71.0433 106.133 70.9448 106.035C70.8463 105.937 70.7909 105.803 70.7909 105.665C70.7909 105.526 70.8463 105.392 70.9448 105.294C71.0433 105.196 71.177 105.141 71.3163 105.141L119.324 105.211C119.464 105.211 119.597 105.266 119.696 105.364C119.795 105.462 119.85 105.595 119.85 105.734C119.85 105.873 119.795 106.006 119.696 106.105C119.597 106.203 119.464 106.258 119.324 106.258Z"
      fill="#222433" />
    <path
      d="M97.3609 105.759L96.24 106.945C94.8418 108.441 93.1504 109.636 91.2705 110.455C89.3906 111.274 87.3622 111.699 85.3107 111.705C83.2595 111.698 81.2316 111.271 79.3519 110.452C77.4723 109.634 75.7807 108.44 74.3814 106.945L73.2605 105.759H97.3609Z"
      fill="white" />
    <path
      d="M85.3106 112.229C81.0295 112.229 77.0125 110.48 73.9996 107.306L72.8786 106.119C72.8082 106.045 72.7612 105.952 72.7434 105.851C72.7256 105.75 72.7378 105.646 72.7785 105.553C72.8191 105.459 72.8865 105.379 72.9722 105.322C73.058 105.266 73.1583 105.236 73.261 105.236H97.3608C97.4634 105.236 97.5638 105.266 97.6495 105.322C97.7353 105.379 97.8026 105.459 97.8433 105.553C97.884 105.646 97.8961 105.75 97.8784 105.851C97.8606 105.952 97.8136 106.045 97.7432 106.119L96.6222 107.305C95.1716 108.849 93.4204 110.082 91.4755 110.929C89.5306 111.776 87.4329 112.218 85.3106 112.229ZM74.4777 106.283L74.7637 106.586C77.5754 109.549 81.3213 111.181 85.3106 111.181C87.2896 111.17 89.2455 110.757 91.0589 109.967C92.8722 109.177 94.5049 108.027 95.857 106.586L96.1436 106.283H74.4777Z"
      fill="#222433" />
    <path
      d="M73.2605 175.204L74.3814 174.069C75.8094 172.626 77.5109 171.479 79.3871 170.697C81.2634 169.915 83.2769 169.512 85.3107 169.512C87.3445 169.512 89.358 169.915 91.2343 170.697C93.1105 171.479 94.8121 172.626 96.24 174.069L97.3609 175.204H73.2605Z"
      fill="white" />
    <path
      d="M97.3609 175.728H73.2605C73.1569 175.728 73.0556 175.697 72.9694 175.64C72.8832 175.583 72.8158 175.501 72.7758 175.406C72.7358 175.311 72.7249 175.206 72.7445 175.105C72.7641 175.003 72.8134 174.91 72.886 174.836L74.007 173.701C75.484 172.209 77.2438 171.023 79.1842 170.214C81.1247 169.405 83.207 168.989 85.3104 168.989C87.4137 168.989 89.4961 169.405 91.4365 170.214C93.3769 171.023 95.1368 172.209 96.6137 173.701L97.7347 174.836C97.8073 174.91 97.8566 175.003 97.8762 175.104C97.8959 175.206 97.885 175.311 97.8451 175.406C97.8052 175.501 97.7379 175.582 97.6518 175.64C97.5656 175.697 97.4645 175.727 97.3609 175.728ZM74.5153 174.68H96.1062L95.8655 174.436C94.4863 173.042 92.843 171.936 91.031 171.18C89.219 170.425 87.2745 170.035 85.3104 170.035C83.3463 170.035 81.4017 170.425 79.5897 171.18C77.7777 171.936 76.1344 173.042 74.7552 174.436L74.5153 174.68Z"
      fill="#222433" />
    <path
      d="M85.3107 170.036C85.1714 170.036 85.0377 169.981 84.9392 169.883C84.8406 169.784 84.7853 169.651 84.7853 169.512V111.705C84.7853 111.566 84.8406 111.433 84.9392 111.335C85.0377 111.237 85.1714 111.181 85.3107 111.181C85.4501 111.181 85.5837 111.237 85.6823 111.335C85.7808 111.433 85.8362 111.566 85.8362 111.705V169.512C85.8362 169.651 85.7808 169.784 85.6823 169.883C85.5837 169.981 85.4501 170.036 85.3107 170.036Z"
      fill="#222433" />
  </g>
  <g clip-path="url(#clip3_366_385)">
    <path
      d="M205.839 70.5001C205.758 70.5001 205.679 70.4815 205.607 70.4458C205.534 70.4101 205.471 70.3583 205.422 70.2943C205.373 70.2304 205.339 70.1559 205.323 70.0767C205.307 69.9975 205.309 69.9157 205.329 69.8375C208.052 59.3931 208.577 50.9864 207.673 46.6509C207.614 46.6823 207.557 46.711 207.502 46.7372C207.155 46.9118 206.772 47.003 206.384 47.0036C205.996 47.0042 205.613 46.9141 205.265 46.7406C204.853 46.5369 204.507 46.2182 204.27 45.8227C204.032 45.4272 203.914 44.9716 203.928 44.5102C203.944 43.6377 204.384 42.8749 205.048 42.5665C205.405 42.4009 206.135 42.2317 207.016 42.9542C207.504 43.3554 207.907 43.9833 208.226 44.8094C209.087 43.7762 210.118 41.7973 210.982 38.0116C211.017 37.8796 211.102 37.7666 211.219 37.6961C211.336 37.6257 211.475 37.6033 211.608 37.6338C211.741 37.6642 211.857 37.745 211.932 37.8593C212.006 37.9737 212.034 38.1125 212.009 38.2469C211.003 42.6541 209.718 44.8702 208.586 45.9661C209.783 50.7536 209.01 59.8918 206.349 70.1052C206.319 70.2183 206.253 70.3184 206.161 70.3898C206.069 70.4613 205.955 70.5001 205.839 70.5001ZM205.702 43.4802C205.629 43.4799 205.557 43.4955 205.491 43.526C205.2 43.6613 204.99 44.074 204.982 44.5305C204.973 44.7932 205.04 45.0529 205.175 45.2781C205.31 45.5033 205.508 45.6843 205.743 45.7992C205.948 45.8996 206.174 45.95 206.402 45.9466C206.63 45.9432 206.854 45.8859 207.055 45.7795C207.173 45.7239 207.287 45.659 207.395 45.5856C207.12 44.7308 206.767 44.1169 206.348 43.7724C206.17 43.6067 205.943 43.5041 205.702 43.4802Z"
      fill="#222433" />
  </g>
  <g clip-path="url(#clip4_366_385)">
    <path
      d="M129.425 64.2076L116.022 52.1786L104.961 42.9328C97.0853 38.8653 87.0198 42.0418 83.153 50.5562L70.9164 77.5323L98.5363 79.3728L129.425 64.2076Z"
      fill="white" />
    <path
      d="M98.5362 79.8985C98.5246 79.8985 98.5129 79.8985 98.5012 79.8973L70.8813 78.0568C70.7967 78.0512 70.7147 78.0251 70.6423 77.9807C70.5699 77.9363 70.5094 77.8749 70.4659 77.8019C70.4224 77.7289 70.3972 77.6464 70.3924 77.5615C70.3877 77.4766 70.4036 77.3917 70.4387 77.3143L82.6754 50.3382C83.5906 48.2975 84.9133 46.4667 86.562 44.9588C88.2106 43.4509 90.15 42.298 92.2605 41.5712C94.3663 40.8383 96.598 40.5397 98.8217 40.6933C101.045 40.8469 103.215 41.4496 105.201 42.4651C105.235 42.4828 105.267 42.5041 105.297 42.5288L116.358 51.7746C116.363 51.7785 116.368 51.7825 116.372 51.7867L129.775 63.8157C129.839 63.8732 129.888 63.9455 129.917 64.0264C129.947 64.1072 129.956 64.1942 129.944 64.2795C129.933 64.3648 129.9 64.4459 129.85 64.5157C129.799 64.5855 129.733 64.6418 129.656 64.6797L98.7667 79.8449C98.695 79.8802 98.6161 79.8985 98.5362 79.8985ZM71.7075 77.0579L98.4313 78.8386L128.494 64.0787L115.679 52.5773L104.669 43.3749C102.815 42.4357 100.791 41.88 98.718 41.741C96.6453 41.602 94.5658 41.8825 92.6033 42.5658C90.6276 43.2464 88.812 44.3259 87.2686 45.7377C85.7253 47.1494 84.487 48.8635 83.6302 50.7739L71.7075 77.0579Z"
      fill="#222433" />
    <path
      d="M136.295 32.7867C137.76 30.8531 138.53 28.4794 138.48 26.0515L119.496 18.8899L114.368 31.0602L104.952 42.9488L109.584 51.8181C109.908 52.4574 110.405 52.992 111.018 53.3606C111.438 53.6096 111.903 53.7731 112.386 53.8417C112.869 53.9104 113.36 53.8829 113.833 53.7608C114.305 53.6387 114.749 53.4244 115.139 53.1302C115.529 52.8359 115.857 52.4675 116.105 52.046L120.392 47.0406C121.903 47.5015 123.496 47.6221 125.058 47.3939C126.621 47.1657 128.113 46.5944 129.43 45.7207C130.746 44.8469 131.854 43.6924 132.674 42.3396C133.494 40.9868 134.006 39.469 134.173 37.8948L136.295 32.7867Z"
      fill="white" />
    <path
      d="M112.896 54.4078C112.14 54.4072 111.399 54.2016 110.75 53.8128C110.051 53.392 109.484 52.7823 109.115 52.0535L104.487 43.1929C104.44 43.1027 104.42 43.0007 104.43 42.8994C104.439 42.798 104.478 42.7016 104.541 42.6219L113.912 30.7902L119.013 18.686C119.066 18.5609 119.165 18.4611 119.289 18.4075C119.414 18.3539 119.554 18.3507 119.681 18.3986L138.665 25.5601C138.763 25.5972 138.848 25.6628 138.908 25.7487C138.969 25.8345 139.002 25.9365 139.004 26.0416C139.053 28.5641 138.261 31.0306 136.754 33.0509L134.687 38.0272C134.504 39.6417 133.976 41.1976 133.137 42.5882C132.299 43.9789 131.171 45.1715 129.831 46.0844C128.49 46.9972 126.969 47.6088 125.37 47.8772C123.772 48.1457 122.135 48.0646 120.571 47.6395L116.531 52.3547C116.152 52.9808 115.618 53.4984 114.981 53.8579C114.344 54.2174 113.626 54.4066 112.895 54.4074L112.896 54.4078ZM105.575 43.008L110.05 51.5743C110.329 52.1275 110.758 52.5904 111.288 52.9098C111.647 53.1247 112.045 53.2658 112.459 53.3246C112.873 53.3835 113.295 53.359 113.699 53.2526C114.106 53.1477 114.488 52.9635 114.824 52.7103C115.159 52.4572 115.441 52.1402 115.655 51.7775C115.67 51.7514 115.688 51.7266 115.707 51.7035L119.995 46.6983C120.061 46.6208 120.148 46.5644 120.246 46.5359C120.344 46.5074 120.448 46.508 120.545 46.5377C121.982 46.976 123.497 47.0907 124.983 46.8738C126.468 46.6568 127.888 46.1135 129.14 45.2826C130.392 44.4517 131.446 43.3538 132.226 42.0673C133.006 40.7808 133.493 39.3374 133.652 37.8403C133.657 37.7896 133.67 37.74 133.69 37.6929L135.812 32.5846C135.829 32.5432 135.851 32.5042 135.878 32.4686C137.196 30.7243 137.924 28.604 137.957 26.416L119.783 19.5602L114.851 31.2649C114.832 31.3089 114.808 31.3502 114.778 31.3876L105.575 43.008Z"
      fill="#222433" />
    <path
      d="M171.258 85.1255C172.98 86.3795 174.699 87.6475 176.029 88.6627C181.134 92.554 192.129 106.752 188.511 109.223C186.326 110.713 184.193 106.436 178.442 99.8458C181.838 105.458 184.14 110.034 183.403 112.132L162.499 91.6325L171.258 85.1255Z"
      fill="white" />
    <path
      d="M183.403 112.658C183.266 112.658 183.134 112.604 183.036 112.508L162.132 92.0085C162.078 91.9553 162.036 91.8909 162.009 91.8198C161.981 91.7486 161.97 91.6725 161.975 91.5966C161.981 91.5206 162.002 91.4467 162.039 91.38C162.075 91.3132 162.125 91.2552 162.186 91.2099L170.946 84.7028C171.035 84.6362 171.144 84.6 171.255 84.5995C171.367 84.599 171.476 84.6341 171.566 84.6999C173.538 86.1358 175.146 87.3291 176.347 88.2441C180.721 91.5794 189.875 102.931 189.751 107.707C189.728 108.589 189.41 109.245 188.806 109.658C187.537 110.523 186.393 109.775 185.642 109.137C184.651 108.295 183.498 106.85 182.037 105.022L181.846 104.782C183.799 108.566 184.402 110.87 183.897 112.306C183.861 112.409 183.794 112.498 183.706 112.561C183.617 112.623 183.511 112.657 183.403 112.657L183.403 112.658ZM163.306 91.6877L183.016 111.017C182.892 108.535 180.328 103.976 177.993 100.118C177.925 100.006 177.901 99.8718 177.927 99.7426C177.953 99.6135 178.026 99.4986 178.131 99.4208C178.237 99.343 178.369 99.3079 178.499 99.3224C178.63 99.337 178.75 99.4 178.836 99.4992C180.428 101.323 181.718 102.939 182.857 104.364C185.754 107.991 187.082 109.562 188.216 108.788C188.53 108.574 188.689 108.211 188.703 107.679C188.81 103.536 180.333 92.6034 175.712 89.0818C174.582 88.219 173.086 87.1084 171.262 85.7782L163.306 91.6877Z"
      fill="#222433" />
    <path
      d="M178.737 100.194C177.386 100.194 174.839 99.496 169.655 96.8438C168.438 96.2222 167.172 95.7275 165.947 95.2487L165.922 95.2392C165.858 95.2145 165.799 95.1771 165.749 95.1294C165.698 95.0817 165.658 95.0245 165.63 94.9611C165.602 94.8977 165.587 94.8294 165.585 94.7601C165.584 94.6908 165.596 94.6218 165.621 94.5572C165.646 94.4926 165.684 94.4336 165.732 94.3836C165.779 94.3336 165.837 94.2937 165.9 94.266C165.964 94.2383 166.032 94.2234 166.101 94.2222C166.17 94.2211 166.239 94.2336 166.303 94.2592L166.327 94.2687C167.622 94.7502 168.892 95.2967 170.131 95.9062C177.43 99.6397 179.066 99.2211 179.393 99.0036C179.638 98.8395 179.642 98.7151 179.643 98.6621C179.669 97.7372 177.056 95.7601 174.527 93.8483C172.406 92.244 170.002 90.4256 167.938 88.427C167.888 88.3793 167.847 88.322 167.818 88.2584C167.79 88.1947 167.774 88.1261 167.773 88.0563C167.771 87.9866 167.783 87.9173 167.808 87.8523C167.833 87.7873 167.871 87.728 167.92 87.6779C167.968 87.6277 168.026 87.5877 168.09 87.5601C168.153 87.5326 168.222 87.518 168.292 87.5174C168.361 87.5167 168.43 87.5299 168.495 87.5562C168.559 87.5825 168.618 87.6214 168.667 87.6706C170.685 89.6245 173.062 91.4217 175.159 93.0087C178.395 95.4562 180.733 97.2245 180.692 98.6919C180.682 99.0202 180.55 99.493 179.975 99.8793C179.604 100.108 179.172 100.218 178.737 100.194Z"
      fill="#222433" />
    <path
      d="M203.838 143.367C206.268 144.196 209.685 143.885 211.603 143.579C213.893 143.213 218.41 142.132 220.693 141.721C225.773 140.806 230.115 142.65 232.126 146.979L209.418 161.475L189.437 163.666L193.528 170.608L184.885 175.463L177.987 163.602L203.838 143.367Z"
      fill="white" />
    <path
      d="M184.885 175.989C184.794 175.989 184.704 175.965 184.624 175.919C184.544 175.873 184.478 175.808 184.432 175.728L177.535 163.867C177.471 163.757 177.449 163.628 177.473 163.503C177.497 163.378 177.565 163.266 177.665 163.188L203.515 142.953C203.584 142.899 203.665 142.863 203.75 142.849C203.836 142.834 203.924 142.841 204.007 142.869C206.513 143.724 210.096 143.287 211.52 143.06C212.779 142.859 214.726 142.437 216.609 142.03C218.136 141.7 219.577 141.388 220.6 141.204C226.044 140.223 230.531 142.299 232.601 146.758C232.655 146.873 232.665 147.005 232.629 147.127C232.594 147.25 232.515 147.355 232.407 147.424L209.699 161.92C209.632 161.963 209.555 161.99 209.475 161.999L190.302 164.101L193.979 170.341C194.015 170.401 194.038 170.468 194.047 170.537C194.057 170.607 194.052 170.677 194.034 170.745C194.016 170.813 193.984 170.876 193.941 170.931C193.899 170.987 193.845 171.033 193.784 171.067L185.141 175.922C185.063 175.966 184.975 175.989 184.885 175.989ZM178.671 163.734L185.078 174.752L192.803 170.412L188.986 163.935C188.941 163.859 188.916 163.774 188.913 163.686C188.91 163.598 188.929 163.511 188.968 163.432C189.007 163.353 189.066 163.286 189.138 163.236C189.21 163.185 189.293 163.154 189.38 163.145L209.239 160.967L231.446 146.79C229.507 143.077 225.558 141.38 220.785 142.239C219.78 142.421 218.347 142.73 216.83 143.059C214.933 143.469 212.972 143.894 211.685 144.099C210.232 144.331 206.643 144.767 203.941 143.953L178.671 163.734Z"
      fill="#222433" />
    <path
      d="M132.192 155.912C132.356 157.659 132.868 159.354 133.696 160.9C134.523 162.445 135.651 163.809 137.012 164.911L140.648 165.472C145.263 166.664 148.362 170.696 147.942 175.463H125.422L121.209 173.518L107.836 158.478L104.567 165.84L95.4071 161.616L104.657 141.394L132.192 155.912Z"
      fill="white" />
    <path
      d="M147.942 175.989H125.422C125.346 175.989 125.271 175.972 125.203 175.941L120.99 173.995C120.925 173.965 120.866 173.921 120.818 173.867L107.986 159.436L105.047 166.054C105.019 166.117 104.978 166.175 104.928 166.223C104.877 166.27 104.817 166.307 104.752 166.332C104.687 166.356 104.618 166.368 104.549 166.365C104.479 166.362 104.411 166.346 104.348 166.317L95.1879 162.092C95.0617 162.034 94.9636 161.928 94.9154 161.797C94.8671 161.667 94.8725 161.522 94.9304 161.396L104.18 141.174C104.21 141.109 104.253 141.051 104.305 141.003C104.358 140.955 104.42 140.919 104.488 140.896C104.555 140.873 104.627 140.864 104.698 140.869C104.769 140.875 104.838 140.895 104.901 140.928L132.436 155.447C132.513 155.487 132.579 155.547 132.627 155.62C132.676 155.692 132.706 155.776 132.714 155.863C132.867 157.517 133.346 159.124 134.122 160.591C134.898 162.058 135.955 163.357 137.234 164.413L140.728 164.952C140.745 164.954 140.762 164.958 140.779 164.962C145.738 166.243 148.898 170.58 148.465 175.509C148.453 175.64 148.393 175.762 148.296 175.851C148.2 175.94 148.073 175.989 147.942 175.989ZM125.536 174.937H147.449C147.598 170.74 144.817 167.103 140.542 165.988L136.932 165.431C136.84 165.417 136.753 165.378 136.68 165.319C133.895 163.069 132.105 159.81 131.698 156.247L104.902 142.118L96.1022 161.358L104.305 165.14L107.358 158.264C107.393 158.184 107.449 158.114 107.518 158.06C107.588 158.007 107.67 157.972 107.756 157.958C107.843 157.945 107.931 157.953 108.014 157.983C108.096 158.013 108.17 158.062 108.228 158.128L121.529 173.086L125.536 174.937Z"
      fill="#222433" />
    <path
      d="M171.908 97.3715L206.254 141.476L177.323 164.122L148.899 127.628L154.982 89.1786L171.908 97.3715Z"
      fill="white" />
    <path
      d="M177.323 164.648C177.243 164.648 177.164 164.63 177.093 164.595C177.021 164.56 176.958 164.509 176.909 164.446L148.485 127.952C148.441 127.895 148.409 127.83 148.391 127.76C148.373 127.69 148.369 127.617 148.38 127.546L154.464 89.0963C154.477 89.0153 154.508 88.9385 154.556 88.8719C154.603 88.8053 154.666 88.7508 154.739 88.7128C154.811 88.6748 154.891 88.6543 154.973 88.653C155.055 88.6516 155.136 88.6695 155.209 88.7051L172.136 96.8982C172.208 96.9332 172.272 96.9845 172.321 97.0481L206.667 141.152C206.71 141.206 206.741 141.269 206.759 141.335C206.778 141.402 206.783 141.471 206.774 141.54C206.766 141.608 206.744 141.675 206.71 141.735C206.676 141.795 206.631 141.848 206.576 141.89L177.646 164.537C177.553 164.609 177.44 164.648 177.323 164.648ZM149.452 127.485L177.413 163.384L205.518 141.385L171.57 97.7918L155.389 89.9596L149.452 127.485ZM121.594 31.871C121.465 31.8711 121.34 31.8235 121.244 31.7374L119.858 30.4976C119.806 30.4519 119.763 30.3963 119.733 30.3339C119.702 30.2715 119.684 30.2036 119.68 30.1342C119.675 30.0648 119.685 29.9952 119.707 29.9295C119.73 29.8638 119.766 29.8032 119.812 29.7513C119.858 29.6994 119.914 29.6572 119.976 29.6272C120.039 29.5971 120.107 29.5798 120.176 29.5762C120.245 29.5726 120.315 29.5829 120.38 29.6063C120.445 29.6298 120.505 29.666 120.556 29.7129L121.519 30.5746L127.995 22.0583C128.037 22.0033 128.089 21.9572 128.148 21.9225C128.208 21.8878 128.274 21.8651 128.342 21.8559C128.41 21.8467 128.479 21.851 128.546 21.8687C128.613 21.8864 128.675 21.917 128.73 21.9589C128.785 22.0007 128.831 22.053 128.865 22.1127C128.9 22.1724 128.922 22.2384 128.932 22.3068C128.941 22.3753 128.937 22.4449 128.919 22.5116C128.901 22.5784 128.871 22.641 128.829 22.6959L122.01 31.6638C121.966 31.7214 121.911 31.7694 121.848 31.8046C121.785 31.8399 121.715 31.8616 121.643 31.8685C121.627 31.8702 121.61 31.871 121.594 31.871Z"
      fill="#222433" />
    <path
      d="M132.012 31.3448C132.64 31.3448 133.148 30.8347 133.148 30.2055C133.148 29.5763 132.64 29.0662 132.012 29.0662C131.385 29.0662 130.876 29.5763 130.876 30.2055C130.876 30.8347 131.385 31.3448 132.012 31.3448Z"
      fill="#222433" />
    <path
      d="M70.9164 77.5323C68.9133 80.3958 67.63 83.8091 67.63 87.5761C67.63 96.6681 74.3677 104.598 83.1779 105.56L118.972 105.63L101.158 139.548L132.168 155.915L133.131 156.137L134.25 155.524L165.593 95.8144C166.978 93.2409 167.705 90.3632 167.708 87.439L99.3929 79.3628L70.9164 77.5323Z"
      fill="white" />
    <path
      d="M133.131 156.663C133.091 156.663 133.052 156.658 133.013 156.649L132.051 156.427C132.007 156.417 131.964 156.401 131.924 156.38L100.914 140.013C100.791 139.948 100.698 139.836 100.657 139.703C100.616 139.57 100.629 139.426 100.694 139.303L118.103 106.154L83.1762 106.086C83.1575 106.086 83.1389 106.085 83.1204 106.083C74.1404 105.102 67.1056 96.9731 67.1056 87.576C67.1056 83.9706 68.2749 80.3927 70.4871 77.2302C70.5387 77.1564 70.6084 77.0971 70.6895 77.0581C70.7706 77.0191 70.8603 77.0017 70.95 77.0074L99.4264 78.8379C99.4357 78.8379 99.445 78.8393 99.4542 78.8404L167.77 86.9167C167.897 86.9318 168.015 86.9933 168.1 87.0895C168.186 87.1858 168.233 87.3101 168.233 87.4389C168.234 90.4491 167.486 93.412 166.057 96.0593L134.714 155.769C134.666 155.861 134.592 155.936 134.501 155.986L133.382 156.599C133.305 156.641 133.219 156.663 133.131 156.663ZM132.352 155.417L133.055 155.58L133.86 155.139L165.129 95.5693C166.402 93.2111 167.103 90.5859 167.178 87.9057L99.3453 79.8865L71.1786 78.076C69.1993 81 68.1544 84.2785 68.1544 87.576C68.1544 96.4343 74.7642 104.097 83.2071 105.034L118.973 105.104C119.063 105.104 119.152 105.128 119.231 105.173C119.309 105.217 119.375 105.281 119.422 105.359C119.468 105.437 119.494 105.525 119.497 105.615C119.499 105.706 119.478 105.795 119.436 105.876L101.868 139.328L132.352 155.417Z"
      fill="#222433" />
    <path
      d="M138.534 27.9943L119.242 18.8804L121.271 14.6477C121.958 13.2146 123.181 12.1114 124.675 11.5784C126.169 11.0454 127.812 11.1256 129.247 11.8018L140.347 17.0427C141.874 17.7632 140.689 19.8885 139.952 21.4194L138.534 27.9943Z"
      fill="#5A38FD" />
    <path
      d="M138.534 27.994L133.001 25.4173L136.306 18.5021C136.653 17.7745 137.272 17.2134 138.028 16.9402C138.785 16.6671 139.618 16.7041 140.348 17.0432C140.711 17.2133 141.038 17.4536 141.308 17.7503C141.579 18.047 141.789 18.3943 141.926 18.7724C142.062 19.1504 142.124 19.5518 142.106 19.9535C142.088 20.3553 141.991 20.7496 141.821 21.1138C141.821 21.1184 141.819 21.1229 141.816 21.1262C141.812 21.1295 141.808 21.1313 141.803 21.1313L138.534 27.994Z"
      fill="#82B1FF" />
    <path
      d="M148.477 27.2663C148.439 27.1589 148.38 27.0601 148.304 26.9759C148.227 26.8916 148.135 26.8235 148.032 26.7755L146.985 26.2847C146.116 25.8694 145.119 25.8146 144.21 26.1322C142.305 26.7808 138.517 27.6127 134.565 25.8947C134.523 25.8772 119.64 18.5786 119.527 18.5221C119.495 18.506 119.461 18.4964 119.425 18.4938C119.389 18.4912 119.353 18.4956 119.319 18.5069C119.285 18.5182 119.254 18.5361 119.227 18.5596C119.2 18.583 119.178 18.6116 119.161 18.6437C119.145 18.6758 119.136 18.7107 119.133 18.7465C119.131 18.7823 119.135 18.8183 119.146 18.8523C119.158 18.8864 119.175 18.9179 119.199 18.9451C119.222 18.9723 119.251 18.9945 119.283 19.0106C119.424 19.0818 133.466 26.1531 137.948 28.0968C139.592 28.8099 141.364 29.174 143.155 29.166C144.789 29.1587 146.411 28.8884 147.96 28.3657C148.17 28.2857 148.343 28.1292 148.443 27.9275C148.541 27.7203 148.554 27.4826 148.477 27.2663Z"
      fill="#222433" />
    <path
      d="M87.4464 68.165L105.109 85.981L105.494 86.3667C106.65 87.5249 108.033 88.4311 109.555 89.0284C111.077 89.6256 112.706 89.901 114.339 89.8373L163.932 88.0494V65.8234L120.081 63.7945L116.182 59.8831"
      fill="white" />
    <path
      d="M113.9 90.3711C110.61 90.3712 107.455 89.065 105.123 86.7383L104.738 86.3527L87.0746 68.5356C87.0255 68.4868 86.9864 68.4287 86.9598 68.3646C86.9331 68.3006 86.9194 68.2319 86.9193 68.1625C86.9193 68.0931 86.9329 68.0244 86.9594 67.9603C86.986 67.8963 87.0249 67.8381 87.074 67.7892C87.1231 67.7402 87.1813 67.7015 87.2454 67.6753C87.3095 67.649 87.3781 67.6358 87.4473 67.6362C87.5165 67.6367 87.5849 67.6509 87.6486 67.678C87.7123 67.7051 87.77 67.7446 87.8185 67.7942L105.481 85.6102L105.864 85.9946C106.972 87.0991 108.294 87.9635 109.748 88.5341C111.203 89.1048 112.759 89.3694 114.32 89.3116L163.408 87.5413V66.3253L120.056 64.3197C119.926 64.3137 119.802 64.2589 119.71 64.1662L115.811 60.2545C115.714 60.1556 115.66 60.0222 115.661 59.8835C115.662 59.7448 115.717 59.6119 115.815 59.5139C115.913 59.4159 116.045 59.3606 116.184 59.3601C116.322 59.3596 116.455 59.414 116.553 59.5113L120.307 63.2785L163.956 65.298C164.09 65.3042 164.218 65.3623 164.311 65.4603C164.404 65.5582 164.456 65.6884 164.456 65.8238V88.0498C164.456 88.186 164.403 88.317 164.309 88.4151C164.215 88.5132 164.086 88.5707 163.95 88.5756L114.357 90.3635C114.205 90.3685 114.052 90.371 113.9 90.3711Z"
      fill="#222433" />
    <path
      d="M172.208 84.1126C171.204 85.3411 169.942 86.3312 168.511 87.0119C167.08 87.6926 165.516 88.0469 163.932 88.0493C157.947 88.0493 153.094 83.0737 153.094 76.9363C153.094 70.799 157.947 65.8234 163.932 65.8234C165.797 65.8214 167.629 66.3126 169.244 67.2472"
      fill="white" />
    <path
      d="M163.932 88.5753C157.667 88.5753 152.57 83.3541 152.57 76.9364C152.57 70.5188 157.667 65.2976 163.932 65.2976C165.889 65.2982 167.81 65.8133 169.506 66.7916C169.566 66.8261 169.618 66.8721 169.66 66.9269C169.702 66.9817 169.733 67.0442 169.75 67.1109C169.768 67.1777 169.773 67.2473 169.764 67.3158C169.755 67.3843 169.733 67.4504 169.698 67.5102C169.664 67.5701 169.618 67.6225 169.563 67.6646C169.509 67.7067 169.446 67.7376 169.38 67.7555C169.313 67.7734 169.244 67.7779 169.175 67.769C169.107 67.76 169.041 67.7376 168.981 67.703C167.445 66.8167 165.704 66.35 163.932 66.3495C158.244 66.3495 153.618 71.0997 153.618 76.9366C153.618 82.7736 158.244 87.5237 163.932 87.5237C165.438 87.5207 166.925 87.1833 168.287 86.5357C169.648 85.888 170.849 84.9463 171.804 83.7779C171.848 83.7236 171.902 83.6784 171.963 83.6451C172.024 83.6119 172.091 83.5911 172.16 83.584C172.229 83.577 172.299 83.5838 172.366 83.6041C172.432 83.6243 172.494 83.6577 172.548 83.7021C172.601 83.7466 172.645 83.8013 172.678 83.8631C172.71 83.9248 172.73 83.9924 172.736 84.0618C172.742 84.1313 172.734 84.2012 172.713 84.2676C172.691 84.334 172.657 84.3955 172.612 84.4486C171.559 85.7361 170.234 86.7739 168.734 87.4874C167.233 88.2009 165.593 88.5724 163.932 88.5753Z"
      fill="#222433" />
    <path
      d="M165.541 67.5762C168.792 67.2782 174.281 66.8049 177.777 66.5946C184.175 66.209 201.744 69.8023 200.607 74.0441C199.908 76.6033 195.52 74.7628 186.867 73.5183C194.332 75.9723 199.628 78.3035 198.615 80.8627C197.601 83.4218 190.066 80.8977 184.333 78.9521C187.392 81.8443 191.675 85.6304 190.591 87.4533C189.017 90.0826 185.207 87.0151 182.497 85.2448C176.484 81.3184 173.896 83.7023 169.561 85.087C167.586 85.718 165.121 85.6479 162.691 84.789C160.81 84.1067 159.23 82.7776 158.234 81.038C156.066 77.3219 156.588 68.7635 165.541 67.5762Z"
      fill="white" />
    <path
      d="M188.833 89.001C187.119 89.001 185.044 87.5962 183.19 86.3409C182.852 86.1121 182.524 85.8899 182.211 85.6851C177.507 82.6133 175.056 83.5668 171.955 84.7737C171.248 85.0487 170.518 85.333 169.721 85.5873C167.571 86.2741 165.013 86.1658 162.518 85.2843C160.519 84.5585 158.841 83.1469 157.78 81.2995C156.579 79.2408 156.019 75.5176 157.629 72.216C158.61 70.2057 160.767 67.6784 165.473 67.0541L165.494 67.0518C169.266 66.7061 174.466 66.2663 177.747 66.069C183.228 65.7387 197.544 68.3701 200.561 72.0794C201.119 72.7644 201.305 73.4712 201.115 74.1799C200.708 75.6685 199.351 75.8493 198.365 75.8559C197.058 75.8652 195.24 75.5229 192.935 75.0887L192.634 75.0323C196.454 76.5774 198.399 77.8861 199.037 79.2517C199.175 79.5306 199.252 79.8357 199.264 80.1468C199.275 80.4579 199.22 80.7678 199.103 81.0561C198.1 83.5889 192.916 82.3344 186.434 80.2082C189.436 83.0559 192.136 85.8821 191.042 87.7219C190.875 88.0265 190.645 88.2922 190.368 88.5015C190.091 88.7109 189.772 88.8592 189.434 88.9368C189.237 88.9801 189.035 89.0016 188.833 89.001ZM176.51 82.5623C178.251 82.5623 180.228 83.1355 182.783 84.804C183.117 85.023 183.448 85.2451 183.777 85.4701C185.585 86.6939 187.834 88.2167 189.206 87.9116C189.405 87.8638 189.591 87.7742 189.752 87.6486C189.913 87.523 190.046 87.3645 190.141 87.1834C190.925 85.8651 187.176 82.3456 184.696 80.0154C184.454 79.7892 184.213 79.5625 183.973 79.3353C183.886 79.253 183.83 79.1433 183.813 79.0244C183.797 78.9056 183.822 78.7847 183.883 78.6819C183.945 78.5791 184.04 78.5005 184.152 78.4591C184.265 78.4178 184.388 78.4162 184.501 78.4547C188.969 79.9709 197.286 82.7929 198.127 80.6692C198.191 80.5143 198.221 80.3472 198.214 80.1797C198.207 80.0121 198.163 79.8481 198.086 79.6992C197.139 77.6694 191.506 75.5976 186.704 74.0186C186.579 73.9776 186.475 73.8912 186.41 73.7766C186.346 73.6619 186.327 73.5273 186.357 73.3993C186.387 73.2712 186.463 73.159 186.572 73.0848C186.68 73.0106 186.812 72.9798 186.942 72.9985C189.324 73.341 191.344 73.721 193.127 74.0565C197.7 74.9166 199.737 75.2405 200.102 73.9059C200.2 73.5397 200.084 73.1594 199.748 72.7455C197.129 69.527 183.597 66.7713 177.809 67.1201C174.543 67.3166 169.363 67.7547 165.599 68.0996C161.361 68.6649 159.438 70.9017 158.571 72.6796C157.194 75.5017 157.587 78.8875 158.687 80.7732C159.623 82.4056 161.104 83.6532 162.87 84.2951C165.115 85.0886 167.497 85.1954 169.402 84.5866C170.168 84.3421 170.883 84.0638 171.575 83.7945C173.213 83.156 174.739 82.5621 176.51 82.5621V82.5623ZM118.972 106.156C118.852 106.156 118.737 106.115 118.644 106.04C118.551 105.965 118.486 105.861 118.46 105.744L117.585 101.818C117.555 101.682 117.58 101.539 117.655 101.422C117.729 101.304 117.847 101.221 117.983 101.19C118.119 101.16 118.261 101.185 118.378 101.26C118.496 101.334 118.579 101.453 118.609 101.589L119.186 104.18L121.102 100.779C121.171 100.659 121.285 100.571 121.418 100.534C121.552 100.497 121.694 100.515 121.815 100.583C121.936 100.651 122.024 100.765 122.062 100.898C122.099 101.032 122.083 101.175 122.015 101.297L119.428 105.889C119.382 105.97 119.316 106.037 119.236 106.084C119.156 106.131 119.064 106.156 118.972 106.156ZM132.372 157.566H132.361C132.254 157.566 132.149 157.533 132.061 157.472C131.973 157.41 131.906 157.323 131.869 157.221C131.832 157.12 131.827 157.01 131.855 156.906C131.882 156.802 131.941 156.709 132.023 156.639C133.064 155.754 142.312 148.025 146.202 149.294C146.778 149.482 147.525 149.959 147.818 151.167C147.943 151.633 147.955 152.123 147.854 152.595C147.753 153.067 147.541 153.508 147.235 153.882C144.385 157.514 132.996 157.566 132.372 157.566ZM145.185 150.195C142.378 150.195 136.896 154.072 133.869 156.482C137.722 156.329 144.568 155.58 146.41 153.231C146.616 152.982 146.759 152.687 146.826 152.371C146.894 152.055 146.884 151.727 146.798 151.416C146.65 150.807 146.358 150.452 145.877 150.294C145.653 150.225 145.42 150.192 145.186 150.195H145.185Z"
      fill="#222433" />
    <path
      d="M145.023 163.143C140.257 163.143 132.427 157.727 132.062 157.472C131.974 157.411 131.907 157.324 131.87 157.223C131.832 157.121 131.827 157.011 131.854 156.907C131.882 156.803 131.94 156.71 132.022 156.64C132.104 156.57 132.205 156.527 132.312 156.517C133.674 156.388 145.684 155.346 148.15 158.615C148.514 159.097 148.854 159.914 148.408 161.069C148.246 161.522 147.978 161.929 147.627 162.258C147.276 162.586 146.852 162.826 146.39 162.958C145.946 163.087 145.485 163.149 145.023 163.143ZM133.923 157.447C137.181 159.525 143.234 162.826 146.084 161.951C146.393 161.865 146.677 161.705 146.911 161.485C147.146 161.266 147.324 160.992 147.43 160.688C147.654 160.108 147.617 159.651 147.314 159.249C145.738 157.161 138.136 157.183 133.923 157.447V157.447ZM210.063 144.167C208.305 144.166 206.548 144.076 204.799 143.897C204.693 143.885 204.592 143.84 204.512 143.769C204.431 143.698 204.374 143.604 204.348 143.5C204.323 143.395 204.33 143.285 204.368 143.185C204.407 143.084 204.475 142.998 204.564 142.938C205.697 142.172 215.733 135.507 219.462 137.197C220.013 137.446 220.703 138.003 220.863 139.236C220.936 139.713 220.895 140.201 220.743 140.659C220.59 141.118 220.331 141.533 219.987 141.87C218.147 143.748 213.682 144.167 210.063 144.167ZM206.418 142.985C210.264 143.256 217.15 143.265 219.239 141.133C219.47 140.908 219.645 140.631 219.746 140.324C219.848 140.017 219.874 139.69 219.823 139.371C219.743 138.75 219.49 138.364 219.03 138.155C216.648 137.075 209.987 140.736 206.418 142.985Z"
      fill="#222433" />
    <path
      d="M217.383 150.868C212.681 150.868 204.862 144.076 204.513 143.77C204.432 143.7 204.375 143.606 204.349 143.501C204.323 143.396 204.33 143.286 204.368 143.186C204.407 143.085 204.475 142.999 204.564 142.939C204.653 142.878 204.758 142.847 204.866 142.848C206.233 142.869 218.284 143.156 220.379 146.676C220.688 147.195 220.937 148.045 220.367 149.144C220.156 149.576 219.845 149.952 219.46 150.239C219.076 150.527 218.628 150.719 218.154 150.799C217.9 150.846 217.642 150.869 217.383 150.868ZM206.365 143.95C209.376 146.374 215.031 150.321 217.96 149.765C218.277 149.714 218.576 149.586 218.834 149.394C219.091 149.201 219.298 148.949 219.437 148.659C219.723 148.106 219.736 147.648 219.478 147.215C218.14 144.965 210.582 144.151 206.365 143.95ZM124.513 69.0539C124.442 69.054 124.371 69.0394 124.305 69.0111C124.24 68.9828 124.181 68.9412 124.132 68.8891L119.237 63.696C119.141 63.5946 119.09 63.4594 119.094 63.3199C119.098 63.1805 119.157 63.0484 119.258 62.9526C119.359 62.8568 119.494 62.8052 119.633 62.8092C119.772 62.8131 119.904 62.8723 119.999 62.9736L124.894 68.1668C124.964 68.2414 125.011 68.3351 125.029 68.4363C125.047 68.5375 125.035 68.6417 124.995 68.7361C124.954 68.8304 124.887 68.9108 124.801 68.9673C124.716 69.0238 124.615 69.0539 124.513 69.0539Z"
      fill="#222433" />
    <path d="M135.753 32.9125L136.295 38.2336L132.764 37.6698" fill="white" />
    <path
      d="M136.295 38.7595C136.267 38.7595 136.24 38.7572 136.213 38.7528L132.681 38.1893C132.613 38.1784 132.548 38.1543 132.489 38.1181C132.431 38.082 132.38 38.0346 132.339 37.9787C132.299 37.9228 132.27 37.8594 132.254 37.7923C132.238 37.7251 132.235 37.6554 132.246 37.5872C132.257 37.519 132.281 37.4536 132.317 37.3948C132.353 37.3359 132.4 37.2847 132.456 37.2442C132.512 37.2036 132.575 37.1745 132.642 37.1584C132.709 37.1424 132.778 37.1397 132.846 37.1506L135.704 37.6063L135.232 32.9653C135.225 32.8966 135.231 32.827 135.251 32.7608C135.271 32.6945 135.303 32.6328 135.347 32.5791C135.39 32.5255 135.444 32.4809 135.505 32.4481C135.565 32.4153 135.632 32.3947 135.7 32.3877C135.769 32.3807 135.838 32.3873 135.904 32.4072C135.97 32.4271 136.032 32.4598 136.085 32.5036C136.139 32.5473 136.183 32.6012 136.216 32.6621C136.248 32.723 136.269 32.7898 136.275 32.8586L136.817 38.1797C136.825 38.2528 136.817 38.3266 136.794 38.3964C136.771 38.4662 136.734 38.5304 136.685 38.5849C136.635 38.6394 136.575 38.683 136.508 38.7128C136.442 38.7427 136.369 38.7581 136.296 38.7581L136.295 38.7595ZM130.054 42.791C130.025 42.7911 129.996 42.7887 129.967 42.7838L129.547 42.7137C128.515 42.5579 127.538 42.1428 126.708 41.5069C125.878 40.8711 125.222 40.0352 124.801 39.0769L124.348 38.0631C124.291 37.9358 124.287 37.7911 124.336 37.6608C124.386 37.5304 124.485 37.4252 124.612 37.3681C124.739 37.311 124.883 37.3069 125.013 37.3565C125.143 37.4061 125.248 37.5055 125.305 37.6328L125.759 38.6494C126.11 39.4474 126.657 40.1433 127.348 40.6723C128.04 41.2014 128.853 41.5465 129.714 41.6753L130.139 41.7463C130.269 41.7678 130.386 41.8375 130.467 41.9416C130.548 42.0457 130.587 42.1766 130.577 42.3082C130.566 42.4398 130.506 42.5625 130.409 42.652C130.312 42.7414 130.186 42.7911 130.054 42.791H130.054ZM120.352 47.5587C120.3 47.5587 120.248 47.5508 120.198 47.5352C118.357 46.9722 116.692 45.9417 115.365 44.5437C114.038 43.1456 113.094 41.4275 112.625 39.556C112.607 39.4888 112.602 39.4188 112.612 39.3499C112.621 39.2811 112.644 39.2147 112.679 39.1548C112.714 39.0948 112.76 39.0424 112.816 39.0005C112.871 38.9587 112.934 38.9283 113.001 38.911C113.068 38.8938 113.138 38.8901 113.207 38.9001C113.275 38.9101 113.341 38.9336 113.401 38.9693C113.46 39.005 113.512 39.0522 113.553 39.1081C113.594 39.164 113.624 39.2275 113.641 39.295C114.066 40.992 114.922 42.5499 116.125 43.8175C117.329 45.0851 118.838 46.0195 120.507 46.53C120.627 46.5671 120.73 46.6461 120.797 46.7527C120.864 46.8593 120.89 46.9864 120.871 47.1109C120.853 47.2354 120.79 47.349 120.695 47.4311C120.6 47.5133 120.478 47.5584 120.353 47.5584L120.352 47.5587Z"
      fill="#222433" />
    <path
      d="M116.472 31.4502C115.089 31.4501 113.75 30.9607 112.691 30.068C111.633 29.1754 110.923 27.9368 110.685 26.5705C110.448 25.2042 110.7 23.7978 111.395 22.5991C112.091 21.4003 113.186 20.4861 114.487 20.0175C115.789 19.5489 117.214 19.556 118.511 20.0374C119.808 20.5189 120.894 21.4439 121.578 22.6495C122.262 23.855 122.499 25.2639 122.248 26.6278C121.998 27.9917 121.275 29.2231 120.208 30.1052"
      fill="white" />
    <path
      d="M116.472 31.9761C114.965 31.9761 113.507 31.443 112.354 30.4706C111.201 29.4983 110.427 28.1492 110.169 26.6609C109.91 25.1726 110.184 23.6406 110.941 22.3349C111.699 21.0291 112.892 20.0332 114.31 19.5228C115.728 19.0123 117.28 19.0199 118.693 19.5443C120.106 20.0687 121.289 21.0763 122.033 22.3895C122.778 23.7026 123.037 25.2372 122.764 26.7229C122.491 28.2086 121.704 29.55 120.542 30.5109C120.434 30.5997 120.296 30.6421 120.158 30.6288C120.019 30.6155 119.892 30.5476 119.803 30.44C119.715 30.3325 119.672 30.194 119.686 30.0552C119.699 29.9164 119.767 29.7885 119.874 29.6997C120.846 28.8964 121.504 27.7749 121.732 26.5328C121.961 25.2907 121.744 24.0076 121.122 22.9096C120.499 21.8117 119.51 20.9692 118.329 20.5307C117.148 20.0922 115.85 20.0858 114.664 20.5125C113.479 20.9393 112.481 21.7718 111.848 22.8636C111.215 23.9553 110.986 25.2361 111.202 26.4805C111.418 27.7248 112.065 28.8528 113.029 29.6657C113.993 30.4787 115.212 30.9244 116.472 30.9244C116.611 30.9244 116.744 30.9798 116.842 31.0785C116.941 31.1771 116.996 31.3108 116.996 31.4503C116.996 31.5898 116.941 31.7235 116.842 31.8221C116.744 31.9207 116.611 31.9761 116.472 31.9761Z"
      fill="#222433" />
    <path
      d="M117.783 28.9087C117.671 28.9088 117.562 28.873 117.472 28.8067L113.854 26.1424C113.742 26.0599 113.667 25.936 113.646 25.7981C113.625 25.6603 113.659 25.5196 113.741 25.4072C113.824 25.2948 113.947 25.2197 114.085 25.1986C114.222 25.1775 114.363 25.212 114.475 25.2946L116.964 27.128L116.047 23.029C116.031 22.9613 116.029 22.891 116.04 22.8222C116.051 22.7535 116.076 22.6876 116.113 22.6286C116.149 22.5695 116.197 22.5183 116.254 22.478C116.311 22.4377 116.375 22.4091 116.443 22.3939C116.511 22.3786 116.581 22.377 116.649 22.3892C116.717 22.4013 116.783 22.427 116.841 22.4647C116.9 22.5024 116.95 22.5513 116.989 22.6087C117.029 22.6661 117.056 22.7307 117.071 22.7989L118.294 28.2677C118.312 28.3447 118.311 28.4245 118.294 28.5013C118.276 28.5781 118.241 28.6499 118.192 28.7115C118.143 28.773 118.081 28.8227 118.01 28.8569C117.939 28.891 117.861 28.9087 117.783 28.9087Z"
      fill="#222433" />
  </g>
  <g clip-path="url(#clip5_366_385)">
    <path
      d="M48.8176 175.728C42.8015 170.95 38.9303 163.98 38.0549 156.35C37.1795 148.72 39.3717 141.055 44.1494 135.04C54.0935 122.534 72.3572 120.441 84.861 130.373L71.8269 146.765C70.1578 145.445 68.0331 144.84 65.9188 145.084C63.8045 145.328 61.8735 146.401 60.5493 148.066C59.2279 149.734 58.6228 151.858 58.8669 153.971C59.1111 156.084 60.1845 158.014 61.8514 159.337L48.8176 175.728Z"
      fill="#82B1FF" />
    <path
      d="M67.6949 124.122C72.6989 124.122 76.7554 120.068 76.7554 115.067C76.7554 110.065 72.6989 106.011 67.6949 106.011C62.6909 106.011 58.6344 110.065 58.6344 115.067C58.6344 120.068 62.6909 124.122 67.6949 124.122Z"
      fill="#5A38FD" />
  </g>
  <g clip-path="url(#clip6_366_385)">
    <path
      d="M204.319 36.2893C210.59 36.2893 215.673 31.2062 215.673 24.936C215.673 18.6657 210.59 13.5826 204.319 13.5826C198.049 13.5826 192.966 18.6657 192.966 24.936C192.966 31.2062 198.049 36.2893 204.319 36.2893Z"
      fill="white" />
    <path
      d="M204.319 36.8167C201.97 36.8167 199.673 36.1199 197.719 34.8144C195.765 33.509 194.242 31.6535 193.343 29.4826C192.444 27.3117 192.209 24.9229 192.667 22.6183C193.126 20.3137 194.257 18.1968 195.919 16.5353C197.58 14.8738 199.697 13.7422 202.002 13.2838C204.306 12.8254 206.695 13.0607 208.866 13.9599C211.037 14.8591 212.892 16.3819 214.198 18.3356C215.503 20.2894 216.2 22.5864 216.2 24.9361C216.196 28.0859 214.944 31.1057 212.716 33.333C210.489 35.5603 207.469 36.8131 204.319 36.8167ZM204.319 14.11C202.178 14.11 200.085 14.745 198.305 15.9346C196.524 17.1241 195.137 18.8149 194.317 20.7931C193.498 22.7714 193.284 24.9481 193.701 27.0482C194.119 29.1482 195.15 31.0772 196.664 32.5913C198.178 34.1053 200.107 35.1364 202.207 35.5542C204.307 35.9719 206.484 35.7575 208.462 34.9381C210.441 34.1187 212.131 32.7311 213.321 30.9507C214.511 29.1704 215.145 27.0773 215.145 24.9361C215.142 22.0658 214.001 19.3141 211.971 17.2845C209.941 15.2549 207.19 14.1133 204.319 14.11Z"
      fill="#222433" />
    <path
      d="M207.36 24.6901C207.92 24.5188 208.411 24.1718 208.759 23.7002C209.107 23.2286 209.294 22.6576 209.293 22.0714C209.308 21.6039 209.179 21.143 208.925 20.7505C208.67 20.3579 208.302 20.0523 207.87 19.8746L208.274 17.7656H206.604L206.27 19.488C206.13 19.488 205.989 19.4704 205.866 19.4704H203.862L204.179 17.748H202.509L202.193 19.4704H200.629L200.154 21.0697H201.595L200.014 28.4687H198.783L198.309 30.068H200.154L199.855 31.6673H201.525L201.824 30.068H204.267L203.968 31.6673H205.638L205.971 29.9098C207.307 29.6286 208.221 28.9256 208.59 27.2912C208.718 26.7822 208.666 26.2445 208.441 25.77C208.217 25.2955 207.835 24.9138 207.36 24.6901ZM206.797 27.1857C206.569 28.2402 205.585 28.4687 204.179 28.4687H201.771L202.386 25.5337H204.812C206.2 25.5337 207.079 25.9203 206.797 27.1857ZM204.935 23.9344H202.738L203.353 21.0873H205.532C206.604 21.0873 207.553 21.3157 207.553 22.2472C207.553 23.2841 206.833 23.9344 204.935 23.9344Z"
      fill="#5A38FD" />
  </g>
  <g clip-path="url(#clip7_366_385)">
    <path
      d="M228.733 42.6081C232.653 42.6081 235.83 39.4307 235.83 35.5112C235.83 31.5916 232.653 28.4142 228.733 28.4142C224.814 28.4142 221.636 31.5916 221.636 35.5112C221.636 39.4307 224.814 42.6081 228.733 42.6081Z"
      fill="white" />
    <path
      d="M228.733 43.0833C227.236 43.0833 225.772 42.6392 224.526 41.8071C223.281 40.9751 222.311 39.7925 221.738 38.4088C221.164 37.0252 221.014 35.5027 221.307 34.0338C221.599 32.5649 222.32 31.2157 223.379 30.1567C224.438 29.0977 225.787 28.3765 227.256 28.0843C228.725 27.7922 230.247 27.9421 231.631 28.5152C233.015 29.0884 234.197 30.0589 235.029 31.3042C235.861 32.5494 236.306 34.0134 236.306 35.5111C236.303 37.5186 235.505 39.4433 234.085 40.8629C232.666 42.2825 230.741 43.081 228.733 43.0833ZM228.733 28.8893C227.424 28.8893 226.143 29.2777 225.055 30.0053C223.966 30.7329 223.117 31.7671 222.616 32.977C222.114 34.187 221.983 35.5184 222.239 36.8029C222.494 38.0874 223.125 39.2673 224.051 40.1933C224.977 41.1194 226.157 41.7501 227.442 42.0056C228.726 42.2611 230.057 42.1299 231.267 41.6288C232.477 41.1276 233.512 40.2788 234.239 39.1899C234.967 38.101 235.355 36.8207 235.355 35.5111C235.353 33.7555 234.655 32.0724 233.413 30.831C232.172 29.5896 230.489 28.8913 228.733 28.8893Z"
      fill="#222433" />
    <path
      d="M230.65 35.3527C231.004 35.246 231.313 35.028 231.533 34.7312C231.753 34.4344 231.871 34.0746 231.87 33.7052C231.878 33.4128 231.798 33.1247 231.64 32.8788C231.481 32.6328 231.252 32.4405 230.983 32.327L231.236 31.0122H230.191L229.985 32.0894C229.906 32.0894 229.811 32.0736 229.731 32.0736H228.48L228.686 30.9963H227.64L227.434 32.0736H226.452L226.167 33.0716H227.07L226.088 37.6973H225.327L225.042 38.7111H226.199L226.009 39.7091H227.054L227.244 38.7111H228.749L228.559 39.7091H229.605L229.811 38.6002C230.65 38.426 231.22 37.9824 231.442 36.9686C231.503 36.6498 231.459 36.3199 231.316 36.0285C231.173 35.7371 230.939 35.4999 230.65 35.3527ZM230.302 36.9052C230.159 37.5705 229.541 37.7131 228.67 37.7131H227.149L227.529 35.8755H229.05C229.921 35.8755 230.476 36.129 230.302 36.9052ZM229.129 34.8775H227.751L228.131 33.0874H229.494C230.159 33.0874 230.761 33.23 230.761 33.8161C230.761 34.4656 230.317 34.8775 229.129 34.8775Z"
      fill="#82B1FF" />
  </g>
  <g clip-path="url(#clip8_366_385)">
    <path
      d="M216.736 59.2724C216.649 59.2724 216.563 59.2509 216.486 59.2097C216.409 59.1686 216.344 59.1091 216.294 59.0364C216.245 58.9636 216.214 58.8798 216.204 58.7921C216.194 58.7045 216.205 58.6156 216.236 58.5331L221.431 44.7388C221.455 44.67 221.492 44.6066 221.54 44.5525C221.588 44.4984 221.646 44.4547 221.711 44.424C221.776 44.3933 221.847 44.3761 221.918 44.3736C221.99 44.3711 222.062 44.3833 222.129 44.4093C222.196 44.4354 222.257 44.475 222.308 44.5255C222.36 44.5761 222.401 44.6367 222.429 44.7038C222.458 44.7709 222.472 44.843 222.473 44.9159C222.473 44.9888 222.459 45.0611 222.431 45.1283L217.235 58.9226C217.197 59.0255 217.128 59.114 217.039 59.1764C216.95 59.2389 216.844 59.2724 216.736 59.2724Z"
      fill="#222433" />
  </g>
  <g clip-path="url(#clip9_366_385)">
    <path
      d="M307.597 175.773H30.0194C29.7282 175.773 29.5055 175.535 29.5055 175.224C29.5055 174.912 29.7282 174.674 30.0194 174.674H307.597C307.888 174.674 308.111 174.912 308.111 175.224C308.111 175.535 307.888 175.773 307.597 175.773Z"
      fill="#222433" />
  </g>
  <defs>
    <clipPath id="clip0_366_385">
      <rect width="113.322" height="89.0389" fill="white" transform="translate(192.439 86.6888)" />
    </clipPath>
    <clipPath id="clip1_366_385">
      <rect width="76.7667" height="35.25" fill="white" transform="translate(178.339 54.5723)" />
    </clipPath>
    <clipPath id="clip2_366_385">
      <rect width="65.2778" height="123.506" fill="white" transform="translate(54.5723 52.2222)" />
    </clipPath>
    <clipPath id="clip3_366_385">
      <rect width="8.09444" height="32.9" fill="white" transform="translate(203.928 37.6001)" />
    </clipPath>
    <clipPath id="clip4_366_385">
      <rect width="165.544" height="164.761" fill="white" transform="translate(67.1056 11.2279)" />
    </clipPath>
    <clipPath id="clip5_366_385">
      <rect width="47" height="69.7167" fill="white" transform="translate(37.8611 106.011)" />
    </clipPath>
    <clipPath id="clip6_366_385">
      <rect width="23.7611" height="23.7611" fill="white" transform="translate(192.439 13.0555)" />
    </clipPath>
    <clipPath id="clip7_366_385">
      <rect width="15.1444" height="15.1444" fill="white" transform="translate(221.161 27.9388)" />
    </clipPath>
    <clipPath id="clip8_366_385">
      <rect width="6.26667" height="14.8833" fill="white" transform="translate(216.2 44.3889)" />
    </clipPath>
    <clipPath id="clip9_366_385">
      <rect width="278.606" height="2.08889" fill="white" transform="translate(29.5055 174.161)" />
    </clipPath>
  </defs>
</svg>
  