<svg width="105" height="104" viewBox="0 0 105 104" fill="none" xmlns="http://www.w3.org/2000/svg">
<mask id="mask0_825_1022" style="mask-type:alpha" maskUnits="userSpaceOnUse" x="0" y="0" width="105" height="104">
<rect x="0.5" width="104" height="104" fill="#D9D9D9"/>
</mask>
<g mask="url(#mask0_825_1022)">
<path d="M46.1079 70.2582L75.3078 41.0584L71.5329 37.3501L46.1079 62.8168L33.2746 49.9834L29.608 53.6917L46.1079 70.2582ZM52.5068 93.1666C46.8575 93.1666 41.5349 92.0862 36.5388 89.9253C31.5428 87.7644 27.1737 84.8138 23.4317 81.0734C19.6896 77.3329 16.7376 72.9658 14.5758 67.972C12.4139 62.9781 11.333 57.6565 11.333 52.0073C11.333 46.3136 12.4135 40.9618 14.5743 35.9519C16.7352 30.9419 19.6859 26.5839 23.4263 22.878C27.1667 19.172 31.5339 16.2381 36.5277 14.0762C41.5215 11.9144 46.8431 10.8335 52.4923 10.8335C58.186 10.8335 63.5378 11.9139 68.5478 14.0748C73.5577 16.2357 77.9157 19.1683 81.6216 22.8726C85.3276 26.5769 88.2616 30.933 90.4234 35.9407C92.5852 40.9484 93.6661 46.2991 93.6661 51.9928C93.6661 57.6421 92.5857 62.9648 90.4248 67.9608C88.2639 72.9569 85.3313 77.3259 81.6271 81.068C77.9227 84.8101 73.5667 87.7621 68.5589 89.9239C63.5512 92.0857 58.2005 93.1666 52.5068 93.1666ZM52.4996 88.25C62.5884 88.25 71.1523 84.7195 78.1913 77.6584C85.2301 70.5973 88.7495 62.0445 88.7495 52.0001C88.7495 41.9112 85.2301 33.3473 78.1913 26.3084C71.1523 19.2695 62.5884 15.7501 52.4996 15.7501C42.4551 15.7501 33.9023 19.2695 26.8413 26.3084C19.7802 33.3473 16.2496 41.9112 16.2496 52.0001C16.2496 62.0445 19.7802 70.5973 26.8413 77.6584C33.9023 84.7195 42.4551 88.25 52.4996 88.25Z" fill="#22C55E"/>
</g>
</svg>
