<svg width="66" height="66" viewBox="0 0 66 66" fill="none" xmlns="http://www.w3.org/2000/svg">
  <g clip-path="url(#clip0_230_3932)">
    <path
      d="M33 66C51.2876 66 66 51.2876 66 33C66 14.7124 51.2876 0 33 0C14.7124 0 0 14.7124 0 33C0 51.2876 14.7124 66 33 66Z"
      fill="#2775CA" />
    <path
      d="M42.0748 38.2249C42.0748 33.4125 39.1873 31.7625 33.4123 31.0751C29.2873 30.525 28.4623 29.4251 28.4623 27.4999C28.4623 25.5747 29.8374 24.3375 32.5873 24.3375C35.0623 24.3375 36.4374 25.1625 37.1248 27.225C37.2624 27.6375 37.6749 27.9124 38.0874 27.9124H40.2872C40.8373 27.9124 41.2498 27.4999 41.2498 26.9501V26.8125C40.6997 23.7874 38.2247 21.45 35.0623 21.1751V17.8751C35.0623 17.325 34.6498 16.9125 33.9624 16.7749H31.8999C31.3498 16.7749 30.9373 17.1874 30.7997 17.8751V21.0375C26.6747 21.5876 24.0624 24.3375 24.0624 27.7751C24.0624 32.3126 26.8123 34.0999 32.5873 34.7876C36.4374 35.475 37.6749 36.3 37.6749 38.5001C37.6749 40.7002 35.7497 42.2126 33.1374 42.2126C29.5622 42.2126 28.3247 40.6999 27.9122 38.6374C27.7749 38.0876 27.3624 37.8124 26.9499 37.8124H24.6122C24.0624 37.8124 23.6499 38.2249 23.6499 38.775V38.9126C24.1997 42.3499 26.3998 44.8249 30.9373 45.5126V48.8126C30.9373 49.3624 31.3498 49.7749 32.0372 49.9125H34.0997C34.6498 49.9125 35.0623 49.5 35.1999 48.8126V45.5126C39.3249 44.8249 42.0748 41.9374 42.0748 38.2249Z"
      fill="white" />
    <path
      d="M25.9877 52.6623C15.2627 48.8125 9.76263 36.85 13.7504 26.2623C15.8129 20.4873 20.3503 16.0874 25.9877 14.0249C26.5378 13.75 26.8127 13.3375 26.8127 12.6498V10.7249C26.8127 10.1748 26.5378 9.76228 25.9877 9.625C25.8501 9.625 25.5752 9.625 25.4376 9.76228C12.3752 13.8873 5.22513 27.775 9.35013 40.8374C11.8251 48.5373 17.7377 54.4499 25.4376 56.9249C25.9877 57.1998 26.5378 56.9249 26.6751 56.3748C26.8127 56.2375 26.8127 56.0999 26.8127 55.825V53.8998C26.8127 53.4873 26.4002 52.9375 25.9877 52.6623ZM40.5629 9.76228C40.0127 9.48739 39.4626 9.76228 39.3253 10.3124C39.1877 10.45 39.1877 10.5873 39.1877 10.8625V12.7874C39.1877 13.3375 39.6002 13.8873 40.0127 14.1625C50.7377 18.0123 56.2379 29.9748 52.2501 40.5625C50.1876 46.3375 45.6501 50.7374 40.0127 52.7999C39.4626 53.0748 39.1877 53.4873 39.1877 54.175V56.0999C39.1877 56.65 39.4626 57.0625 40.0127 57.1998C40.1503 57.1998 40.4252 57.1998 40.5629 57.0625C53.6252 52.9375 60.7754 39.0498 56.6504 25.9874C54.1754 18.1499 48.1251 12.2373 40.5629 9.76228Z"
      fill="white" />
  </g>
  <defs>
    <clipPath id="clip0_230_3932">
      <rect width="66" height="66" fill="white" />
    </clipPath>
  </defs>
</svg>
  