<svg width="327" height="188" viewBox="0 0 327 188" fill="none" xmlns="http://www.w3.org/2000/svg">
  <g clip-path="url(#clip0_282_1203)">
    <path
      d="M215.429 188C215.071 188 214.778 187.709 214.778 187.35C214.778 187.292 214.787 187.237 214.8 187.179L235.019 110.89C235.112 110.541 235.467 110.335 235.815 110.426C236.162 110.519 236.367 110.876 236.277 111.225L216.058 187.514C215.981 187.8 215.724 188 215.429 188ZM278.56 188C278.24 188 277.966 187.764 277.917 187.446L266.338 111.156C266.289 110.799 266.538 110.47 266.893 110.421C267.243 110.371 267.566 110.61 267.623 110.961L279.202 187.251C279.257 187.608 279.014 187.94 278.658 187.995C278.625 188 278.593 188.003 278.56 188.003V188Z"
      fill="#222433" />
    <path
      d="M232.427 111.057C232.427 111.057 242.887 61.5789 243.125 60.2561C243.872 56.1091 245.438 52.146 249.63 51.3089C250.152 51.2046 250.682 51.1525 251.216 51.1525H274.981C275.514 51.1525 276.044 51.2046 276.566 51.3089C280.976 52.1871 283.844 56.4906 283.374 60.89L273.337 111.452"
      fill="white" />
    <path
      d="M273.337 112.103C272.979 112.103 272.687 111.812 272.687 111.452C272.687 111.409 272.692 111.367 272.7 111.323L282.732 60.7913C283.164 56.6196 280.405 52.7389 276.441 51.9484C275.959 51.8524 275.47 51.803 274.981 51.803H251.216C250.726 51.803 250.237 51.8524 249.756 51.9457C246.59 52.5769 244.687 55.2528 243.765 60.3686C243.527 61.6888 233.488 109.169 233.061 111.189C232.982 111.54 232.635 111.763 232.285 111.683C231.94 111.606 231.721 111.266 231.79 110.917C231.894 110.423 242.251 61.4335 242.486 60.1354C243.134 56.5428 244.566 51.6493 249.504 50.6667C250.067 50.5542 250.642 50.4966 251.216 50.4966H274.981C275.555 50.4966 276.132 50.5542 276.692 50.6667C281.318 51.5889 284.536 56.1091 284.02 60.9587C284.02 60.9779 284.014 60.9971 284.011 61.0163L273.974 111.579C273.914 111.883 273.646 112.103 273.337 112.103Z"
      fill="#222433" />
    <path
      d="M208.233 110.404L274.016 110.399V111.269C274.016 112.959 272.649 114.331 270.964 114.331H205.059L208.233 110.407V110.404Z"
      fill="#222433" />
    <path
      d="M85.9634 87.2759L89.9907 77.3791C95.0106 81.4246 102.357 81.3203 107.27 76.8385L117.307 67.658C120.848 64.4195 121.105 58.914 117.879 55.3598C114.647 51.7974 109.143 51.5422 105.597 54.789L98.6497 61.148L86.0591 47.3348C83.0652 43.8383 78.6305 41.6152 73.7036 41.6152L62.6113 43.0781L85.9634 87.2787V87.2759Z"
      fill="#5A38FD" />
    <path
      d="M81.9562 24.7047C88.5563 23.8877 93.2468 17.8534 92.4327 11.2267C91.6186 4.59994 85.6082 -0.109775 79.0081 0.707221C72.408 1.52422 67.7176 7.55854 68.5316 14.1853C69.3457 20.812 75.3561 25.5217 81.9562 24.7047Z"
      fill="white" />
    <path
      d="M80.7824 25.4033C87.7681 25.2359 93.2965 19.4147 93.127 12.3997C92.9574 5.38473 87.1611 -0.164702 80.1755 0.00271394C73.1898 0.17013 67.6614 5.99127 67.8309 13.0063C68.0059 20.0158 73.7995 25.5625 80.7824 25.4033ZM80.2055 1.23226C86.5159 1.08131 91.7517 6.09282 91.9048 12.4299C92.0552 18.7643 87.0627 24.0228 80.7551 24.1765C74.4475 24.3302 69.2089 19.3159 69.0558 12.9788C68.9109 6.64721 73.9007 1.39144 80.2055 1.23226Z"
      fill="#222433" />
    <path
      d="M78.0697 32.4183C78.0205 32.8712 77.9904 33.3213 77.9795 33.7741C77.9795 34.4053 78.0424 35.0366 78.1682 35.6541L75.7266 42.0049C75.7266 42.0049 75.3602 42.9353 74.92 44.1155C73.8674 46.8435 75.218 49.9119 77.9358 50.9686H77.9412C80.6589 52.028 83.7129 50.6722 84.7656 47.9441V47.9386L86.3623 43.7999C86.9693 43.9151 87.5872 43.97 88.2024 43.9618C93.8182 43.9481 98.3623 39.3675 98.3486 33.7274V33.7165C98.3377 32.4897 98.1163 31.2766 97.6925 30.1239C98.1245 28.9739 98.3459 27.7526 98.3404 26.5203C98.3404 26.0812 98.3076 25.6448 98.2475 25.2112L94.0944 18.2126"
      fill="white" />
    <path
      d="M79.9895 51.9457C82.3709 51.8826 84.4816 50.3896 85.3401 48.161L86.7564 44.4861C87.2403 44.5547 87.7297 44.5849 88.2191 44.5767C94.174 44.5547 98.9834 39.6942 98.9615 33.7166C98.9505 32.4953 98.7428 31.2822 98.3436 30.1295C98.7537 28.9713 98.9588 27.75 98.9533 26.5204C98.9533 26.0511 98.9177 25.5818 98.8521 25.118C98.8384 25.0411 98.8138 24.967 98.7728 24.9012L94.6197 17.9026C94.4475 17.6117 94.0729 17.5156 93.7803 17.6885C93.4905 17.8614 93.3948 18.2402 93.5671 18.5311L97.6573 25.4254C97.7011 25.7959 97.7229 26.1664 97.7257 26.5396C97.7284 27.6923 97.5206 28.8341 97.116 29.9127C97.064 30.0499 97.064 30.2008 97.116 30.3381C97.5151 31.4222 97.7257 32.5666 97.7366 33.7221C97.753 39.0217 93.4878 43.3306 88.2082 43.3471H88.2027C87.6231 43.3581 87.0435 43.3059 86.472 43.1962C86.1822 43.144 85.8979 43.3032 85.7913 43.5804L84.1945 47.7191C83.7489 48.8801 82.8603 49.816 81.7284 50.3182C80.5992 50.8259 79.3141 50.8561 78.1603 50.4005C75.7571 49.4647 74.5622 46.7558 75.4864 44.3406C75.7489 43.6353 76.0195 42.9327 76.2929 42.2328L78.7345 35.8765C78.7755 35.7695 78.7865 35.6515 78.7646 35.5389C78.647 34.9598 78.5896 34.3698 78.5869 33.777C78.5951 33.3461 78.6251 32.9152 78.6744 32.4843C78.7208 32.1495 78.4884 31.8366 78.1549 31.7899C77.8213 31.7433 77.5096 31.9765 77.4631 32.3114C77.4631 32.3224 77.4631 32.3306 77.4604 32.3416V32.3471C77.4085 32.8164 77.3756 33.2857 77.3647 33.7577C77.3647 34.3725 77.4194 34.9873 77.5315 35.5938L75.1528 41.7827C75.1528 41.7827 74.781 42.7269 74.3435 43.896C73.1788 46.9534 74.7017 50.3813 77.7448 51.5505C78.4584 51.825 79.2184 51.9594 79.984 51.943L79.9895 51.9457Z"
      fill="#222433" />
    <path
      d="M98.7399 25.1151C98.3407 22.0495 97.4357 20.0213 95.7652 18.4843C91.2266 14.3154 84.1835 14.6283 80.0303 19.1814L80.0221 19.1897C78.4692 20.894 77.4822 23.0348 77.1869 25.3237L77.1185 25.8781C77.083 26.1443 79.7187 24.525 80.6592 24.5415C85.2334 24.6376 84.8588 28.5814 85.1049 28.576H85.1459C90.8875 27.3876 95.5328 22.4035 95.5328 22.4035L97.9115 25.4609C98.0454 25.6393 98.2833 25.7024 98.4856 25.6119C98.6606 25.5103 98.759 25.3155 98.7399 25.1124V25.1151Z"
      fill="white" />
    <path
      d="M85.1182 29.1935H85.1592C85.1947 29.1935 85.233 29.188 85.2686 29.1798C90.097 28.1808 94.1025 24.6623 95.475 23.3312L97.419 25.8315C97.7334 26.2514 98.3021 26.3886 98.7696 26.1553C99.1688 25.933 99.3957 25.4939 99.3438 25.0383V25.0328C98.9255 21.8217 97.9467 19.6618 96.175 18.0288C91.3875 13.6293 83.9562 13.9587 79.5761 18.7643L79.5679 18.7726C77.9302 20.5702 76.8885 22.8317 76.5796 25.2442L76.5112 25.8013C76.4811 26.0318 76.5796 26.2624 76.7682 26.3996C77.1291 26.6603 77.4326 26.5149 78.436 26.0291C79.0703 25.7217 80.246 25.1563 80.6479 25.1591C83.855 25.225 84.2159 27.3135 84.3909 28.318C84.4429 28.6282 84.5413 29.2073 85.1155 29.1935H85.1182ZM95.516 21.7916C95.352 21.797 95.1961 21.8657 95.084 21.9864C95.0403 22.0331 90.7887 26.5368 85.5529 27.8542C85.326 26.6603 84.5796 24.0119 80.6725 23.9295C80.03 23.924 79.0813 24.3522 77.9056 24.9231L77.8646 24.9423C78.7094 20.046 82.8352 16.3986 87.7812 16.1763C90.5728 16.0418 93.2987 17.038 95.3492 18.94C96.8175 20.2903 97.6404 22.0193 98.0533 24.6513L96.0136 22.0276C95.9043 21.8876 95.7375 21.7998 95.5598 21.7916C95.5461 21.7916 95.5324 21.7916 95.5188 21.7916H95.516Z"
      fill="#222433" />
    <path
      d="M79.3117 33.0853C77.9091 32.583 76.8537 31.4056 76.501 29.9565C75.9487 27.6045 77.4006 25.2469 79.7437 24.6925C82.0868 24.1381 84.4327 25.5955 84.985 27.9475C85.1162 28.5102 85.1381 29.0947 85.0451 29.6683"
      fill="white" />
    <path
      d="M79.328 33.6973C79.6671 33.6891 79.935 33.4091 79.9268 33.0688C79.9213 32.8163 79.76 32.5913 79.5249 32.5034C78.3164 32.0698 77.4059 31.0571 77.0997 29.8056C76.6377 27.7801 77.9008 25.7629 79.9159 25.2991C81.9145 24.8407 83.9104 26.0812 84.3916 28.082C84.5037 28.5678 84.5228 29.0728 84.4436 29.5641C84.3834 29.8989 84.6021 30.2172 84.9357 30.2776C85.2692 30.338 85.5864 30.1184 85.6493 29.7836C85.6493 29.7754 85.652 29.7671 85.6548 29.7562C85.7587 29.1057 85.7341 28.4415 85.5864 27.7993C84.9576 25.1152 82.2809 23.452 79.6096 24.0832C76.9384 24.7145 75.2815 27.4014 75.9076 30.0828C76.3096 31.735 77.5098 33.0743 79.1038 33.6507C79.1749 33.6781 79.2515 33.6891 79.328 33.6891V33.6973ZM94.9234 36.2332C95.0136 36.2332 95.1039 36.2085 95.1859 36.1674L97.4661 35.0064C97.7614 34.8555 97.8845 34.4987 97.7423 34.1968L95.8284 30.0828C95.6862 29.7754 95.3226 29.6409 95.0164 29.7864C94.7101 29.9291 94.5762 30.2968 94.7211 30.6042L96.3862 34.1803L94.6363 35.0723C94.3356 35.226 94.2153 35.5965 94.3684 35.8984C94.475 36.1097 94.6937 36.2415 94.9316 36.236L94.9234 36.2332Z"
      fill="#222433" />
    <path
      d="M92.0673 31.473C92.4784 31.404 92.7559 31.0136 92.6872 30.601C92.6185 30.1884 92.2296 29.9098 91.8185 29.9787C91.4075 30.0477 91.1299 30.4381 91.1986 30.8508C91.2674 31.2634 91.6563 31.542 92.0673 31.473Z"
      fill="#222433" />
    <path
      d="M97.3295 31.5636C97.7403 31.4936 98.0169 31.1025 97.9472 30.69C97.8775 30.2776 97.4879 30 97.077 30.0699C96.6661 30.1399 96.3895 30.531 96.4592 30.9435C96.529 31.3559 96.9186 31.6336 97.3295 31.5636Z"
      fill="#222433" />
    <path
      d="M93.3783 39.1013C93.9279 39.0876 94.4638 38.9119 94.9122 38.5908L95.243 38.363C95.5273 38.1764 95.6066 37.7977 95.4207 37.5122C95.2348 37.2268 94.8575 37.1472 94.5731 37.3338L94.554 37.3476L94.2122 37.5808C93.4959 38.0858 92.5089 37.9129 92.0058 37.1966C91.9757 37.1527 91.9456 37.106 91.921 37.0594L91.8773 36.977C91.7187 36.6779 91.3469 36.5654 91.0489 36.7246C90.7508 36.8837 90.636 37.257 90.7973 37.5561L90.8411 37.6357C90.8903 37.7263 90.945 37.8169 91.0078 37.902C91.5519 38.6759 92.4405 39.126 93.3838 39.1041L93.3783 39.1013ZM86.338 44.3955C86.677 44.3873 86.9449 44.1073 86.9367 43.767C86.9313 43.4733 86.718 43.2263 86.4309 43.1742C84.7577 42.8723 83.1965 42.1258 81.9114 41.0115C81.6599 40.7864 81.2717 40.8084 81.0475 41.0636C80.8233 41.3189 80.8451 41.7059 81.0994 41.9309L81.1103 41.9419C82.5622 43.1989 84.3257 44.0442 86.2122 44.3845C86.2532 44.3928 86.297 44.3955 86.338 44.3955ZM82.3489 30.371C82.6879 30.3627 82.9559 30.0801 82.9477 29.7425C82.9449 29.5888 82.8821 29.4433 82.7782 29.3335L80.1808 26.6082C79.9484 26.364 79.5601 26.353 79.3168 26.589C79.0734 26.8223 79.0625 27.212 79.2976 27.459L80.7823 29.0179L78.8465 28.8615C78.5102 28.834 78.2149 29.0865 78.1876 29.4269C78.1602 29.7644 78.4118 30.0608 78.7508 30.0883L82.2888 30.3737C82.3106 30.3737 82.3298 30.3737 82.3516 30.3737L82.3489 30.371Z"
      fill="#222433" />
    <path
      d="M118.839 57.0203C119.727 56.9324 120.132 55.8648 120.307 55.6837C123.055 52.5385 126.303 50.9494 125.816 48.8965C125.674 48.235 125.062 47.7877 124.392 47.8563C123.202 47.988 121.712 49.1243 119.394 50.5898C117.176 51.9786 114.144 51.5367 111.656 53.1999"
      fill="white" />
    <path
      d="M119.377 57.5171C120.074 57.2426 120.47 56.5784 120.681 56.2271C120.714 56.1722 120.741 56.1256 120.763 56.0927C121.638 55.1238 122.573 54.2126 123.56 53.3618C125.375 51.7398 126.811 50.4581 126.406 48.7565C126.196 47.7932 125.296 47.1428 124.317 47.247C123.232 47.3678 122.04 48.1418 120.394 49.2149C119.981 49.4838 119.541 49.772 119.062 50.0712C118.108 50.6667 116.946 50.9 115.713 51.147C114.242 51.4407 112.722 51.7453 111.311 52.6894C111.03 52.8788 110.953 53.2603 111.142 53.543C111.33 53.8257 111.71 53.9025 111.992 53.7131C113.2 52.9035 114.6 52.6236 115.954 52.3519C117.239 52.0939 118.567 51.8304 119.713 51.1113C120.197 50.8039 120.645 50.513 121.061 50.2441C122.567 49.2643 123.656 48.5562 124.454 48.4684C124.815 48.4327 125.143 48.6769 125.214 49.031C125.441 49.9806 124.473 50.9 122.748 52.4424C121.723 53.3234 120.755 54.2703 119.85 55.2748C119.768 55.3736 119.694 55.4806 119.631 55.5959C119.456 55.8868 119.166 56.3753 118.778 56.4138C118.442 56.4577 118.207 56.7651 118.25 57.1026C118.291 57.4237 118.576 57.657 118.898 57.6378C119.062 57.6213 119.224 57.5829 119.377 57.5225V57.5171ZM120.755 56.1009L120.744 56.1119L120.755 56.1009Z"
      fill="#222433" />
    <path
      d="M116.76 52.9886C115.683 52.4506 114.663 52.3463 114.291 52.3985C109.247 52.7717 106.914 58.4529 110.064 61.9659C111.716 63.8239 114.548 65.3279 118.122 63.5166C121.638 61.7463 123.15 60.2423 123.15 60.2423C129.37 55.5519 134.288 51.2266 134.95 48.9431C135.259 47.9139 134.1 46.9753 133.047 47.0714C130.854 47.2799 125.02 53.4771 121.988 55.0936"
      fill="white" />
    <path
      d="M117.611 64.4196C117.879 64.3125 118.142 64.1945 118.399 64.0628C121.723 62.3886 123.301 60.945 123.55 60.709C130.981 55.1046 134.902 51.3117 135.539 49.1133C135.711 48.5096 135.569 47.8591 135.161 47.3816C134.631 46.7393 133.822 46.3963 132.993 46.4567C131.651 46.5856 129.671 48.1884 126.571 50.8177C124.794 52.3244 122.954 53.8833 121.704 54.5503C121.409 54.7177 121.305 55.0909 121.469 55.3873C121.63 55.6728 121.986 55.7825 122.278 55.6371C123.645 54.9098 125.45 53.3783 127.361 51.7591C129.45 49.9889 132.05 47.7823 133.105 47.6835C133.529 47.6588 133.937 47.8371 134.213 48.161C134.366 48.3229 134.423 48.5507 134.366 48.7648C134.051 49.8461 132.135 52.7004 122.784 59.7511C122.762 59.7676 122.74 59.7868 122.721 59.806C122.708 59.8197 121.215 61.2743 117.849 62.9677C114.207 64.8148 111.697 62.8771 110.522 61.5598C109.239 60.1573 108.884 58.1346 109.617 56.3781C110.415 54.4405 112.25 53.1313 114.338 53.0161C114.352 53.0161 114.366 53.0161 114.379 53.0106C115.115 53.0133 115.839 53.1972 116.49 53.5403C116.794 53.6912 117.16 53.5677 117.31 53.2631C117.461 52.9584 117.338 52.5907 117.034 52.4397C115.85 51.8496 114.718 51.7261 114.229 51.7893C111.621 51.9896 109.42 53.5705 108.479 55.917C107.588 58.1099 108.028 60.6211 109.611 62.3776C110.675 63.5743 113.505 66.0471 117.611 64.4223V64.4196Z"
      fill="#222433" />
    <path
      d="M122.784 60.5936C128.123 54.9097 131.383 50.9576 131.659 48.6028C131.763 47.6751 131.098 46.8353 130.171 46.731C130.051 46.7173 129.931 46.7173 129.81 46.731C128.572 46.8819 123.448 53.1202 120.553 54.6462"
      fill="white" />
    <path
      d="M123.008 61.1673C123.092 61.1343 123.166 61.0822 123.226 61.0163C128.58 55.3187 131.962 51.2678 132.265 48.6742C132.41 47.409 131.503 46.2645 130.239 46.119C130.073 46.0998 129.906 46.0998 129.742 46.119C128.979 46.2123 127.82 47.3239 125.665 49.4454C123.814 51.2705 121.714 53.3371 120.268 54.1001C119.967 54.2538 119.847 54.6243 120 54.9262C120.153 55.2281 120.522 55.3489 120.823 55.1952L120.837 55.1869C122.444 54.3416 124.613 52.2064 126.524 50.3236C127.822 49.0447 129.441 47.4584 129.898 47.3376C130.212 47.3101 130.524 47.4254 130.742 47.6505C130.975 47.881 131.087 48.2049 131.051 48.5315C130.773 50.911 126.699 55.5327 122.341 60.1737C122.108 60.4207 122.122 60.8105 122.368 61.0438C122.54 61.2057 122.792 61.2551 123.013 61.1673H123.008Z"
      fill="#222433" />
    <path
      d="M228.722 31.2107L225.975 45.3588L239.375 46.3934L242.437 41.0224L242.125 32.0725L241.267 30.692L228.725 31.2107H228.722Z"
      fill="white" />
    <path
      d="M220.236 161.246C220.17 163.964 218.88 166.239 215.509 167.575L210.295 168.799C206.492 169.774 203.949 173.369 204.282 177.296H224.898L246.661 171.36L240.362 149.217M162.959 155.23C161.045 157.451 158.213 158.886 155.074 159.24C152.848 159.49 148.4 160.206 146.267 160.892C143.796 161.688 139.107 164.029 138.617 167.94L158.781 172.255L170.363 174.739L180.919 177.014L183.856 163.154"
      fill="#5A38FD" />
    <path
      d="M197.516 129.199L184.887 163.398L159.115 153.798L175.307 109.951C176.767 106.005 179.936 102.942 183.916 101.633"
      fill="white" />
    <path
      d="M184.886 163.914C184.826 163.914 184.766 163.903 184.709 163.881L158.937 154.281C158.672 154.182 158.535 153.883 158.634 153.617L174.825 109.77C176.345 105.651 179.601 102.505 183.757 101.141C184.025 101.045 184.321 101.185 184.416 101.454C184.512 101.723 184.372 102.02 184.105 102.116C184.096 102.118 184.088 102.121 184.077 102.124C180.222 103.392 177.201 106.309 175.79 110.13L159.779 153.49L184.583 162.731L197.031 129.017C197.141 128.754 197.442 128.628 197.707 128.737C197.956 128.842 198.084 129.119 197.999 129.377L185.37 163.576C185.297 163.78 185.102 163.914 184.886 163.914Z"
      fill="#222433" />
    <path
      d="M258.565 62.8223L258.582 62.8332C258.598 62.8441 258.612 62.855 258.628 62.8687L258.568 62.8223H258.565Z"
      fill="#82B1FF" />
    <path
      d="M263.153 75.8698C263.875 71.3385 261.819 65.2951 258.582 62.8333C256.87 61.4747 254.831 60.602 252.671 60.3083C251.985 60.2122 251.29 60.1766 250.598 60.1985L247.596 60.2946C247.596 60.2946 247.596 67.0324 240.98 67.3151C234.475 67.5923 233.994 60.7255 233.994 60.7255L231.47 60.8051C227.848 60.9231 224.641 62.611 222.481 65.1963L214.579 75.9054L232.351 85.7967L239.213 77.2585C239.213 77.2585 244.408 72.1235 251.123 76.7782C257.759 81.378 254.183 88.8651 254.183 88.8651L260.695 88.8157L263.039 76.4818C263.082 76.2869 263.121 76.0866 263.153 75.8835V75.8698Z"
      fill="#82B1FF" />
    <path
      d="M222.35 80.6342C222.065 80.6342 221.836 80.4037 221.833 80.1182V75.2824C221.833 74.997 222.063 74.7637 222.35 74.7637C222.637 74.7637 222.867 74.9942 222.867 75.2824V80.1182C222.867 80.4037 222.637 80.637 222.35 80.637V80.6342Z"
      fill="#222433" />
    <path
      d="M233.862 56.9324L233.991 60.665C234.092 64.4387 237.22 67.4165 240.979 67.315C244.67 67.2134 247.609 64.178 247.601 60.4701L247.445 46.495"
      fill="white" />
    <path
      d="M240.791 67.8338C236.843 67.8338 233.582 64.6639 233.475 60.6788L233.347 56.949C233.336 56.6636 233.56 56.4248 233.844 56.4138C234.128 56.4028 234.366 56.6251 234.377 56.9078C234.377 56.9078 234.377 56.9078 234.377 56.9106L234.506 60.6431C234.599 64.1287 237.497 66.8897 240.964 66.7936C244.401 66.7003 247.091 63.9201 247.085 60.4675L246.93 46.4978C246.927 46.2124 247.154 45.9764 247.438 45.9736C247.722 45.9736 247.955 46.1987 247.96 46.4869L248.116 60.462C248.122 64.4882 244.994 67.7213 240.991 67.831C240.925 67.831 240.857 67.831 240.791 67.831V67.8338ZM225.899 46.9919C225.614 46.9919 225.385 46.7613 225.385 46.4731C225.385 44.8127 225.737 43.2099 226.432 41.7141C226.555 41.4561 226.864 41.3491 227.121 41.4726C227.372 41.5934 227.482 41.8953 227.367 42.1505C226.738 43.5036 226.416 44.9801 226.418 46.4731C226.418 46.7586 226.186 46.9891 225.902 46.9891L225.899 46.9919ZM227.777 35.3962H227.758C227.474 35.3853 227.252 35.1465 227.26 34.861C227.312 33.3076 227.684 31.7844 228.354 30.3847C228.477 30.1267 228.783 30.017 229.04 30.1405C229.297 30.264 229.407 30.5714 229.284 30.8293C228.677 32.1001 228.338 33.486 228.291 34.894C228.28 35.1739 228.053 35.3935 227.777 35.3935V35.3962Z"
      fill="#222433" />
    <path
      d="M236.859 41.9337C238.798 41.9337 240.37 40.3547 240.37 38.407C240.37 36.4592 238.798 34.8802 236.859 34.8802C234.92 34.8802 233.349 36.4592 233.349 38.407C233.349 40.3547 234.92 41.9337 236.859 41.9337Z"
      fill="white" />
    <path
      d="M236.859 42.4523C234.639 42.4523 232.832 40.6382 232.832 38.4069C232.832 36.1756 234.639 34.3615 236.859 34.3615C239.079 34.3615 240.887 36.1756 240.887 38.4069C240.887 40.6382 239.079 42.4523 236.859 42.4523ZM236.859 35.3989C235.208 35.3989 233.863 36.7492 233.863 38.4069C233.863 40.0646 235.208 41.4149 236.859 41.4149C238.511 41.4149 239.856 40.0646 239.856 38.4069C239.856 36.7492 238.511 35.3989 236.859 35.3989Z"
      fill="#222433" />
    <path
      d="M227.796 41.9337C229.735 41.9337 231.306 40.3547 231.306 38.407C231.306 36.4592 229.735 34.8802 227.796 34.8802C225.857 34.8802 224.285 36.4592 224.285 38.407C224.285 40.3547 225.857 41.9337 227.796 41.9337Z"
      fill="white" />
    <path
      d="M227.796 42.4523C225.576 42.4523 223.769 40.6382 223.769 38.4069C223.769 36.1756 225.576 34.3615 227.796 34.3615C230.016 34.3615 231.823 36.1756 231.823 38.4069C231.823 40.6382 230.016 42.4523 227.796 42.4523ZM227.796 35.3989C226.144 35.3989 224.799 36.7492 224.799 38.4069C224.799 40.0646 226.144 41.4149 227.796 41.4149C229.447 41.4149 230.792 40.0646 230.792 38.4069C230.792 36.7492 229.447 35.3989 227.796 35.3989Z"
      fill="#222433" />
    <path
      d="M253.986 88.8157H260.179L259.137 100.049C258.437 107.591 252.135 113.357 244.594 113.357H239.779L219.383 111.123L241.004 148.224L217.453 162.462L185.852 109.74C181.937 103.208 184.036 94.7274 190.538 90.7945C192.679 89.5018 195.129 88.8157 197.628 88.8157L206.56 88.8404"
      fill="white" />
    <path
      d="M217.453 162.978C217.273 162.978 217.106 162.882 217.01 162.729L185.409 110.006C181.355 103.241 183.536 94.4228 190.271 90.3499C192.491 89.0078 195.033 88.297 197.625 88.297L208.584 88.3217C208.868 88.3327 209.089 88.5714 209.081 88.8569C209.073 89.1286 208.854 89.3481 208.584 89.3564H206.558L197.625 89.3317C195.222 89.3317 192.862 89.9903 190.804 91.2336C184.554 95.0128 182.53 103.192 186.292 109.468L217.628 161.749L240.302 148.04L218.938 111.378C218.839 111.208 218.845 111 218.949 110.835C219.055 110.67 219.244 110.58 219.438 110.602L239.804 112.833H244.592C251.911 112.833 257.943 107.314 258.623 99.9941L259.613 89.3289H253.986C253.702 89.3289 253.472 89.0984 253.472 88.8102C253.472 88.522 253.702 88.2915 253.986 88.2915H260.179C260.463 88.2915 260.696 88.5248 260.696 88.8102C260.696 88.8267 260.696 88.8431 260.696 88.8569L259.654 100.09C259.304 103.867 257.573 107.352 254.782 109.907C251.99 112.463 248.373 113.868 244.597 113.868H239.783C239.763 113.868 239.744 113.868 239.728 113.865L220.351 111.741L241.456 147.955C241.598 148.199 241.519 148.515 241.278 148.66L217.727 162.899C217.644 162.948 217.554 162.973 217.461 162.973L217.453 162.978ZM238.435 78.5182C238.15 78.5182 237.921 78.2877 237.921 78.0023C237.921 77.887 237.959 77.7717 238.03 77.6812L243.05 71.248C243.225 71.0229 243.55 70.9845 243.774 71.1602C243.999 71.3358 244.037 71.6624 243.862 71.8875L238.842 78.3206C238.744 78.4469 238.596 78.5182 238.437 78.5182H238.435ZM243.479 37.7456H240.171C239.886 37.7456 239.657 37.515 239.657 37.2268C239.657 36.9387 239.886 36.7081 240.171 36.7081H243.479C243.763 36.7081 243.993 36.9387 243.993 37.2268C243.993 37.515 243.763 37.7456 243.479 37.7456ZM230.67 43.4542C230.385 43.4542 230.153 43.2209 230.156 42.9355C230.156 42.9108 230.156 42.8861 230.161 42.8614L230.73 39.03C230.776 38.7473 231.044 38.5579 231.323 38.6046C231.597 38.6513 231.783 38.9065 231.75 39.1809L231.274 42.3838L233.691 42.2438C233.973 42.2274 234.219 42.4442 234.235 42.7296C234.251 43.015 234.035 43.2593 233.751 43.2758L230.703 43.4514C230.703 43.4514 230.683 43.4514 230.673 43.4514L230.67 43.4542ZM233.549 37.7456H231.31C231.025 37.7456 230.796 37.515 230.796 37.2268C230.796 36.9387 231.025 36.7081 231.31 36.7081H233.549C233.833 36.7081 234.063 36.9387 234.063 37.2268C234.063 37.515 233.833 37.7456 233.549 37.7456Z"
      fill="#222433" />
    <path
      d="M249.297 34.4493V27.5743C249.297 24.1546 246.538 21.3799 243.131 21.3771H230.984C229.759 21.3689 228.758 22.3624 228.75 23.592V30.7414L240.056 31.0516C241.264 31.0818 242.221 32.089 242.196 33.3048L242.082 38.7774C242.068 39.4553 242.281 40.1167 242.689 40.6519"
      fill="white" />
    <path
      d="M242.689 41.1679C242.533 41.1679 242.38 41.0966 242.279 40.9648C241.8 40.3336 241.549 39.5569 241.565 38.7637L241.68 33.2911C241.699 32.3635 240.964 31.5895 240.042 31.5648L228.737 31.2547C228.458 31.2465 228.236 31.0187 228.236 30.736V23.6002C228.245 22.0688 229.48 20.8365 230.99 20.8529H243.135C246.82 20.8529 249.817 23.8664 249.817 27.5661V34.4411C249.817 34.7265 249.587 34.9598 249.3 34.9598C249.013 34.9598 248.783 34.7293 248.783 34.4411V27.5661C248.783 24.4373 246.249 21.8904 243.132 21.8876H230.984C230.038 21.8767 229.273 22.6451 229.267 23.5892V30.231L240.07 30.5274C241.557 30.5658 242.744 31.8146 242.711 33.3103L242.596 38.7829C242.585 39.3428 242.763 39.889 243.099 40.3336C243.271 40.5614 243.227 40.8852 243.003 41.0581C242.913 41.1268 242.804 41.1652 242.692 41.1652L242.689 41.1679Z"
      fill="#222433" />
    <path
      d="M242.688 40.5971L239.421 46.0861C237.617 44.4367 232.963 44.1924 231.014 44.3379C228.49 44.5245 225.936 45.6635 225.936 45.6635C225.917 45.916 225.909 46.1685 225.906 46.4209C225.884 52.393 230.688 57.2536 236.638 57.2755C242.584 57.2975 247.424 52.4726 247.446 46.4978V46.4072C247.815 46.4786 248.195 46.517 248.583 46.517C251.839 46.517 254.478 43.8658 254.478 40.5971C254.478 37.3283 251.839 34.6771 248.583 34.6771C245.327 34.6771 242.688 37.3283 242.688 40.5971Z"
      fill="white" />
    <path
      d="M236.679 57.7888H236.638C233.625 57.7778 230.795 56.5895 228.671 54.4405C226.547 52.2915 225.385 49.4427 225.396 46.4155C225.396 46.152 225.407 45.8858 225.426 45.6223C225.439 45.433 225.557 45.2655 225.729 45.1887C225.836 45.142 228.395 44.0086 230.979 43.8192C232.48 43.7067 236.969 43.778 239.277 45.3204L242.175 40.4516C242.251 36.9688 245.098 34.1584 248.584 34.1584C252.07 34.1584 254.992 37.0457 254.992 40.5971C254.992 44.1485 252.116 47.0358 248.584 47.0358C248.37 47.0358 248.16 47.0248 247.949 47.0056C247.815 49.8434 246.648 52.4891 244.627 54.5009C242.497 56.6224 239.676 57.7916 236.677 57.7916L236.679 57.7888ZM226.435 46.0148C226.429 46.1493 226.426 46.2865 226.426 46.421C226.415 49.171 227.474 51.7618 229.404 53.7132C231.334 55.6646 233.904 56.7459 236.644 56.7541H236.682C239.408 56.7541 241.97 55.692 243.906 53.7626C245.849 51.825 246.924 49.2424 246.935 46.4923V46.4045C246.935 46.1191 247.167 45.8858 247.452 45.8858C247.484 45.8858 247.517 45.8885 247.55 45.8968C247.889 45.9627 248.239 45.9983 248.589 45.9983C251.556 45.9983 253.967 43.5749 253.967 40.5971C253.967 37.6193 251.553 35.1959 248.589 35.1959C245.625 35.1959 243.211 37.6193 243.211 40.5971C243.211 40.6904 243.186 40.7837 243.137 40.8633L239.87 46.3524C239.722 46.5994 239.405 46.679 239.162 46.5308C239.132 46.5143 239.104 46.4923 239.08 46.4704C237.407 44.9417 232.871 44.7194 231.058 44.8539C229.136 44.9966 227.162 45.7266 226.44 46.0175L226.435 46.0148Z"
      fill="#222433" />
    <path
      d="M232.592 50.9659C231.012 50.9659 229.371 49.7061 229.256 46.8875C229.245 46.6021 229.467 46.3606 229.751 46.3496C229.751 46.3496 229.751 46.3496 229.754 46.3496L235.709 46.1465C235.993 46.1355 236.231 46.3606 236.242 46.646C236.242 46.657 236.242 46.6707 236.242 46.6817C236.141 49.4893 234.333 50.9631 232.6 50.9659H232.592ZM230.328 47.3651C230.571 49.2478 231.665 49.9312 232.592 49.9312H232.597C233.727 49.9284 234.899 48.9926 235.162 47.2004L230.331 47.3651H230.328ZM249.442 42.4194C249.385 42.4194 249.325 42.4084 249.267 42.3892L245.489 41.0197C245.221 40.9237 245.081 40.6272 245.18 40.3583C245.229 40.2183 245.338 40.1058 245.475 40.0509L250.615 38.0117C250.88 37.9074 251.178 38.0364 251.282 38.3026C251.386 38.5688 251.258 38.868 250.992 38.975L247.121 40.5092L249.614 41.4122C249.882 41.5082 250.022 41.8046 249.926 42.0736C249.852 42.2794 249.658 42.4167 249.439 42.4167L249.442 42.4194Z"
      fill="#222433" />
    <path
      d="M235.829 39.6365C236.456 39.6365 236.964 39.1265 236.964 38.4975C236.964 37.8685 236.456 37.3585 235.829 37.3585C235.202 37.3585 234.694 37.8685 234.694 38.4975C234.694 39.1265 235.202 39.6365 235.829 39.6365Z"
      fill="#222433" />
    <path
      d="M227.323 39.6008C227.95 39.6008 228.458 39.0909 228.458 38.4619C228.458 37.8328 227.95 37.3229 227.323 37.3229C226.696 37.3229 226.188 37.8328 226.188 38.4619C226.188 39.0909 226.696 39.6008 227.323 39.6008Z"
      fill="#222433" />
    <path
      d="M252.422 90.7148C252.332 90.8246 240.198 105.003 240.198 105.003C237.007 108.727 231.408 109.15 227.698 105.944C227.613 105.873 216.953 96.4701 210.883 91.1128C210.883 91.1128 210.866 91.0963 210.836 91.0716C210.765 91.0085 210.689 90.9426 210.618 90.8795C210.579 90.8466 210.536 90.8082 210.492 90.7697C210.432 90.7148 210.369 90.6627 210.311 90.6105C208.578 89.0983 203.462 84.6851 202.557 84.4765C201.464 84.2268 192.545 85.5167 188.881 83.1235C185.874 81.1611 187.853 78.455 187.853 78.455C185.114 75.7544 187.979 73.6906 187.979 73.6906C184.98 72.5982 185.786 69.582 187.862 69.0523C189.322 68.6818 195.364 69.3954 195.364 69.3954C195.364 69.3954 193.357 64.919 193.368 61.3347C193.385 57.6186 196.548 56.1366 197.283 59.5645C197.674 61.3978 198.732 63.1653 199.905 64.6556C201.639 66.8594 203.81 68.679 206.235 70.076L210.484 72.5214C211.875 73.1279 213.683 74.1599 217.196 76.4351C221.201 79.0287 231.963 85.5167 231.963 85.5167L237.822 78.6746C241.136 74.6264 247.091 74.0391 251.124 77.3655C255.154 80.6946 255.741 86.6749 252.428 90.7231L252.422 90.7148Z"
      fill="white" />
    <path
      d="M233.472 108.656C231.295 108.656 229.108 107.904 227.333 106.37C227.246 106.295 216.227 96.5771 210.513 91.5354C210.497 91.5217 210.48 91.508 210.464 91.4942L210.243 91.2994C210.21 91.2719 210.163 91.2308 210.117 91.1869L209.939 91.0304C205.398 87.0701 202.893 85.1571 202.426 85.0226C202.223 84.976 201.31 85.0199 200.43 85.0583C197.072 85.2148 191.454 85.4755 188.575 83.5927C187.517 82.9039 186.89 82.0448 186.707 81.0431C186.516 79.9837 186.885 79.0451 187.153 78.5318C186.393 77.6701 186.046 76.7726 186.114 75.8559C186.18 74.9942 186.612 74.3053 187.003 73.8497C185.966 73.2376 185.398 72.2963 185.45 71.2204C185.512 69.9497 186.445 68.8327 187.719 68.5061C188.922 68.2014 192.668 68.5418 194.48 68.7311C193.887 67.2189 192.796 64.06 192.804 61.3292C192.815 58.7466 194.177 57.2124 195.448 57.0806C196.331 56.9873 197.42 57.5609 197.821 59.4409C198.144 60.9559 198.992 62.5916 200.337 64.3042C201.985 66.401 204.061 68.1767 206.508 69.5874L210.729 72.0163C212.227 72.675 214.128 73.7838 217.491 75.9602C221.004 78.2354 229.846 83.5845 231.842 84.7894L237.392 78.304C240.886 74.0336 247.205 73.4106 251.47 76.9263C253.534 78.6306 254.817 81.0431 255.076 83.7135C255.339 86.3839 254.546 88.9995 252.851 91.0716C252.692 91.2637 241.857 103.921 240.618 105.368C238.757 107.539 236.121 108.656 233.469 108.656H233.472ZM211.191 90.6434C211.235 90.6791 211.257 90.7011 211.257 90.7011C217.206 95.9514 227.888 105.373 228.058 105.519C231.53 108.521 236.785 108.126 239.774 104.638C239.894 104.498 251.782 90.6078 251.99 90.3607C253.496 88.5192 254.199 86.1973 253.966 83.8233C253.734 81.4493 252.597 79.3085 250.762 77.7936C246.973 74.6703 241.359 75.2219 238.245 79.0259L232.378 85.8789C232.2 86.0848 231.902 86.1342 231.667 85.9942C231.56 85.9283 220.851 79.4705 216.884 76.9016C213.554 74.7471 211.694 73.6603 210.251 73.0318C210.232 73.0236 210.212 73.0153 210.196 73.0044L205.947 70.559C203.377 69.0797 201.193 67.2079 199.456 64.9986C198.005 63.1515 197.086 61.3593 196.728 59.677C196.517 58.6944 196.083 58.14 195.56 58.1949C194.904 58.2635 193.925 59.3092 193.917 61.3319C193.906 64.7571 195.845 69.1154 195.864 69.1593C195.99 69.442 195.864 69.7741 195.585 69.9003C195.492 69.9415 195.391 69.9579 195.29 69.947C193.638 69.7521 189.105 69.3075 187.99 69.5902C187.199 69.7933 186.598 70.4986 186.56 71.2726C186.519 72.0877 187.104 72.7738 188.159 73.1581C188.449 73.2624 188.599 73.5862 188.493 73.8771C188.454 73.9842 188.386 74.0747 188.293 74.1433C188.285 74.1488 187.298 74.8844 187.219 75.9465C187.169 76.6299 187.511 77.3407 188.233 78.0516C188.432 78.2464 188.457 78.5593 188.293 78.7843C188.288 78.7926 187.599 79.7669 187.798 80.8482C187.924 81.5316 188.389 82.1381 189.173 82.6514C191.752 84.3365 197.359 84.0758 200.37 83.9386C201.685 83.8782 202.333 83.8507 202.669 83.9303C203.41 84.1005 206.103 86.2055 210.666 90.1851L210.852 90.3498C210.893 90.3882 210.931 90.4211 210.967 90.4513L211.183 90.6407L211.191 90.6434Z"
      fill="#222433" />
    <path
      d="M191.725 74.5798C191.725 74.5798 191.697 74.5798 191.686 74.5798L187.566 74.2888C187.257 74.2669 187.027 73.9979 187.049 73.6905C187.071 73.3831 187.342 73.1499 187.645 73.1691L191.766 73.46C192.072 73.482 192.304 73.7509 192.282 74.0583C192.261 74.352 192.02 74.5798 191.727 74.5798H191.725ZM191.725 79.0808H191.716L187.839 79.0149C187.531 79.0149 187.284 78.7597 187.287 78.4495C187.287 78.1394 187.541 77.8897 187.85 77.8924H187.859L191.736 77.9583C192.045 77.9583 192.291 78.2135 192.288 78.5236C192.288 78.8338 192.034 79.0835 191.725 79.0808Z"
      fill="#222433" />
    <path
      d="M160.348 187.451C160.001 187.451 159.706 187.193 159.659 186.845L146.623 93.3084C146.574 92.9241 146.845 92.5701 147.227 92.5234C147.602 92.4768 147.947 92.7375 148.004 93.1135L161.04 186.65C161.095 187.034 160.827 187.391 160.447 187.443C160.414 187.448 160.381 187.448 160.348 187.448V187.451ZM63.1972 187.451C62.8117 187.451 62.5 187.138 62.5 186.748C62.5 186.716 62.5 186.683 62.5055 186.65L75.5417 93.1135C75.5937 92.7293 75.9436 92.463 76.3237 92.5152C76.3237 92.5152 76.3264 92.5152 76.3292 92.5152C76.7092 92.5701 76.9771 92.9241 76.9224 93.3084L63.8862 186.845C63.837 187.19 63.5444 187.448 63.1972 187.451Z"
      fill="#222433" />
    <path
      d="M174.013 93.6213H46.6308C46.2453 93.6213 45.9336 93.3056 45.9336 92.9187C45.9336 92.5317 46.2453 92.2161 46.6308 92.2161H174.013C174.399 92.2161 174.71 92.5317 174.71 92.9187C174.71 93.3056 174.399 93.6213 174.013 93.6213Z"
      fill="#222433" />
    <path
      d="M57.955 41.1184L81.6543 90.1549C82.2887 91.4695 83.8662 92.0184 85.1786 91.3817C86.491 90.7449 87.0405 89.1668 86.4062 87.8522L62.7069 38.8158C62.0726 37.5011 60.495 36.9522 59.1827 37.589C57.8703 38.2229 57.3207 39.8038 57.955 41.1184Z"
      fill="#82B1FF" />
    <path
      d="M84.5691 92.216H138.989C140.446 92.216 141.627 91.0303 141.625 89.573C141.625 88.1156 140.443 86.9355 138.989 86.9327H84.5691C83.1118 86.9327 81.9307 88.1156 81.9307 89.5757C81.9307 91.0358 83.1118 92.216 84.5691 92.2187V92.216Z"
      fill="#82B1FF" />
    <path
      d="M85.0915 90.7943C85.7649 90.7943 86.3109 90.2475 86.3109 89.573C86.3109 88.8985 85.7649 88.3517 85.0915 88.3517C84.418 88.3517 83.8721 88.8985 83.8721 89.573C83.8721 90.2475 84.418 90.7943 85.0915 90.7943Z"
      fill="#5A38FD" />
    <path
      d="M289.269 136.172C277.879 136.172 277.682 145.273 277.682 146.865V147.617H271.314C267.965 147.617 265.253 150.342 265.253 153.702V170.616C265.253 173.978 267.968 176.701 271.314 176.701H307.222C310.571 176.701 313.283 173.975 313.283 170.616V153.702C313.283 150.34 310.568 147.617 307.222 147.617H300.87V146.865C300.898 145.869 300.094 136.172 289.267 136.172H289.269ZM296.241 147.617H282.297C282.634 144.063 285.319 141.129 289.269 141.129C292.928 141.129 295.867 143.78 296.241 147.617Z"
      fill="white" />
    <path
      d="M307.224 177.296H271.317C267.648 177.296 264.665 174.299 264.665 170.619V153.704C264.665 150.021 267.651 147.027 271.317 147.027H277.094V146.868C277.094 144.219 277.972 135.582 289.272 135.582C293.026 135.582 296.023 136.708 298.174 138.925C301.439 142.29 301.469 146.838 301.466 146.884V147.03H307.224C310.893 147.03 313.876 150.027 313.876 153.707V170.622C313.876 174.305 310.891 177.299 307.224 177.299V177.296ZM271.317 148.213C268.301 148.213 265.846 150.677 265.846 153.704V170.619C265.846 173.646 268.301 176.111 271.317 176.111H307.224C310.24 176.111 312.695 173.646 312.695 170.619V153.704C312.695 150.677 310.24 148.213 307.224 148.213H300.873C300.548 148.213 300.282 147.946 300.282 147.62V146.868C300.307 146.02 299.869 142.375 297.327 139.754C295.405 137.772 292.695 136.768 289.272 136.768C279.347 136.768 278.275 143.832 278.275 146.868V147.62C278.275 147.946 278.01 148.213 277.685 148.213H271.317ZM296.244 148.213H282.3C281.975 148.213 281.709 147.946 281.709 147.62C281.709 147.601 281.709 147.581 281.709 147.562C282.095 143.492 285.275 140.536 289.269 140.536C293.264 140.536 296.433 143.489 296.829 147.559C296.862 147.886 296.624 148.174 296.299 148.207C296.28 148.207 296.26 148.21 296.241 148.21L296.244 148.213ZM282.978 147.027H295.566C294.981 143.873 292.476 141.725 289.272 141.725C286.068 141.725 283.552 143.873 282.978 147.027Z"
      fill="#222433" />
    <path
      d="M17.4467 128.043C19.4037 128.043 20.9901 126.432 20.9901 124.445C20.9901 122.458 19.4037 120.847 17.4467 120.847C15.4898 120.847 13.9033 122.458 13.9033 124.445C13.9033 126.432 15.4898 128.043 17.4467 128.043Z"
      fill="white" />
    <path
      d="M17.4467 128.556C15.2102 128.556 13.3975 126.715 13.3975 124.445C13.3975 122.175 15.2102 120.334 17.4467 120.334C19.6832 120.334 21.4959 122.175 21.4959 124.445C21.4959 126.715 19.6805 128.554 17.4467 128.556ZM17.4467 121.363C15.7679 121.363 14.4091 122.743 14.4091 124.445C14.4091 126.147 15.7679 127.527 17.4467 127.527C19.1254 127.527 20.4843 126.147 20.4843 124.445C20.4843 122.743 19.1227 121.363 17.4467 121.363Z"
      fill="#222433" />
    <path
      d="M27.555 158.085C27.3336 158.085 27.1367 157.936 27.0711 157.722L16.9631 124.599C16.881 124.327 17.0287 124.039 17.2966 123.956C17.5646 123.871 17.8462 124.025 17.9309 124.294L28.039 157.418C28.121 157.689 27.9733 157.978 27.7054 158.06C27.6562 158.076 27.607 158.082 27.555 158.082V158.085Z"
      fill="#222433" />
    <path
      d="M27.5546 158.085C27.2758 158.085 27.0488 157.854 27.0488 157.571V99.4231C27.0488 99.1405 27.2758 98.9099 27.5546 98.9099C27.8335 98.9099 28.0604 99.1405 28.0604 99.4231V157.571C28.0604 157.854 27.8335 158.085 27.5546 158.085Z"
      fill="#222433" />
    <path
      d="M34.9123 86.3894C33.969 86.1863 33.0421 86.7956 32.8425 87.7534C32.8425 87.7617 32.8398 87.7699 32.8371 87.7754C33.0367 86.8121 32.427 85.8652 31.4782 85.6649C30.5295 85.4618 29.5971 86.0793 29.3976 87.0454C29.3976 87.0508 29.3976 87.0536 29.3976 87.0591L27.5739 95.9321L25.7502 87.0591C25.5507 86.0958 24.6211 85.4782 23.6696 85.6786C22.7236 85.8789 22.1166 86.8176 22.308 87.7781C22.1166 86.8121 21.1897 86.1891 20.2383 86.3839C19.2868 86.5788 18.6716 87.5202 18.863 88.4862C18.863 88.4917 18.863 88.4945 18.863 88.5L19.0981 89.6636L20.7003 97.5432C21.2581 100.329 23.3825 102.516 26.1166 103.126V103.142C26.606 103.244 27.1036 103.296 27.6012 103.296C28.0988 103.296 28.5965 103.244 29.0859 103.142V103.126C31.82 102.516 33.9444 100.326 34.5021 97.5432L36.1043 89.6636L36.3395 88.5C36.4844 87.5229 35.8555 86.6007 34.9041 86.3922L34.9123 86.3894Z"
      fill="#82B1FF" />
    <path
      d="M23.639 95.0374C23.3984 95.0374 23.1907 94.8645 23.1442 94.6257L21.7443 87.7397C21.6869 87.4625 21.8619 87.188 22.1353 87.1304C22.4087 87.07 22.6766 87.2484 22.7368 87.5256C22.7368 87.5256 22.7368 87.5284 22.7368 87.5311L24.1367 94.4171C24.1941 94.6943 24.0164 94.966 23.7429 95.0237C23.7101 95.0319 23.6746 95.0346 23.639 95.0346V95.0374ZM31.4504 95.0374C31.4149 95.0374 31.3821 95.0346 31.3465 95.0264C31.0731 94.9688 30.8954 94.6971 30.9528 94.4199L32.3527 87.5338C32.4073 87.2567 32.6753 87.0755 32.9487 87.1304C33.2221 87.1853 33.3998 87.457 33.3451 87.7342C33.3451 87.7342 33.3451 87.7369 33.3451 87.7397L31.9453 94.6257C31.8961 94.8645 31.691 95.0346 31.4504 95.0346V95.0374Z"
      fill="#222433" />
    <path
      d="M26.1546 151.297C26.3788 151.339 26.6003 151.207 26.6686 150.993L36.9817 118.95C37.0582 118.712 36.927 118.456 36.6864 118.38C36.4458 118.303 36.1888 118.432 36.1122 118.671L25.7992 150.713C25.7226 150.952 25.8538 151.207 26.0944 151.284C26.1136 151.289 26.1327 151.295 26.1546 151.297Z"
      fill="#222433" />
    <path
      d="M40.5659 119.543C40.9618 117.341 39.4829 115.231 37.2628 114.828C35.0427 114.426 32.9221 115.885 32.5263 118.087C32.1305 120.288 33.6093 122.399 35.8294 122.801C38.0495 123.204 40.1701 121.745 40.5659 119.543Z"
      fill="#5A38FD" />
    <path
      d="M33.9855 153.962C31.7244 152.129 30.9479 150.567 30.9643 149.258C31.1119 146.204 35.5631 143.843 35.5631 138.876H18.0237C18.0237 143.761 22.319 146.124 22.6143 149.105C22.7018 150.455 21.9554 152.049 19.6013 153.957C13.898 158.005 12.4926 166 16.4626 171.816C20.4325 177.631 28.2739 179.064 33.9773 175.016C39.6807 170.967 41.086 162.973 37.1161 157.157C36.2658 155.911 35.2049 154.83 33.9855 153.962Z"
      fill="#82B1FF" />
    <path
      d="M326.316 177.296H0.683528C0.306221 177.296 0 177.049 0 176.747C0 176.445 0.306221 176.198 0.683528 176.198H326.316C326.694 176.198 327 176.445 327 176.747C327 177.049 326.694 177.296 326.316 177.296Z"
      fill="#222433" />
    <path
      d="M126.477 43.1164C136.221 43.1164 144.12 35.1872 144.12 25.406C144.12 15.6248 136.221 7.69556 126.477 7.69556C116.733 7.69556 108.834 15.6248 108.834 25.406C108.834 35.1872 116.733 43.1164 126.477 43.1164Z"
      fill="#82B1FF" />
    <path
      d="M126.477 43.9426C116.279 43.9426 108.014 35.6459 108.014 25.4088C108.014 15.1717 116.279 6.875 126.477 6.875C136.675 6.875 144.941 15.1717 144.941 25.4088C144.93 35.6404 136.67 43.9316 126.477 43.9426ZM126.477 8.51897C117.184 8.51897 109.651 16.0801 109.651 25.4088C109.651 34.7374 117.184 42.2986 126.477 42.2986C135.77 42.2986 143.303 34.7374 143.303 25.4088C143.292 16.0856 135.765 8.52995 126.477 8.51897Z"
      fill="white" />
    <path
      d="M131.202 25.0246C132.99 24.4757 134.212 22.818 134.207 20.9407C134.253 19.4477 133.37 18.081 131.995 17.5128L132.624 14.2221H130.029L129.509 16.909C129.291 16.909 129.072 16.8816 128.881 16.8816H125.766L126.259 14.1947H123.664L123.172 16.8816H120.741L120.003 19.3764H122.242L119.784 30.9198H117.873L117.135 33.4146H120.003L119.538 35.9094H122.133L122.598 33.4146H126.395L125.93 35.9094H128.525L129.045 33.1676C131.12 32.7285 132.541 31.6334 133.113 29.0838C133.523 27.4453 132.722 25.7464 131.202 25.0273V25.0246ZM130.327 28.9191C129.971 30.5631 128.443 30.9198 126.259 30.9198H122.516L123.472 26.342H127.243C129.4 26.342 130.767 26.9458 130.33 28.9191H130.327ZM127.431 23.8472H124.017L124.973 19.4066H128.361C130.026 19.4066 131.503 19.7633 131.503 21.2152C131.503 22.8317 130.382 23.8472 127.434 23.8472H127.431Z"
      fill="#5A38FD" />
  </g>
  <defs>
    <clipPath id="clip0_282_1203">
      <rect width="327" height="188" fill="white" />
    </clipPath>
  </defs>
</svg>