<svg width="105" height="104" viewBox="0 0 105 104" fill="none" xmlns="http://www.w3.org/2000/svg">
<mask id="mask0_825_1046" style="mask-type:alpha" maskUnits="userSpaceOnUse" x="0" y="0" width="105" height="104">
<rect x="0.5" width="104" height="104" fill="#D9D9D9"/>
</mask>
<g mask="url(#mask0_825_1046)">
<path d="M52.422 92.9915C47.3757 92.9915 42.616 92.0359 38.1429 90.1249C33.6698 88.2137 29.7721 85.604 26.4499 82.2957C23.1277 78.9874 20.5 75.0977 18.5667 70.6266C16.6333 66.1555 15.6666 61.3716 15.6666 56.2747C15.6666 51.1778 16.6333 46.4023 18.5667 41.9481C20.5 37.4938 23.1277 33.5945 26.4499 30.2501C29.7721 26.9057 33.6698 24.2779 38.1429 22.3668C42.616 20.4557 47.3757 19.5001 52.422 19.5001C57.4683 19.5001 62.2248 20.4557 66.6914 22.3668C71.158 24.2779 75.0636 26.9057 78.4081 30.2501C81.7524 33.5945 84.3802 37.4949 86.2914 41.9512C88.2024 46.4075 89.158 51.1852 89.158 56.2845C89.158 61.3837 88.2024 66.1666 86.2914 70.6332C84.3802 75.0999 81.7524 78.9874 78.4081 82.2957C75.0636 85.604 71.158 88.2137 66.6914 90.1249C62.2248 92.0359 57.4683 92.9915 52.422 92.9915ZM65.9999 73.2999L69.4664 69.8334L55.1331 55.5192V34.6667H50.2166V57.4749L65.9999 73.2999ZM24.6416 12.4502L28.1081 15.875L11.8416 31.6999L8.375 28.2334L24.6416 12.4502ZM80.1831 12.4502L96.4913 28.2334L93.0247 31.6999L76.7581 15.875L80.1831 12.4502ZM52.4211 88.075C61.2624 88.075 68.7762 84.9814 74.9623 78.7943C81.1484 72.6071 84.2415 65.0964 84.2415 56.262C84.2415 47.416 81.1479 39.897 74.9608 33.7049C68.7736 27.5128 61.2629 24.4167 52.4285 24.4167C43.5825 24.4167 36.0635 27.5127 29.8714 33.7047C23.6793 39.8966 20.5832 47.4133 20.5832 56.2546C20.5832 65.0959 23.6792 72.6097 29.8712 78.7958C36.0631 84.9819 43.5798 88.075 52.4211 88.075Z" fill="#F59E0B"/>
</g>
</svg>
