<?xml version="1.0" encoding="utf-8"?>
<!-- Generator: Adobe Illustrator 25.2.3, SVG Export Plug-In . SVG Version: 6.00 Build 0)  -->
<svg version="1.1" id="Capa_1" xmlns="http://www.w3.org/2000/svg" xmlns:xlink="http://www.w3.org/1999/xlink" x="0px" y="0px"
	 viewBox="0 0 267 61.4" style="enable-background:new 0 0 267 61.4;" xml:space="preserve">
<style type="text/css">
	.st0{fill:#3CB394;}
	.st1{fill:#8BCCC1;}
	.st2{fill:#1AB2A9;}
	.st3{fill:#0099CF;}
	.st4{fill:#00A7BD;}
	.st5{fill:#80C3EC;}
	.st6{fill:#88CCCD;}
	.st7{fill:#84CDDA;}
	.st8{fill:#80CCE6;}
	.st9{fill:#2B85C7;}
</style>
<path class="st0" d="M6,42.7c-1.5,0-3-0.6-4.2-1.7C0.8,40,0.1,38.5,0,37v17.8c0,0.8,0.1,1.6,0.4,2.3c0.3,0.7,0.7,1.4,1.3,2
	c0.6,0.6,1.2,1,2,1.3c0.7,0.3,1.5,0.5,2.3,0.5c0.8,0,1.6-0.2,2.3-0.5c0.7-0.3,1.4-0.8,2-1.3c0.6-0.6,1-1.3,1.3-2
	c0.3-0.7,0.4-1.5,0.4-2.3V37c-0.1,1.5-0.8,3-1.9,4.1C9.1,42.1,7.6,42.7,6,42.7z"/>
<path class="st1" d="M6,42.7c3.3,0,6-2.7,6-6c0-3.3-2.7-6-6-6c-3.3,0-6,2.7-6,6C0,40,2.7,42.7,6,42.7z"/>
<path class="st2" d="M57.9,12.6c-1.1,0-2.2-0.3-3.1-0.8c-0.9-0.6-1.7-1.3-2.2-2.3c-0.5-1-0.8-2-0.7-3.1s0.4-2.1,1-3l-20.8,29
	l4.7,6.5c0.8,1,1.3,2.2,1.4,3.4c0.1,1.3-0.2,2.5-0.9,3.6l14.7-20.5v29.1c0.1-1.5,0.7-3,1.9-4.1c1.1-1.1,2.6-1.7,4.2-1.7
	c1.6,0,3,0.6,4.2,1.7c1.1,1.1,1.8,2.5,1.9,4.1V6.9c-0.1,1.5-0.7,3-1.9,4.1C60.9,12,59.4,12.6,57.9,12.6z"/>
<path class="st0" d="M32,36.6c0.9,0,1.8,0.2,2.6,0.6c0.8,0.4,1.5,0.9,2.1,1.6L32,32.3l-21-29.3c-0.5-0.6-1-1.2-1.7-1.6
	C8.6,1.1,7.8,0.8,7,0.7C6.2,0.5,5.4,0.5,4.7,0.7c-0.8,0.2-1.5,0.5-2.1,1c-0.6,0.5-1.2,1-1.6,1.7C0.5,4.1,0.2,4.8,0.1,5.6
	C0,6.4,0,7.2,0.2,7.9c0.2,0.8,0.5,1.5,1,2.1l25.7,35.7c0,0.1,0.1,0.1,0.1,0.2c-0.6-0.9-0.9-2-1-3c0-1.1,0.2-2.2,0.7-3.1
	c0.5-1,1.3-1.8,2.2-2.3C29.8,36.9,30.9,36.6,32,36.6z"/>
<path class="st3" d="M189.4,8.1c-5.6-5-13.1-7.6-21.9-7.6h-18.1c1.6,0,3.1,0.7,4.2,1.8c1.1,1.1,1.7,2.6,1.7,4.2
	c0,1.6-0.6,3.1-1.7,4.2c-1.1,1.1-2.6,1.8-4.2,1.8h18.1c5.7,0,10.5,1.6,13.8,4.5c3.5,3.1,5.3,7.7,5.3,13.6s-1.8,10.4-5.3,13.5
	c-3.3,2.9-8.1,4.5-13.8,4.5h-12v5.4v0c0,0.2,0,0.4,0,0.6c0,1.6-0.6,3.1-1.8,4.3c-1.1,1.1-2.7,1.8-4.3,1.8h18
	c8.7,0,16.3-2.6,21.8-7.5c6.1-5.4,9.3-13.2,9.3-22.5S195.5,13.6,189.4,8.1z"/>
<path class="st4" d="M155.5,54.1V24.7c0-1.6-0.7-3.1-1.8-4.2c-1.1-1.1-2.6-1.7-4.2-1.7c-1.6,0-3.1,0.6-4.2,1.7
	c-1.1,1.1-1.8,2.6-1.8,4.2v30c0-1.5,0.6-3,1.7-4.2c1.1-1.1,2.5-1.8,4.1-1.9c1.5-0.1,3.1,0.4,4.2,1.4S155.4,52.5,155.5,54.1z"/>
<path class="st3" d="M230.2,55.4c0-1.6,0.6-3.1,1.8-4.3c1.1-1.1,2.7-1.8,4.3-1.8c-3.7,0-7.3-1.1-10.4-3.2c-3.1-2.1-5.5-5-6.9-8.4
	c-1.4-3.4-1.8-7.2-1.1-10.8c0.7-3.6,2.5-6.9,5.1-9.6c1.1-1.1,1.7-2.7,1.7-4.3c0-1.6-0.7-3.1-1.8-4.2c-1.1-1.1-2.7-1.7-4.3-1.7
	c-1.6,0-3.1,0.7-4.3,1.8c-4.2,4.3-7.1,9.7-8.3,15.5c-1.2,5.9-0.6,12,1.6,17.6c2.2,5.6,6.1,10.4,11,13.8c5,3.4,10.8,5.3,16.8,5.5h0
	c-1.5-0.2-2.8-0.9-3.8-2C230.8,58.3,230.2,56.8,230.2,55.4z"/>
<path class="st5" d="M236.3,12.1c3.3,0,6-2.7,6-6c0-3.3-2.7-6-6-6c-3.3,0-6,2.7-6,6C230.2,9.4,232.9,12.1,236.3,12.1z"/>
<path class="st1" d="M32,48.7c3.3,0,6-2.7,6-6c0-3.3-2.7-6-6-6c-3.3,0-6,2.7-6,6C25.9,46,28.6,48.7,32,48.7z"/>
<path class="st6" d="M57.9,60.7c3.3,0,6-2.7,6-6c0-3.3-2.7-6-6-6c-3.3,0-6,2.7-6,6C51.8,58,54.5,60.7,57.9,60.7z"/>
<path class="st6" d="M57.9,12.6c3.3,0,6-2.7,6-6c0-3.3-2.7-6-6-6c-3.3,0-6,2.7-6,6C51.8,9.9,54.5,12.6,57.9,12.6z"/>
<path class="st7" d="M149.5,60.7c3.3,0,6-2.7,6-6c0-3.3-2.7-6-6-6c-3.3,0-6,2.7-6,6C143.5,58,146.2,60.7,149.5,60.7z"/>
<path class="st8" d="M149.5,12.6c3.3,0,6-2.7,6-6c0-3.3-2.7-6-6-6c-3.3,0-6,2.7-6,6C143.5,9.9,146.2,12.6,149.5,12.6z"/>
<path class="st9" d="M236.8,0c1.5,0.1,2.9,0.9,3.9,2c1,1.1,1.6,2.6,1.5,4.1c0,1.5-0.6,3-1.7,4.1c-1.1,1.1-2.5,1.8-4,1.8
	c4.9,0.1,9.6,2.2,13,5.7c3.4,3.5,5.3,8.2,5.3,13.1s-2,9.6-5.5,13c-3.5,3.5-8.2,5.4-13.1,5.4c1.6,0,3.1,0.6,4.2,1.6
	c1.1,1.1,1.8,2.5,1.9,4.1c0.1,1.5-0.4,3.1-1.4,4.2c-1,1.2-2.4,1.9-4,2.1c8-0.2,15.7-3.5,21.3-9.2c5.6-5.7,8.8-13.4,8.7-21.5
	c0-8-3.2-15.7-8.8-21.4C252.6,3.5,244.9,0.2,236.8,0z"/>
<path class="st8" d="M236.3,61.4c3.3,0,6-2.7,6-6c0-3.3-2.7-6-6-6c-3.3,0-6,2.7-6,6C230.2,58.7,232.9,61.4,236.3,61.4z"/>
<path class="st2" d="M98.2,55.4c0-1.6,0.6-3.1,1.8-4.3c1.1-1.1,2.7-1.8,4.3-1.8c-3.7,0-7.3-1.1-10.4-3.2c-3.1-2.1-5.5-5-6.9-8.4
	c-1.4-3.4-1.8-7.2-1.1-10.8c0.7-3.6,2.5-6.9,5.1-9.6c1.1-1.1,1.7-2.7,1.7-4.3c0-1.6-0.7-3.1-1.8-4.2c-1.1-1.1-2.7-1.7-4.3-1.7
	c-1.6,0-3.1,0.7-4.3,1.8c-4.2,4.3-7.1,9.7-8.3,15.5c-1.2,5.9-0.6,12,1.6,17.6c2.2,5.6,6.1,10.4,11,13.8c5,3.4,10.8,5.3,16.8,5.5h0
	c-1.5-0.2-2.8-0.9-3.8-2C98.8,58.3,98.2,56.8,98.2,55.4z"/>
<path class="st7" d="M104.3,12.1c3.3,0,6-2.7,6-6c0-3.3-2.7-6-6-6s-6,2.7-6,6C98.2,9.4,100.9,12.1,104.3,12.1z"/>
<path class="st4" d="M104.9,0c1.5,0.1,2.9,0.9,3.9,2c1,1.1,1.6,2.6,1.5,4.1c0,1.5-0.6,3-1.7,4.1c-1.1,1.1-2.5,1.8-4,1.8
	c4.9,0.1,9.6,2.2,13,5.7c3.4,3.5,5.3,8.2,5.3,13.1c0,4.9-2,9.6-5.5,13c-3.5,3.5-8.2,5.4-13.1,5.4c1.5,0,3,0.6,4.1,1.7
	c1.1,1.1,1.8,2.5,1.9,4c0.1,1.5-0.4,3-1.4,4.2c-1,1.2-2.4,1.9-3.9,2.1c8-0.2,15.6-3.6,21.2-9.3c5.6-5.7,8.7-13.4,8.7-21.4
	c0-8-3.2-15.7-8.8-21.4C120.5,3.5,112.9,0.2,104.9,0z"/>
<path class="st6" d="M104.3,61.4c3.3,0,6-2.7,6-6c0-3.3-2.7-6-6-6s-6,2.7-6,6C98.2,58.7,100.9,61.4,104.3,61.4z"/>
</svg>
