<?xml version="1.0" encoding="utf-8"?>
<!-- Generator: Adobe Illustrator 25.2.3, SVG Export Plug-In . SVG Version: 6.00 Build 0)  -->
<svg version="1.1" id="Capa_1" xmlns="http://www.w3.org/2000/svg" xmlns:xlink="http://www.w3.org/1999/xlink" x="0px" y="0px"
	 viewBox="0 0 14.3 14.3" style="enable-background:new 0 0 14.3 14.3;" xml:space="preserve">
<style type="text/css">
	.st0{fill:#121212;}
</style>
<path class="st0" d="M7.1,0c-1.4,0-2.8,0.4-4,1.2C2,2,1.1,3.1,0.5,4.4C0,5.7-0.1,7.1,0.1,8.5c0.3,1.4,1,2.7,2,3.7c1,1,2.3,1.7,3.7,2
	c1.4,0.3,2.8,0.1,4.1-0.4c1.3-0.5,2.4-1.5,3.2-2.6s1.2-2.6,1.2-4c0-0.9-0.2-1.9-0.5-2.7c-0.4-0.9-0.9-1.7-1.5-2.3
	c-0.7-0.7-1.4-1.2-2.3-1.5C9,0.2,8.1,0,7.1,0z M7.1,13.2c-1.2,0-2.4-0.4-3.4-1c-1-0.7-1.8-1.6-2.2-2.7C1.1,8.4,1,7.1,1.2,6
	C1.4,4.8,2,3.7,2.8,2.8C3.7,2,4.8,1.4,6,1.2C7.1,1,8.4,1.1,9.5,1.5c1.1,0.5,2.1,1.2,2.7,2.2c0.7,1,1,2.2,1,3.4
	c0,1.6-0.6,3.2-1.8,4.3S8.7,13.2,7.1,13.2z"/>
<path class="st0" d="M7.1,3.6C6.6,3.6,6,3.8,5.6,4.2C5.2,4.6,5,5.1,5,5.7h1.1c0-0.2,0.1-0.4,0.2-0.6s0.3-0.3,0.5-0.4
	c0.2-0.1,0.4-0.1,0.6-0.1c0.2,0,0.4,0.1,0.5,0.3C8,5.1,8.1,5.3,8.2,5.5s0,0.4-0.1,0.6C8,6.3,7.9,6.5,7.7,6.6
	C7.6,6.7,7.3,6.8,7.1,6.8H6.6v1.8h1.1V7.8c0.5-0.1,0.9-0.4,1.2-0.9c0.3-0.4,0.4-0.9,0.3-1.5c-0.1-0.5-0.3-1-0.7-1.3
	C8.2,3.8,7.7,3.6,7.1,3.6z"/>
<path class="st0" d="M7.7,9.6H6.6v1.1h1.1V9.6z"/>
</svg>
